<?xml version="1.0" encoding="UTF-8"?>
<svg width="1237px" height="1011px" viewBox="0 0 1237 1011" version="1.1" xmlns="http://www.w3.org/2000/svg" xmlns:xlink="http://www.w3.org/1999/xlink">
    <title>Group 11</title>
    <g id="Page-1" stroke="none" stroke-width="1" fill="none" fill-rule="evenodd">
        <g id="Carrier" transform="translate(-104.000000, -1372.000000)">
            <g id="Group-11" transform="translate(104.000000, 1372.000000)">
                <text id="Wir-denken-und-hande" font-family="Helvetica" font-size="18" font-weight="normal" line-spacing="24" letter-spacing="0.168750007" fill="#171718">
                    <tspan x="196.563281" y="354">Wir denken und handeln stets </tspan>
                    <tspan x="252.107519" y="378">kundenorientiert</tspan>
                </text>
                <text id="Customer-centric" font-family="Helvetica" font-size="30" font-weight="normal" letter-spacing="0.281250011" fill="#303030">
                    <tspan x="204.385742" y="305">Customer centric</tspan>
                </text>
                <text id="Wir-fördern-Neugierd" font-family="Helvetica" font-size="18" font-weight="normal" line-spacing="24" letter-spacing="0.168750007" fill="#171718">
                    <tspan x="505.837402" y="193">Wir fördern Neugierde und </tspan>
                    <tspan x="561.444043" y="217">Innovationen</tspan>
                </text>
                <text id="Take-moonshots" font-family="Helvetica" font-size="30" font-weight="normal" letter-spacing="0.281250011" fill="#303030">
                    <tspan x="504.805176" y="143">Take moonshots</tspan>
                </text>
                <text id="Wir-arbeiten-gemeins" font-family="Helvetica" font-size="18" font-weight="normal" line-spacing="24" letter-spacing="0.168750007" fill="#171718">
                    <tspan x="802.492285" y="353">Wir arbeiten gemeinsam als Team </tspan>
                    <tspan x="881.114844" y="377">auf ein Ziel hin</tspan>
                    <tspan x="941" y="401"></tspan>
                </text>
                <text id="A-Team-of-all-kinds" font-family="Helvetica" font-size="30" font-weight="normal" letter-spacing="0.281250011" fill="#303030">
                    <tspan x="815.523437" y="303">A Team of all kinds</tspan>
                </text>
                <g id="Group-3" transform="translate(0.000000, 562.000000)" font-family="Helvetica" font-weight="normal">
                    <text id="Wir-geben-jedem-eine" font-size="18" line-spacing="24" letter-spacing="0.168750007" fill="#171718">
                        <tspan x="91.2505859" y="78">Wir geben jedem eine klare </tspan>
                        <tspan x="61.558496" y="102">Perspektive und die Möglichkeit zu </tspan>
                        <tspan x="166.888379" y="126">wachsen</tspan>
                        <tspan x="203" y="150"></tspan>
                    </text>
                    <text id="Hire-from-within" font-size="30" letter-spacing="0.281250011" fill="#303030">
                        <tspan x="98.5629882" y="29">Hire from within</tspan>
                    </text>
                </g>
                <text id="Wir-übernehmen-die-V" font-family="Helvetica" font-size="18" font-weight="normal" line-spacing="24" letter-spacing="0.168750007" fill="#171718">
                    <tspan x="273.716992" y="929">Wir übernehmen die Verantwortung </tspan>
                    <tspan x="277.126269" y="953">das beste Endergebnis zu erzielen</tspan>
                </text>
                <text id="We-celebrate-ownersh" font-family="Helvetica" font-size="30" font-weight="normal" letter-spacing="0.281250011" fill="#303030">
                    <tspan x="256.256836" y="879">We celebrate ownership</tspan>
                </text>
                <text id="Wir-setzen-uns-gemei" font-family="Helvetica" font-size="18" font-weight="normal" line-spacing="24" letter-spacing="0.168750007" fill="#171718">
                    <tspan x="741.434473" y="926">Wir setzen uns gemeinsam </tspan>
                    <tspan x="776.863184" y="950">ambitionierte Ziele</tspan>
                </text>
                <text id="Strive-for-impact" font-family="Helvetica" font-size="30" font-weight="normal" letter-spacing="0.281250011" fill="#303030">
                    <tspan x="743.247558" y="876">Strive for impact</tspan>
                </text>
                <text id="Wir-sind-agil-und-le" font-family="Helvetica" font-size="18" font-weight="normal" line-spacing="24" letter-spacing="0.168750007" fill="#171718">
                    <tspan x="902.737012" y="640">Wir sind agil und lernen schnell</tspan>
                    <tspan x="1030" y="664"></tspan>
                </text>
                <text id="Get-it-done" font-family="Helvetica" font-size="30" font-weight="normal" letter-spacing="0.281250011" fill="#303030">
                    <tspan x="957.071777" y="590">Get it done</tspan>
                </text>
                <g id="Group-5" transform="translate(576.000000, 0.000000)" fill-rule="nonzero">
                    <g id="light-bulb" fill="#FE6B46">
                        <path d="M48.8290685,71.0746228 L48.8290685,73.4510288 C48.8290685,75.3421125 47.4247675,76.9152263 45.5974843,77.1829904 L45.0053092,79.3418381 C44.6838427,80.5133059 43.6179274,81.3333333 42.3828193,81.3333333 L36.511826,81.3333333 C35.2767179,81.3333333 34.2108027,80.5133059 33.8893362,79.3418381 L33.3140803,77.1829904 C31.4698778,76.8984911 30.0655768,75.3421125 30.0655768,73.4342936 L30.0655768,71.0578875 C30.0655768,69.7860082 31.0976535,68.7651578 32.3835194,68.7651578 L46.5111259,68.7651578 C47.7969919,68.781893 48.8290685,69.8027435 48.8290685,71.0746228 Z M59.7081714,39.0433471 C59.7081714,44.448834 57.5425024,49.3522634 54.0232903,52.9503429 C51.3500426,55.6949246 49.6242751,59.1925926 49.0490193,62.9245542 C48.7952299,64.5311385 47.3909289,65.7193416 45.7328386,65.7193416 L33.1618067,65.7193416 C31.5206357,65.7193416 30.0994154,64.5478738 29.8625454,62.9412894 C29.2703702,59.2093278 27.5276835,55.661454 24.8544358,52.9336077 C21.4029008,49.3857339 19.2541511,44.5659808 19.2033932,39.2609053 C19.0849582,28.1152263 28.0521814,19.0949246 39.320428,19.0112483 C50.5717553,18.927572 59.7081714,27.9311385 59.7081714,39.0433471 Z M41.7398863,26.9102881 C41.7398863,25.6718793 40.724729,24.6510288 39.4557823,24.6510288 C31.4022007,24.6510288 24.8375165,31.127572 24.8375165,39.1102881 C24.8375165,40.3486968 25.8526738,41.3695473 27.1216205,41.3695473 C28.3736479,41.3695473 29.4057246,40.3654321 29.4057246,39.1102881 C29.4057246,33.6211248 33.9231748,29.1695473 39.4557823,29.1695473 C40.724729,29.1695473 41.7398863,28.1654321 41.7398863,26.9102881 Z M39.4557823,12.4342936 C40.7078097,12.4342936 41.7398863,11.4301783 41.7398863,10.1750343 L41.7398863,2.25925926 C41.7398863,1.02085048 40.724729,0 39.4557823,0 C38.1868356,0 37.1716783,1.00411523 37.1716783,2.25925926 L37.1716783,10.1750343 C37.1716783,11.4301783 38.2037549,12.4342936 39.4557823,12.4342936 Z M12.5710318,39.0266118 C12.5710318,37.788203 11.5558745,36.7673525 10.2869278,36.7673525 L2.28410404,36.7673525 C1.03207664,36.7673525 0,37.7714678 0,39.0266118 C0,40.2650206 1.01515735,41.2858711 2.28410404,41.2858711 L10.2869278,41.2858711 C11.5558745,41.2858711 12.5710318,40.2817558 12.5710318,39.0266118 Z M76.6274606,36.7673525 L68.6246368,36.7673525 C67.3726094,36.7673525 66.3405328,37.7714678 66.3405328,39.0266118 C66.3405328,40.2650206 67.3556901,41.2858711 68.6246368,41.2858711 L76.6274606,41.2858711 C77.879488,41.2858711 78.9115646,40.2817558 78.9115646,39.0266118 C78.9115646,37.788203 77.8964073,36.7673525 76.6274606,36.7673525 Z M17.2238364,57.837037 L11.5558745,63.4433471 C10.6591522,64.3303155 10.6591522,65.7528121 11.5558745,66.6397805 C11.995776,67.0748971 12.5879511,67.2924554 13.163207,67.2924554 C13.7384628,67.2924554 14.3306379,67.0748971 14.7705394,66.6397805 L20.4385013,61.0334705 C21.3352236,60.1465021 21.3352236,58.7240055 20.4385013,57.837037 C19.5586983,56.9500686 18.1036394,56.9500686 17.2238364,57.837037 Z M60.0803958,20.8855967 C60.6556516,20.8855967 61.2478267,20.6680384 61.6877283,20.2329218 L67.3556901,14.6266118 C68.2524125,13.7396433 68.2524125,12.3171468 67.3556901,11.4301783 C66.4589678,10.5432099 65.0208282,10.5432099 64.1241059,11.4301783 L58.456144,17.0364883 C57.5594217,17.9234568 57.5594217,19.3459534 58.456144,20.2329218 C58.9129648,20.6680384 59.4882207,20.8855967 60.0803958,20.8855967 Z M17.2238364,20.2161866 C17.6637379,20.6513032 18.255913,20.8688615 18.8311688,20.8688615 C19.4064247,20.8688615 19.9985998,20.6513032 20.4385013,20.2161866 C21.3352236,19.3292181 21.3352236,17.9067215 20.4385013,17.0197531 L14.7705394,11.4134431 C13.8738171,10.5264746 12.4356775,10.5264746 11.5389552,11.4134431 C10.6422329,12.3004115 10.6422329,13.7229081 11.5389552,14.6098765 L17.2238364,20.2161866 Z M61.6877283,57.837037 C60.7910059,56.9500686 59.3528664,56.9500686 58.456144,57.837037 C57.5594217,58.7240055 57.5594217,60.1465021 58.456144,61.0334705 L64.1241059,66.6397805 C64.5640074,67.0748971 65.1561825,67.2924554 65.7314384,67.2924554 C66.3066942,67.2924554 66.8988693,67.0748971 67.3387708,66.6397805 C68.2354932,65.7528121 68.2354932,64.3303155 67.3387708,63.4433471 L61.6877283,57.837037 Z" id="XMLID_49_"></path>
                    </g>
                    <g id="light-bulb" transform="translate(29.333333, 68.000000)" fill="#4E4E54">
                        <path d="M19.8463408,2.8223594 L19.8463408,5.25720165 C19.8463408,7.19478738 18.4127835,8.80658436 16.5474319,9.08093278 L15.9429198,11.2928669 C15.6147561,12.4931413 14.5266343,13.3333333 13.2657947,13.3333333 L7.27248904,13.3333333 C6.01164951,13.3333333 4.92352773,12.4931413 4.59536402,11.2928669 L4.00812369,9.08093278 C2.12550029,8.78943759 0.691943015,7.19478738 0.691943015,5.24005487 L0.691943015,2.80521262 C0.691943015,1.50205761 1.74552125,0.456104252 3.0581761,0.456104252 L17.4801077,0.456104252 C18.7927625,0.473251029 19.8463408,1.51920439 19.8463408,2.8223594 Z" id="XMLID_49_"></path>
                    </g>
                </g>
                <g id="team" transform="translate(893.000000, 167.000000)" fill-rule="nonzero">
                    <path d="M71,31.6364997 L71,32.7210009 C71,34.0499125 71.2218455,35.3700283 71.6568176,36.6306322 L74.2,44 L79,44 L79,27 L75.8,27 C73.1490918,27.0001871 71,29.0758044 71,31.6364997 Z" id="Path" fill="#4E4E54"></path>
                    <path d="M93.4871638,35.128764 L90.6668683,45 L77.3333333,33.3333333 C75.4922903,33.3333333 74,31.8408412 74,30 L74,30 C74,27.2386373 76.2386373,25 79,25 L90.6666665,25 C92.5077095,25 94,26.4924921 94,28.3333333 L94,31.4660531 C94.0002016,32.70465 93.8274399,33.937394 93.4871638,35.128764 Z" id="Path" fill="#4E4E54"></path>
                    <rect id="Rectangle" fill="#FE6B46" x="79" y="47" width="9" height="8"></rect>
                    <path d="M79,50.7860031 C80.3911964,51.5627215 81.9082708,52 83.5,52 C85.0917292,52 86.6088036,51.5627215 88,50.7860031 L88,47 L79,47 L79,50.7860031 L79,50.7860031 Z" id="Path" fill="#FE6B46"></path>
                    <path d="M95.5185001,54.1924536 L87.7994866,52 L82.9999031,55.1664708 L78.1999322,52 L70.4813061,54.1924536 C68.4205775,54.7777885 67,56.6501281 67,58.780562 L67,70.4094455 C67,71.2879293 67.716295,72 68.5999903,72 L97.4000097,72 C98.283705,72 99,71.2879293 99,70.4094455 L99,58.780562 C99,56.6499355 97.5792288,54.7777885 95.5185001,54.1924536 Z" id="Path" fill="#4E4E54"></path>
                    <polygon id="Path" fill="#FFFFFF" points="87 72 82 72 83.25 55 85.75 55"></polygon>
                    <path d="M83.9998991,49 L83.9998991,49 C78.4770276,49 74,44.8437526 74,39.7170147 L74,37.9043707 C74,37.0837629 74.3511711,36.2966914 74.9762152,35.7162706 L77.9985065,32.9106537 C78.6384855,32.3165562 79.5135877,31.9750109 80.4181559,32.0014278 C85.7458652,32.1574931 90.4616487,33.2169765 93.0395269,35.5542099 C93.6706258,36.1263872 94,36.9267608 94,37.7454951 L94,39.7170147 C94,44.84394 89.5227706,49 83.9998991,49 Z" id="Path" fill="#FE6B46"></path>
                    <path d="M79.0115812,38.4278113 C79.0115812,36.6034748 80.629917,35.1533514 82.5531067,35.2694072 C85.9255161,35.4731752 90.9298148,36.0067257 94,37.404758 C93.8998655,36.7375327 93.5970344,36.1076521 93.0838197,35.6330872 C90.4999444,33.2439839 85.7731902,32.1609876 80.4330869,32.0014587 L80.4328846,32.0016503 L80.4328846,32.0014587 C79.5264143,31.9744557 78.649074,32.3237722 78.0078085,32.930863 L74.9786885,35.7985529 C74.351988,36.3916633 74,37.1962022 74,38.0352131 L74,39.8880848 C74,44.2154737 77.0629027,47.8589758 81.2460983,49 C79.8537227,47.3736862 79.0117835,45.3091946 79.0117835,43.0510851 L79.0115812,38.4278113 L79.0115812,38.4278113 Z" id="Path" fill="#FE6B46"></path>
                    <path d="M94,64.024202 C94,62.8338466 94.3950714,61.6924024 95.0983289,60.8507663 L98.3159663,57 C98.7460039,57.7356618 99,58.6213181 99,59.5667548 L99,70.5040397 C99,71.3302779 98.4403911,72 97.75,72 L94,72 L94,64.024202 L94,64.024202 Z" id="Path" fill="#4E4E54"></path>
                    <path d="M85.75,60 L83.25,60 C82.5597602,60 82,59.4402398 82,58.75 L82,55 L87,55 L87,58.75 C87,59.4402398 86.4405425,60 85.75,60 Z" id="Path" fill="#FFFFFF"></path>
                    <g id="Group" transform="translate(76.000000, 49.000000)" fill="#FFFFFF">
                        <path d="M5.98591304,5.202 L3.55165217,7.57777778 C3.13234783,7.98711111 2.52608696,7.82311111 2.27269565,7.23155556 L0.0890434783,2.136 L0.968,0.422888889 C1.16295652,0.0428888889 1.57843478,-0.0217777778 1.83913043,0.287111111 L5.98591304,5.202 Z" id="Path"></path>
                        <path d="M5.98591304,5.202 L8.42017391,7.578 C8.83947826,7.98733333 9.44573913,7.82333333 9.69913043,7.23177778 L11.8827826,2.13622222 L11.0038261,0.423111111 C10.8088696,0.0431111111 10.3933913,-0.0215555556 10.1326957,0.287333333 L5.98591304,5.202 Z" id="Path"></path>
                    </g>
                    <path d="M28.8898541,47.7744896 C27.491182,44.3781695 26.3818767,38.5396885 26.1422572,35.4999294 C25.6864054,29.7153957 20.9298896,25 14.5,25 C8.0701132,25 3.31359736,29.7155774 2.8577456,35.4999294 C2.61812613,38.5395069 1.50882078,44.3781695 0.110148655,47.7744896 C-0.198046775,48.523213 0.157715796,49.3487706 0.962195057,49.6829897 C2.46095637,50.3054728 5.65647722,51.5250093 9.51040657,52 L19.489398,52 C23.3252915,51.5239194 26.5432085,50.3036564 28.0376095,49.6829897 C28.842287,49.3487706 29.1980496,48.523213 28.8898541,47.7744896 Z" id="Path" fill="#4E4E54"></path>
                    <path d="M28.0071429,49.6829897 C28.8371511,49.3487706 29.2044982,48.523213 28.8862398,47.7744896 C27.4430319,44.3781695 26.2980379,38.5396885 26.0509581,35.4999294 C25.5807292,29.7153957 20.6718588,25 14.0364977,25 C14.0197258,25 14.0031583,25 13.9863863,25 C8.89486504,25.0185274 7.0955595,31.1850516 11.4785672,33.4858959 C11.7418053,33.6241246 11.9105478,33.6906051 11.9105478,33.6906051 L15.749489,52 L19.1854937,52 C23.1440886,51.5235561 26.4649395,50.3034747 28.0071429,49.6829897 Z" id="Path" fill="#4E4E54"></path>
                    <path d="M26.3281644,57.0112013 L21.114427,54.4831412 C20.0226715,53.9537263 19.3330082,52.8714343 19.3332033,51.6877247 L19.3335935,47 L9.66660163,47 L9.66660163,51.6879139 C9.66660163,52.8716235 8.97713344,53.9535371 7.88537791,54.482952 L2.67164049,57.0112013 C1.03420229,57.8051345 0,59.4281941 0,61.2035693 L0,70.4374882 C0,71.3002944 0.721268795,72 1.61110027,72 L27.3888997,72 C28.2787312,72 29,71.3002944 29,70.4374882 L29,61.2037585 C29,59.4281941 27.9656026,57.8051345 26.3281644,57.0112013 Z" id="Path" fill="#FE6B46"></path>
                    <path d="M15.5003569,52 C17.0870177,52 18.6067647,51.7225418 20,51.2286268 C19.9634204,51.0710523 19.920774,50.914386 19.920774,50.7501514 L19.9211309,47 L11.0795829,47 L11.0795829,50.7503027 C11.0795829,50.9154456 11.0369364,51.0728687 11,51.2310487 C12.3941274,51.7223904 13.9131607,52 15.5003569,52 Z" id="Path" fill="#FE6B46"></path>
                    <path d="M26.3281644,56.8238164 L22.6139325,55.0001916 C20.8916277,57.6117741 17.9045175,59.343825 14.5000975,59.343825 C11.0956776,59.343825 8.1083723,57.6117741 6.38606748,55 L2.67183558,56.8238164 C1.03439739,57.627675 0,59.2710256 0,61.068596 L0,70.4179542 C0,71.2917385 0.721268795,72 1.61110027,72 L27.3888997,72 C28.2787312,72 29,71.2917385 29,70.4179542 L29,61.0687875 C29,59.2710256 27.9656026,57.627675 26.3281644,56.8238164 Z" id="Path" fill="#4E4E54"></path>
                    <path d="M14.9787735,49 L14.9787735,49 C9.87038879,49 5.65260527,45.5282024 5.01486829,41.0342559 C4.92240149,40.3831092 5.26611029,39.7447047 5.90972784,39.4490479 C6.68069,39.0948507 7.80103875,38.4976277 8.87373465,37.6259849 C10.0683002,36.6553589 10.7691011,35.6317326 11.1649239,34.8803101 C11.5057938,34.2332261 12.2893282,33.86721 13.0529903,34.0446779 C18.948965,35.4141913 22.9629566,38.2076956 24.4193086,39.3482181 C24.8102647,39.6544011 25.0355511,40.1059194 24.9954011,40.5742428 C24.5896422,45.28887 20.2601279,49 14.9787735,49 Z" id="Path" fill="#FE6B46"></path>
                    <path d="M24.4194561,39.3856136 C22.9632767,38.2371165 18.9489991,35.4240795 13.0529023,34.0449903 C12.2892243,33.8662815 11.5056737,34.2348569 11.1647967,34.8864653 C10.8650845,35.4595981 10.3696875,36.1896823 9.63460177,36.9350153 C9.63439899,36.9368749 9.63379064,36.9383626 9.63358786,36.9402222 C9.40545782,37.1773229 9.16252468,37.4149814 8.87376275,37.6515243 C7.80104461,38.5294477 6.68067265,39.1306606 5.90969451,39.4873344 C5.26606363,39.7850585 4.92255049,40.4281128 5.01481641,41.0838124 C5.58767629,45.1479971 9.05565843,48.3829803 13.4556278,49 C11.4507197,47.7492241 9.95520052,46.0290819 9.95520052,42.9625797 L9.95520052,40.7726991 C10.33562,40.5151427 10.7186757,40.2583301 11.1035564,39.9433116 C12.034327,39.181614 12.8468755,38.3007152 13.4984149,37.3523125 C18.0089006,38.64307 21.066857,40.7929689 22.2261632,41.7071548 C22.5435174,41.9622937 23.3311237,42.6280352 24.2525663,43.4207884 C24.6490056,42.5458403 24.911203,41.6071076 24.9953577,40.6205827 C25.0357114,40.1487989 24.8104203,39.6941234 24.4194561,39.3856136 Z" id="Path" fill="#FE6B46"></path>
                    <path d="M0.761988375,57 C0.28048559,57.8802435 0,58.9600117 0,60.1035777 L0,70.2782921 C0,71.2292136 0.559608864,72 1.25,72 L5,72 L5,63.3247436 C5,62.2787507 4.65472875,61.2892586 4.06166747,60.6358519 L0.761988375,57 Z" id="Path" fill="#4E4E54"></path>
                    <path d="M73.7406313,53.9985123 L60.2058132,49 L50.5,52.2858564 L40.7941868,49 L27.2593687,53.9987112 C24.7022588,54.9430692 23,57.4110921 23,60.1743387 L23,70.3571713 C23,71.2643278 23.7241945,72 24.6176355,72 L76.3823645,72 C77.2758055,72 78,71.2643278 78,70.3571713 L78,60.1743387 C78,57.4108931 76.2979371,54.9428702 73.7406313,53.9985123 Z" id="Path" fill="#FE6B46"></path>
                    <polygon id="Path" fill="#FFFFFF" points="48.1905122 57 47 72 52 72 50.8094878 57"></polygon>
                    <path d="M51.0000346,57 L48.0001384,57 C47.4477354,57 47,56.5355682 47,55.9625655 L47,52 L52,52 L52,55.9625655 C52.000173,56.5353887 51.5524376,57 51.0000346,57 Z" id="Path" fill="#FE6B46"></path>
                    <path d="M74.3853839,57 C75.3982199,58.0954851 76,59.5544844 76,61.1194631 L76,70.4884686 C76,71.3233069 75.3284694,72 74.5,72 L67,72 L67,66.9466748 C67,65.343075 67.6321143,63.8051861 68.7573868,62.671446 L74.3853839,57 Z" id="Path" fill="#FE6B46"></path>
                    <path d="M67,16.2144571 L67,3.12497635 C67,1.39901157 65.5753641,0 63.8182168,0 L44.7273253,0 C37.6983509,0 32,5.59642471 32,12.5000946 L32,16.2144571 C32,17.8938764 32.27568,19.5623217 32.8164445,21.1554617 L33.3460353,22.7158686 C33.5082454,23.1938106 33.5908916,23.6942685 33.5908916,24.1981321 L33.5908916,25 L65.4089158,25 L65.4089158,24.1981321 C65.4089158,23.6942685 65.491562,23.1938106 65.6537721,22.7158686 L66.1833629,21.1554617 C66.72432,19.5621325 67,17.8936872 67,16.2144571 Z" id="Path" fill="#FE6B46"></path>
                    <path d="M40,6.3476326 C40,9.85332405 42.8887496,12.6952652 46.4521818,12.6952652 L47.3455402,12.6952652 L47.776737,25 L65.4117647,25 L65.4117647,24.1981261 C65.4117647,23.6942586 65.4942729,23.1937969 65.6562122,22.7158513 L66.1849187,21.1554326 C66.7247802,19.5622805 67,17.8938227 67,16.2143906 L67,3.125 C67,1.39902216 65.5777428,0 63.8235294,0 L46.4521818,0 C42.8887496,0 40,2.84194115 40,6.3476326 Z" id="Path" fill="#FE6B46"></path>
                    <rect id="Rectangle" fill="#4E4E54" x="40" y="37" width="20" height="15"></rect>
                    <path d="M50.0001009,45 C53.6472345,45 57.0560158,44.0477113 60,42.4103173 L60,37 L40,37 L40.0002018,42.4103173 C42.9443878,44.0477113 46.3529673,45 50.0001009,45 Z" id="Path" fill="#4E4E54"></path>
                    <g id="Group" transform="translate(37.000000, 48.000000)" fill="#FE6B46">
                        <path d="M13.5,6.1418 L8.19308955,11.4094 C7.47980597,12.1174 6.30087313,12.0376 5.69115672,11.24 L0.188597015,4.0432 L1.62785821,1.0326 C2.05260448,0.1442 3.16041045,-0.1814 4.00385821,0.3346 L13.5,6.1418 Z" id="Path"></path>
                        <path d="M13.5,6.1418 L18.8069104,11.4094 C19.520194,12.1174 20.6991269,12.0376 21.3088433,11.24 L26.811403,4.0432 L25.3721418,1.0326 C24.9473955,0.1442 23.8395896,-0.1814 22.9961418,0.3346 L13.5,6.1418 Z" id="Path"></path>
                    </g>
                    <path d="M48.0002906,41 L48.0002906,41 C39.1636181,41 32,34.1275334 32,25.6500105 L32,23.851641 C32,23.0374955 32.3371297,22.2566221 32.9371817,21.6807721 L34.2626439,20.4091808 C34.8626959,19.8335167 35.1998256,19.0526433 35.1998256,18.2383119 L35.1998256,14.5586714 C35.1998256,13.847874 35.6973825,13.2303873 36.4183363,13.0670006 C40.20252,12.2095455 51.978227,10.1784568 59.9920319,15.832865 C60.5124516,16.199974 60.8001744,16.803148 60.8001744,17.4228652 L60.8001744,18.2383119 C60.8001744,19.0524575 61.1373041,19.8333308 61.7373561,20.4091808 L63.0628183,21.6807721 C63.6628703,22.2564362 64,23.0373096 64,23.851641 L64,25.6500105 C64.0005813,34.1275334 56.8369632,41 48.0002906,41 Z" id="Path" fill="#4E4E54"></path>
                    <path d="M63.1864451,15.8469294 C57.5110731,11.8527931 49.9723297,11.6799224 44.6668616,12.2267242 C42.4289039,12.4572808 40.5797744,12.8136634 39.4493824,13.0690491 C38.7234264,13.2331457 38.2224173,13.8533149 38.2224173,14.5672003 L38.2224173,18.2626397 C38.2224173,19.0805089 37.8829485,19.8647747 37.278538,20.4431263 L35.9438793,21.7202418 C35.3394688,22.2985935 35,23.0828593 35,23.9007285 L35,25.706724 C35,33.5893325 41.1865261,40.0787071 49.164433,41 C46.3844957,38.2297739 44.6666665,34.4757152 44.6666665,30.3316705 L44.6666665,19.0631471 C44.6666665,17.5007762 45.8807552,16.1950978 47.5006457,16.0007582 C51.3670782,15.5368448 58.4487094,15.2579366 64,18.2630131 L64,17.4438371 C64.0003898,16.8214277 63.7100855,16.2154465 63.1864451,15.8469294 Z" id="Path" fill="#4E4E54"></path>
                    <path d="M24.6146161,57 C23.6017801,58.0954851 23,59.5544844 23,61.1194631 L23,70.4884686 C23,71.3233069 23.6715306,72 24.5,72 L32,72 L32,66.9466748 C32,65.343075 31.3678857,63.8051861 30.2426132,62.671446 L24.6146161,57 Z" id="Path" fill="#FE6B46"></path>
                </g>
                <g id="boss" transform="translate(283.000000, 159.000000)" fill-rule="nonzero">
                    <polygon id="Path" fill="#FE6B46" points="47 55.3332628 47 46 23 46 23 55.3332628 35 66"></polygon>
                    <path d="M65.8490447,59.5699726 L49.1913902,55.6604807 C48.9397617,55.6014603 48.7084159,55.5012169 48.4918629,55.3796775 L35.0001525,63.2298448 L22.0345744,55 C21.6989172,55.315181 21.2822814,55.5494372 20.8090673,55.6606328 L4.15141282,59.5701247 C1.71900394,60.14101 0,62.305902 0,64.7982963 L0,75.3145726 C0,76.79784 1.20537679,78 2.6922725,78 L67.3077275,78 C68.7947757,78 70,76.7976879 70,75.3145726 L70,64.7982963 C70,62.3057499 68.2813011,60.1407058 65.8490447,59.5699726 Z" id="Path" fill="#4E4E54"></path>
                    <path d="M23,46.0001493 L23,55.7304353 C38.1167615,61.1120702 47,47.6431322 47,47.6431322 L47,46 L23,46 L23,46.0001493 Z" id="Path" fill="#FE6B46"></path>
                    <path d="M18,15 L19.1730463,41.018223 C19.2825429,43.4488024 20.4647393,45.7028807 22.3954162,47.1627043 L27.9614387,51.3713627 C29.3595782,52.4283703 31.0599769,53 32.8076512,53 L38.1923488,53 C39.9400231,53 41.6404218,52.428524 43.0385613,51.3713627 L48.6045838,47.1627043 C50.5352607,45.702727 51.7174571,43.4489561 51.8269537,41.018223 L53,15 C53,15 18,15 18,15 Z" id="Path" fill="#FE6B46"></path>
                    <polygon id="Path" fill="#FFFFFF" points="39 78 32 78 32.875 66 38.125 66"></polygon>
                    <path d="M39,63 L32,63 L32,65.5093271 C32,66.3326788 32.7006978,67 33.5652302,67 L37.4346112,67 C38.2991436,67 38.9998414,66.3326788 38.9998414,65.5093271 L38.9998414,63 L39,63 Z" id="Path" fill="#FFFFFF"></path>
                    <path d="M43,5.82848759 L44.2324078,14.6635183 C49.8582937,15.8049112 50.6690766,24.7611064 50.7858388,27.319156 C50.8069871,27.7834181 50.9530889,28.231666 51.2013576,28.6222022 L53.3479067,32 C53.3479067,32 52.6132278,26.4155596 55.9771427,22.6649017 C55.9772916,22.6649017 57.132404,0.494080943 43,5.82848759 Z" id="Path" fill="#4E4E54"></path>
                    <path d="M54.9089976,31.5387796 L53.2748468,37.7479219 C53.0811757,38.4839345 52.3852062,39 51.5864156,39 L51.5864156,39 C50.7085822,39 49.9683356,38.3792571 49.8594469,37.5519634 L49.0235947,31.2012263 C48.7999137,29.5013099 50.1951325,28 51.998684,28 L52,28 C53.9508096,28.0001558 55.382106,29.7411955 54.9089976,31.5387796 Z" id="Path" fill="#FE6B46"></path>
                    <path d="M19.3742331,3.44803488 L21.3364335,4.7950736 C12.4646006,11.3775757 14.1227621,22.6678414 14.1227621,22.6678414 C16.7760009,25.3341293 16.7760009,32 16.7760009,32 L19.4292397,29.3337121 C19.4292397,29.3337121 18.4053065,21.6314718 23.4090978,18.6684095 C28.0523407,15.918753 32.1151596,17.3352656 36.260939,17.3352656 C47.3715078,17.3352656 50.48088,13.127412 49.9419362,8.00310696 C49.6629959,5.35162004 45.6288827,-0.171555896 35.3489728,0.00409227478 C31.2003377,0.0749254581 23.4093984,1.33723622 19.3742331,3.44803488 Z" id="Path" fill="#4E4E54"></path>
                    <path d="M18.5925789,16.2878104 C18.5925789,16.2878104 17.1853445,10.7471812 21.3242251,5 C12.4671557,11.5329181 14.1225579,22.7381377 14.1225579,22.7381377 C16.7713814,25.3843412 16.7713814,32 16.7713814,32 L19.420205,29.3537964 C19.420205,29.3537964 18.3979758,21.7095748 23.3934404,18.7688323 C28.0289567,16.0398881 32.0850147,17.4457306 36.2238953,17.4457306 C38.0278381,17.4457306 39.5998175,17.325067 41,17.1182153 C32.4578665,17.4042103 27.422341,10.9400929 18.5925789,16.2878104 Z" id="Path" fill="#4E4E54"></path>
                    <path d="M15.0910024,31.5387796 L16.7251532,37.7479219 C16.9188243,38.4839345 17.6147938,39 18.4135844,39 L18.4135844,39 C19.2914178,39 20.0316644,38.3792571 20.1405531,37.5519634 L20.9764053,31.2012263 C21.2000863,29.5013099 19.8048675,28 18.001316,28 L18,28 C16.0491904,28.0001558 14.617894,29.7411955 15.0910024,31.5387796 Z" id="Path" fill="#FE6B46"></path>
                </g>
                <g id="Group-20" transform="translate(155.000000, 435.000000)" fill-rule="nonzero">
                    <g id="growing-plant">
                        <path d="M54.2539812,53.5604844 C51.1171204,58.4481121 49.2859211,66.8732999 48.2181486,74.8155065 C50.2834346,74.94505 52.3128471,75.3462494 54.2146361,76 C54.3129988,75.9661478 54.4121881,75.9339714 54.5112121,75.9016274 C55.0820463,68.9250477 56.1542824,61.3371166 58.0869854,55.3786182 C58.4301803,54.3206517 59.6116899,53.5237832 60.7078967,53.5981911 C84.5250599,55.2128763 92.4431744,35.3379198 93.504169,28.2669896 C95.3985188,15.6521672 91.4130938,5.62637147 89.1443045,1.16340505 C88.488994,-0.125829327 86.7855835,-0.398490751 85.7700507,0.622774594 C83.5665609,2.83842099 81.3024004,5.00948967 78.9117736,7.00057164 C71.7022012,13.0053236 62.0846438,15.4892742 54.6606572,21.3443724 C47.1898864,27.236507 41.9702162,37.9247678 46.9753069,47.099565 C48.2156688,49.3730283 50.6420038,51.9176448 50.6433263,51.9189855 C52.6515785,46.601166 57.5779791,42.5774409 58.8322275,41.4616574 C64.2539132,36.6382148 69.8402532,31.949846 74.2627723,26.1182098 C77.382275,22.0048265 80.6723832,17.1508833 82.0193736,12.0497517 C80.587907,18.6283161 77.4143462,25.0848783 73.8319602,30.6937936 C68.4416844,39.1318853 59.678808,45.1074775 54.2539812,53.5604844 Z" id="Path" fill="#FE6B46"></path>
                        <path d="M87.3217055,93.0122095 C87.3245071,92.9320414 87.3264847,92.8518732 87.3264847,92.7711867 C87.3264847,88.2263081 82.7556288,84.5422006 77.1172072,84.5422006 C76.7658564,84.5422006 76.4187904,84.556541 76.0765036,84.584358 C73.8942396,80.1421084 68.5171887,77 62.2294603,77 C59.5176982,77 56.9755139,77.5846747 54.7855044,78.6057822 C54.7741333,78.6004262 54.7624326,78.5955884 54.7508967,78.5902324 C52.8225875,77.696461 50.6225253,77.1411582 48.2752979,77.0240159 C47.9664652,77.0086388 47.6553253,77 47.3415486,77 C43.082327,77 39.2411997,78.4419904 36.52746,80.7530452 C34.0843197,79.1381058 30.9592426,78.1686584 27.5530189,78.1686584 C20.3333541,78.1686584 14.3757174,82.5231376 13.5011309,88.1513232 C10.2690994,88.5341953 7.78772586,90.7778674 7.78772586,93.4894175 C7.78772586,93.6943301 7.80321694,93.8964782 7.83090311,94.0955165 C3.9467633,95.7920062 1.16595058,98.0455265 0,101 L10.9853144,101 L87.0146856,101 L98,101 C96.5662516,97.3663432 92.6900221,94.7928413 87.3217055,93.0122095 Z" id="Path" fill="#4E4E54"></path>
                    </g>
                </g>
                <g id="Group-4" transform="translate(364.000000, 732.000000)" fill-rule="nonzero">
                    <g id="applause">
                        <path d="M97.9169979,64 L71,79.3192493 L72.5642691,81.99277 C74.5359524,85.3549622 76.1530345,85.8936016 77.3463556,85.9895237 C78.9772697,86.0977434 81.1036195,85.3746385 84.4044285,83.4894005 L94.8840259,77.5274739 C98.184835,75.6446955 99.893711,74.2181619 100.601656,72.7424374 C101.119726,71.6811456 101.454208,70.0332533 99.481267,66.6661421 L97.9169979,64 Z" id="Path" fill="#FE6B46"></path>
                        <path d="M11.7781267,32.392675 C10.7157023,33.5938753 10.2583758,35.3325225 10.5883133,36.9242418 C10.9016903,38.4218757 11.8825856,39.5625004 12.5195307,39.736494 L34.3030515,45.6909419 C35.0470033,45.8920012 35.4903171,46.6730391 35.2852208,47.4373221 C35.1259845,48.0688545 34.5540078,48.4890168 33.9361711,48.4890168 C33.8164255,48.4890168 33.6966798,48.4761284 33.578208,48.4361743 L5.17428035,40.6747707 C4.53223974,40.5007771 3.11949561,40.9918257 2.12331355,42.1324504 C1.0608892,43.3336507 0.603562655,45.0735868 0.928404632,46.6717503 C1.23923382,48.1616511 2.50548058,49.3628514 3.14242563,49.5394227 L5.6698236,50.2573074 C5.67746694,50.2573074 5.69020584,50.2573074 5.70421863,50.2624628 L5.7093142,50.2624628 L30.5374323,57.0443469 C31.2813842,57.2531392 31.7246979,58.0315995 31.5246972,58.7894383 C31.3603653,59.426126 30.796032,59.8514437 30.1781953,59.8514437 C30.0584497,59.8514437 29.9323345,59.8359776 29.8125889,59.7960235 L4.97045793,53.0076952 C3.70930673,52.6725964 2.29528871,53.163645 1.2927372,54.2965367 C0.232860635,55.4977371 -0.224465913,57.2363843 0.105471624,58.8281036 C0.41630081,60.3180044 2.03668902,61.6429334 2.67363408,61.8156382 L28.2380607,68.7960039 C28.9794647,68.9970632 29.4253263,69.7781012 29.2253255,70.5423842 C29.0584459,71.1790719 28.4966604,71.5940789 27.8788237,71.5940789 C27.759078,71.5940789 27.6329629,71.5889235 27.5132172,71.5489694 L11.240545,67.103755 C10.7679318,67.3048143 10.3169747,67.607692 9.93225989,68.0446093 C9.03161959,69.0898598 8.63798755,70.592649 8.91187392,71.9639764 C9.15518693,73.2205969 9.95136824,74.1769173 10.4698415,74.3277117 L50.1349577,85.166869 C54.9961223,86.4956646 56.9146008,86.2417628 61.433089,84.3561877 C63.7426518,83.3496024 66.1311958,82.3223957 70,83.3083595 C69.9452227,83.2207183 69.8929932,83.1472543 69.8407637,83.05188 L67.3974425,78.7368386 C65.8318316,76.0354268 64.1133538,75.3330081 61.9388234,74.439841 C59.0649273,73.2644175 55.4942134,71.7938493 51.812671,65.3096876 L35.5361771,36.5414559 C35.4686609,36.5337228 35.3973231,36.5543443 35.3298069,36.5337228 L15.472408,31.1038335 C15.1539354,31.0161923 14.822724,30.9826824 14.1717662,31.0084592 C13.5144389,31.0432579 12.5348174,31.5343066 11.7781267,32.384942 L11.7781267,32.392675 Z" id="Path" fill="#4E4E54"></path>
                        <path d="M51.2859991,0.00660245848 C49.7210094,0.0865153953 48.2189213,0.970631538 47.3622026,2.31139303 C46.5495151,3.57351005 46.4501307,5.06648666 46.7797346,5.64109873 L64.3053547,36.5014454 C64.6865379,37.1699235 64.4550603,38.027402 63.8021426,38.416819 C63.5782132,38.5436649 63.3429615,38.602014 63.114,38.602014 C62.6346904,38.602014 62.1704773,38.3521275 61.9150971,37.900556 L45.8362119,9.5986918 C45.1870682,8.45580995 43.8824908,7.78225806 42.3892089,7.88119788 C40.8091228,7.96745312 39.3108087,8.84522696 38.4578642,10.1809146 C37.6451766,11.4493739 37.5457922,12.9410821 37.8753962,13.5093519 L54.6474561,43.0492324 C55.0286393,43.7227843 54.7996777,44.5739205 54.144244,44.9646059 C53.9203146,45.0965257 53.6850629,45.1485325 53.4561014,45.1485325 C52.9767918,45.1485325 52.5125787,44.8986461 52.2571985,44.4496115 L40.3260392,23.7572347 C40.0895295,23.6582948 39.571221,23.5517443 38.6088278,23.6113618 C37.6527248,23.669711 36.3481474,24.4307866 35.5958453,25.5800107 C34.9077027,26.6379058 34.8095763,27.8670428 35.3329169,28.7904812 L55.1468941,63.6870654 C58.3045502,69.2365749 61.0910873,70.3731145 63.7883042,71.4766741 C65.8866988,72.3366895 68.0492528,73.241101 69.9551687,76 L97.2506521,59.9806273 C96.9826916,57.6149507 97.8532486,53.5584178 99.2043731,47.6334443 L99.4257865,46.677026 C100.730364,40.6353543 99.5830403,36.8058756 98.2608504,32.3738788 C97.3374562,29.2864488 96.3788371,26.0962736 96.1108766,21.8482034 C96.1108766,20.9032012 96.1372953,20.1116826 96.1624559,19.3899292 C96.1964227,18.1747452 96.2480019,16.655131 96.0316207,16.3126469 C93.8376159,16.3786068 92.1518553,16.9861988 90.9919514,18.2013829 C89.5565388,19.6816749 88.8646221,22.1196537 88.9275236,25.4227217 L89.8861427,34.6710586 C90.023268,36.0067463 88.0770952,36.8654932 87.3159868,35.5234633 L68.1662497,1.79132471 C67.5108159,0.647174412 66.1609494,-0.0136928906 64.7116985,0.0789046394 C63.1391606,0.158817576 61.6332983,1.04293372 60.7753217,2.37735292 C59.9689242,3.63312764 59.8707979,5.11976196 60.5048451,6.2563015 L74.7168134,31.2690507 C75.0979966,31.9426026 74.8690351,32.802618 74.2136013,33.1844243 C73.9896719,33.3163441 73.7544202,33.3746932 73.5254587,33.3746932 C73.0461492,33.3746932 72.581936,33.1248067 72.3265558,32.6757721 L54.4184946,1.15709506 C54.0964388,0.587556825 52.7868293,-0.0733104783 51.2859991,0.00660245848 L51.2859991,0.00660245848 Z" id="Path" fill="#FE6B46"></path>
                    </g>
                </g>
                <g id="Group-9" transform="translate(821.000000, 736.000000)" fill-rule="nonzero">
                    <path d="M43,86 C19.289505,86 0,66.710495 0,43 C0,19.289505 19.289505,0 43,0 C66.710495,0 86,19.289505 86,43 C86,66.710495 66.710495,86 43,86 Z" id="Path" fill="#FE6B46"></path>
                    <path d="M43,0 L43,86 C66.710495,86 86,66.710495 86,43 C86,19.289505 66.710495,0 43,0 Z" id="Path" fill="#FE6B46"></path>
                    <path d="M43,71.7226562 C27.1623841,71.7226562 14.2773438,58.8376159 14.2773438,43 C14.2773438,27.1623841 27.1623841,14.2773438 43,14.2773438 C58.8376159,14.2773438 71.7226562,27.1623841 71.7226562,43 C71.7226562,58.8376159 58.8376159,71.7226562 43,71.7226562 Z" id="Path" fill="#FFFFFF"></path>
                    <path d="M43,56.6054688 C35.4978333,56.6054688 29.3945312,50.5021667 29.3945312,43 C29.3945312,35.4978333 35.4978333,29.3945312 43,29.3945312 C50.5021667,29.3945312 56.6054688,35.4978333 56.6054688,43 C56.6054688,50.5021667 50.5021667,56.6054688 43,56.6054688 Z" id="Path" fill="#FE6B46"></path>
                    <path d="M43,45.5195313 C42.3550262,45.5195313 41.7100524,45.2734832 41.2186126,44.7813874 C40.2344207,43.7978516 40.2344207,42.2021484 41.2186126,41.2186126 L59.7470093,22.6902161 C60.7305451,21.7060241 62.3262482,21.7060241 63.3097839,22.6902161 C64.2939759,23.6737518 64.2939759,25.2687988 63.3097839,26.2529907 L44.7813874,44.7813874 C44.2899476,45.2734832 43.6449738,45.5195313 43,45.5195313 Z" id="Path" fill="#4E4E54"></path>
                    <path d="M71.3867188,27.8224487 C71.316513,27.8224487 71.2456512,27.8191681 71.1747894,27.8139191 L61.3171234,26.982605 C60.0927887,26.8789369 59.1210631,25.9078675 59.0180511,24.6835327 L58.1860809,14.8252106 C58.1237487,14.0857544 58.3907928,13.3567962 58.9156951,12.8318939 L69.6046753,2.14291373 C70.2982025,1.44938655 71.3309479,1.22105404 72.2521515,1.55830387 C73.1726989,1.89489746 73.8143921,2.7353973 73.8970641,3.71237174 L74.5492554,11.4500885 L82.2876283,12.1029359 C83.2646027,12.1856079 84.1051025,12.8273011 84.4423522,13.7485046 C84.778946,14.6690521 84.5506134,15.7017975 83.8570863,16.3953247 L73.1681061,27.0843049 C72.6937256,27.5586852 72.0520326,27.8224487 71.3867188,27.8224487 Z" id="Path" fill="#4E4E54"></path>
                </g>
                <g id="checkbox" transform="translate(980.000000, 450.000000)" fill-rule="nonzero">
                    <rect id="Rectangle" fill="#FE6B46" x="0" y="0" width="67" height="67" rx="17"></rect>
                    <path d="M23.9333333,79 C21.7610133,79 20,77.2389867 20,75.0666667 C20,72.8943467 21.7610133,71.1333333 23.9333333,71.1333333 L47.5333333,71.1333333 C60.5613226,71.1190261 71.1190261,60.5613226 71.1333333,47.5333333 L71.1333333,23.9333333 C71.1333333,21.7610133 72.8943467,20 75.0666667,20 C77.2389867,20 79,21.7610133 79,23.9333333 C79,28.2255004 79,31.4446256 79,33.5907091 C79,36.6890701 79,41.3366115 79,47.5333333 C78.9800585,64.9036267 64.9036267,78.9800585 47.5333333,79 L23.9333333,79 Z" id="Path" fill="#4E4E54"></path>
                    <path d="M27.4693049,46 C27.3423477,46 27.2134493,45.9922167 27.0845508,45.9809324 C25.9792221,45.8715861 24.9740015,45.2916815 24.3244932,44.3886747 L16.7944164,33.9541726 C15.9397302,32.8300438 15.7604033,31.329841 16.3259597,30.0351848 C16.8915161,28.7405287 18.113024,27.8549995 19.5169111,27.7219124 C20.9207983,27.5888253 22.2863082,28.2291077 23.0840397,29.3945255 L28.0470185,36.2725185 L44.4792419,21.0347834 C46.0539692,19.575168 48.5111553,19.6713334 49.9675206,21.2495748 C51.423886,22.8278163 51.3279348,25.2904859 49.7532076,26.7501014 L30.1062878,44.9665101 C29.3885639,45.6316095 28.4468102,46.0007025 27.4693049,46 L27.4693049,46 Z" id="Path" fill="#FFFFFF"></path>
                    <path d="M32,33.4131518 L32,44.5185696 C30.2553161,46.1502118 29.7052699,47 27.352851,47 C26.2174449,46.8702588 25.186674,46.2658492 24.5084754,45.3321534 L16.7365193,34.4301314 C15.4696202,32.6099547 15.877123,30.0940606 17.6513922,28.7817696 C19.4256614,27.4694786 21.9089281,27.8472919 23.2265032,29.6299875 L28.3543917,36.8302034 L32,33.4131518 Z" id="Path" fill="#FFFFFF"></path>
                </g>
                <g id="Group-8" transform="translate(497.000000, 435.000000)">
                    <polyline id="Fill-4" fill="#F04D24" points="94 164 119.412833 117 145 163.883034"></polyline>
                    <polygon id="Fill-10" fill="#171718" points="204.190403 164 119.949997 31.9172763 34.3473054 164 0 164 108.599255 0 131.094183 0 239 164"></polygon>
                </g>
            </g>
        </g>
    </g>
</svg>