<?xml version="1.0" encoding="UTF-8"?>
<svg width="101px" height="86px" viewBox="0 0 101 86" version="1.1" xmlns="http://www.w3.org/2000/svg" xmlns:xlink="http://www.w3.org/1999/xlink">
    <title>DBF33AED-D652-4749-86C6-CDA4079B7F69</title>
    <g id="Page-1" stroke="none" stroke-width="1" fill="none" fill-rule="evenodd">
        <g id="Carrier" transform="translate(-138.000000, -2473.000000)" fill-rule="nonzero">
            <g id="applause" transform="translate(138.000000, 2473.000000)">
                <path d="M97.9169979,64 L71,79.3192493 L72.5642691,81.99277 C74.5359524,85.3549622 76.1530345,85.8936016 77.3463556,85.9895237 C78.9772697,86.0977434 81.1036195,85.3746385 84.4044285,83.4894005 L94.8840259,77.5274739 C98.184835,75.6446955 99.893711,74.2181619 100.601656,72.7424374 C101.119726,71.6811456 101.454208,70.0332533 99.481267,66.6661421 L97.9169979,64 Z" id="Path" fill="#FE6B46"></path>
                <path d="M11.7781267,32.392675 C10.7157023,33.5938753 10.2583758,35.3325225 10.5883133,36.9242418 C10.9016903,38.4218757 11.8825856,39.5625004 12.5195307,39.736494 L34.3030515,45.6909419 C35.0470033,45.8920012 35.4903171,46.6730391 35.2852208,47.4373221 C35.1259845,48.0688545 34.5540078,48.4890168 33.9361711,48.4890168 C33.8164255,48.4890168 33.6966798,48.4761284 33.578208,48.4361743 L5.17428035,40.6747707 C4.53223974,40.5007771 3.11949561,40.9918257 2.12331355,42.1324504 C1.0608892,43.3336507 0.603562655,45.0735868 0.928404632,46.6717503 C1.23923382,48.1616511 2.50548058,49.3628514 3.14242563,49.5394227 L5.6698236,50.2573074 C5.67746694,50.2573074 5.69020584,50.2573074 5.70421863,50.2624628 L5.7093142,50.2624628 L30.5374323,57.0443469 C31.2813842,57.2531392 31.7246979,58.0315995 31.5246972,58.7894383 C31.3603653,59.426126 30.796032,59.8514437 30.1781953,59.8514437 C30.0584497,59.8514437 29.9323345,59.8359776 29.8125889,59.7960235 L4.97045793,53.0076952 C3.70930673,52.6725964 2.29528871,53.163645 1.2927372,54.2965367 C0.232860635,55.4977371 -0.224465913,57.2363843 0.105471624,58.8281036 C0.41630081,60.3180044 2.03668902,61.6429334 2.67363408,61.8156382 L28.2380607,68.7960039 C28.9794647,68.9970632 29.4253263,69.7781012 29.2253255,70.5423842 C29.0584459,71.1790719 28.4966604,71.5940789 27.8788237,71.5940789 C27.759078,71.5940789 27.6329629,71.5889235 27.5132172,71.5489694 L11.240545,67.103755 C10.7679318,67.3048143 10.3169747,67.607692 9.93225989,68.0446093 C9.03161959,69.0898598 8.63798755,70.592649 8.91187392,71.9639764 C9.15518693,73.2205969 9.95136824,74.1769173 10.4698415,74.3277117 L50.1349577,85.166869 C54.9961223,86.4956646 56.9146008,86.2417628 61.433089,84.3561877 C63.7426518,83.3496024 66.1311958,82.3223957 70,83.3083595 C69.9452227,83.2207183 69.8929932,83.1472543 69.8407637,83.05188 L67.3974425,78.7368386 C65.8318316,76.0354268 64.1133538,75.3330081 61.9388234,74.439841 C59.0649273,73.2644175 55.4942134,71.7938493 51.812671,65.3096876 L35.5361771,36.5414559 C35.4686609,36.5337228 35.3973231,36.5543443 35.3298069,36.5337228 L15.472408,31.1038335 C15.1539354,31.0161923 14.822724,30.9826824 14.1717662,31.0084592 C13.5144389,31.0432579 12.5348174,31.5343066 11.7781267,32.384942 L11.7781267,32.392675 Z" id="Path" fill="#4E4E54"></path>
                <path d="M51.2859991,0.00660245848 C49.7210094,0.0865153953 48.2189213,0.970631538 47.3622026,2.31139303 C46.5495151,3.57351005 46.4501307,5.06648666 46.7797346,5.64109873 L64.3053547,36.5014454 C64.6865379,37.1699235 64.4550603,38.027402 63.8021426,38.416819 C63.5782132,38.5436649 63.3429615,38.602014 63.114,38.602014 C62.6346904,38.602014 62.1704773,38.3521275 61.9150971,37.900556 L45.8362119,9.5986918 C45.1870682,8.45580995 43.8824908,7.78225806 42.3892089,7.88119788 C40.8091228,7.96745312 39.3108087,8.84522696 38.4578642,10.1809146 C37.6451766,11.4493739 37.5457922,12.9410821 37.8753962,13.5093519 L54.6474561,43.0492324 C55.0286393,43.7227843 54.7996777,44.5739205 54.144244,44.9646059 C53.9203146,45.0965257 53.6850629,45.1485325 53.4561014,45.1485325 C52.9767918,45.1485325 52.5125787,44.8986461 52.2571985,44.4496115 L40.3260392,23.7572347 C40.0895295,23.6582948 39.571221,23.5517443 38.6088278,23.6113618 C37.6527248,23.669711 36.3481474,24.4307866 35.5958453,25.5800107 C34.9077027,26.6379058 34.8095763,27.8670428 35.3329169,28.7904812 L55.1468941,63.6870654 C58.3045502,69.2365749 61.0910873,70.3731145 63.7883042,71.4766741 C65.8866988,72.3366895 68.0492528,73.241101 69.9551687,76 L97.2506521,59.9806273 C96.9826916,57.6149507 97.8532486,53.5584178 99.2043731,47.6334443 L99.4257865,46.677026 C100.730364,40.6353543 99.5830403,36.8058756 98.2608504,32.3738788 C97.3374562,29.2864488 96.3788371,26.0962736 96.1108766,21.8482034 C96.1108766,20.9032012 96.1372953,20.1116826 96.1624559,19.3899292 C96.1964227,18.1747452 96.2480019,16.655131 96.0316207,16.3126469 C93.8376159,16.3786068 92.1518553,16.9861988 90.9919514,18.2013829 C89.5565388,19.6816749 88.8646221,22.1196537 88.9275236,25.4227217 L89.8861427,34.6710586 C90.023268,36.0067463 88.0770952,36.8654932 87.3159868,35.5234633 L68.1662497,1.79132471 C67.5108159,0.647174412 66.1609494,-0.0136928906 64.7116985,0.0789046394 C63.1391606,0.158817576 61.6332983,1.04293372 60.7753217,2.37735292 C59.9689242,3.63312764 59.8707979,5.11976196 60.5048451,6.2563015 L74.7168134,31.2690507 C75.0979966,31.9426026 74.8690351,32.802618 74.2136013,33.1844243 C73.9896719,33.3163441 73.7544202,33.3746932 73.5254587,33.3746932 C73.0461492,33.3746932 72.581936,33.1248067 72.3265558,32.6757721 L54.4184946,1.15709506 C54.0964388,0.587556825 52.7868293,-0.0733104783 51.2859991,0.00660245848 L51.2859991,0.00660245848 Z" id="Path" fill="#FE6B46"></path>
            </g>
        </g>
    </g>
</svg>