<?xml version="1.0" encoding="UTF-8"?>
<svg width="70px" height="78px" viewBox="0 0 70 78" version="1.1" xmlns="http://www.w3.org/2000/svg" xmlns:xlink="http://www.w3.org/1999/xlink">
    <title>C870FCB2-0E34-4EF4-A8D9-BFE6C3BFE0A5</title>
    <g id="Page-1" stroke="none" stroke-width="1" fill="none" fill-rule="evenodd">
        <g id="Carrier" transform="translate(-152.000000, -1438.000000)" fill-rule="nonzero">
            <g id="boss" transform="translate(152.000000, 1438.000000)">
                <polygon id="Path" fill="#FE6B46" points="47 55.3332628 47 46 23 46 23 55.3332628 35 66"></polygon>
                <path d="M65.8490447,59.5699726 L49.1913902,55.6604807 C48.9397617,55.6014603 48.7084159,55.5012169 48.4918629,55.3796775 L35.0001525,63.2298448 L22.0345744,55 C21.6989172,55.315181 21.2822814,55.5494372 20.8090673,55.6606328 L4.15141282,59.5701247 C1.71900394,60.14101 0,62.305902 0,64.7982963 L0,75.3145726 C0,76.79784 1.20537679,78 2.6922725,78 L67.3077275,78 C68.7947757,78 70,76.7976879 70,75.3145726 L70,64.7982963 C70,62.3057499 68.2813011,60.1407058 65.8490447,59.5699726 Z" id="Path" fill="#4E4E54"></path>
                <path d="M23,46.0001493 L23,55.7304353 C38.1167615,61.1120702 47,47.6431322 47,47.6431322 L47,46 L23,46 L23,46.0001493 Z" id="Path" fill="#FE6B46"></path>
                <path d="M18,15 L19.1730463,41.018223 C19.2825429,43.4488024 20.4647393,45.7028807 22.3954162,47.1627043 L27.9614387,51.3713627 C29.3595782,52.4283703 31.0599769,53 32.8076512,53 L38.1923488,53 C39.9400231,53 41.6404218,52.428524 43.0385613,51.3713627 L48.6045838,47.1627043 C50.5352607,45.702727 51.7174571,43.4489561 51.8269537,41.018223 L53,15 C53,15 18,15 18,15 Z" id="Path" fill="#FE6B46"></path>
                <polygon id="Path" fill="#FFFFFF" points="39 78 32 78 32.875 66 38.125 66"></polygon>
                <path d="M39,63 L32,63 L32,65.5093271 C32,66.3326788 32.7006978,67 33.5652302,67 L37.4346112,67 C38.2991436,67 38.9998414,66.3326788 38.9998414,65.5093271 L38.9998414,63 L39,63 Z" id="Path" fill="#FFFFFF"></path>
                <path d="M43,5.82848759 L44.2324078,14.6635183 C49.8582937,15.8049112 50.6690766,24.7611064 50.7858388,27.319156 C50.8069871,27.7834181 50.9530889,28.231666 51.2013576,28.6222022 L53.3479067,32 C53.3479067,32 52.6132278,26.4155596 55.9771427,22.6649017 C55.9772916,22.6649017 57.132404,0.494080943 43,5.82848759 Z" id="Path" fill="#4E4E54"></path>
                <path d="M54.9089976,31.5387796 L53.2748468,37.7479219 C53.0811757,38.4839345 52.3852062,39 51.5864156,39 L51.5864156,39 C50.7085822,39 49.9683356,38.3792571 49.8594469,37.5519634 L49.0235947,31.2012263 C48.7999137,29.5013099 50.1951325,28 51.998684,28 L52,28 C53.9508096,28.0001558 55.382106,29.7411955 54.9089976,31.5387796 Z" id="Path" fill="#FE6B46"></path>
                <path d="M19.3742331,3.44803488 L21.3364335,4.7950736 C12.4646006,11.3775757 14.1227621,22.6678414 14.1227621,22.6678414 C16.7760009,25.3341293 16.7760009,32 16.7760009,32 L19.4292397,29.3337121 C19.4292397,29.3337121 18.4053065,21.6314718 23.4090978,18.6684095 C28.0523407,15.918753 32.1151596,17.3352656 36.260939,17.3352656 C47.3715078,17.3352656 50.48088,13.127412 49.9419362,8.00310696 C49.6629959,5.35162004 45.6288827,-0.171555896 35.3489728,0.00409227478 C31.2003377,0.0749254581 23.4093984,1.33723622 19.3742331,3.44803488 Z" id="Path" fill="#4E4E54"></path>
                <path d="M18.5925789,16.2878104 C18.5925789,16.2878104 17.1853445,10.7471812 21.3242251,5 C12.4671557,11.5329181 14.1225579,22.7381377 14.1225579,22.7381377 C16.7713814,25.3843412 16.7713814,32 16.7713814,32 L19.420205,29.3537964 C19.420205,29.3537964 18.3979758,21.7095748 23.3934404,18.7688323 C28.0289567,16.0398881 32.0850147,17.4457306 36.2238953,17.4457306 C38.0278381,17.4457306 39.5998175,17.325067 41,17.1182153 C32.4578665,17.4042103 27.422341,10.9400929 18.5925789,16.2878104 Z" id="Path" fill="#4E4E54"></path>
                <path d="M15.0910024,31.5387796 L16.7251532,37.7479219 C16.9188243,38.4839345 17.6147938,39 18.4135844,39 L18.4135844,39 C19.2914178,39 20.0316644,38.3792571 20.1405531,37.5519634 L20.9764053,31.2012263 C21.2000863,29.5013099 19.8048675,28 18.001316,28 L18,28 C16.0491904,28.0001558 14.617894,29.7411955 15.0910024,31.5387796 Z" id="Path" fill="#FE6B46"></path>
            </g>
        </g>
    </g>
</svg>