<?xml version="1.0" encoding="UTF-8"?>
<svg width="99px" height="72px" viewBox="0 0 99 72" version="1.1" xmlns="http://www.w3.org/2000/svg" xmlns:xlink="http://www.w3.org/1999/xlink">
    <title>72C37B79-18D9-47E9-B271-A5D31B56F94B</title>
    <g id="Page-1" stroke="none" stroke-width="1" fill="none" fill-rule="evenodd">
        <g id="Carrier" transform="translate(-136.000000, -1691.000000)" fill-rule="nonzero">
            <g id="team" transform="translate(136.000000, 1691.000000)">
                <path d="M71,31.6364997 L71,32.7210009 C71,34.0499125 71.2218455,35.3700283 71.6568176,36.6306322 L74.2,44 L79,44 L79,27 L75.8,27 C73.1490918,27.0001871 71,29.0758044 71,31.6364997 Z" id="Path" fill="#4E4E54"></path>
                <path d="M93.4871638,35.128764 L90.6668683,45 L77.3333333,33.3333333 C75.4922903,33.3333333 74,31.8408412 74,30 L74,30 C74,27.2386373 76.2386373,25 79,25 L90.6666665,25 C92.5077095,25 94,26.4924921 94,28.3333333 L94,31.4660531 C94.0002016,32.70465 93.8274399,33.937394 93.4871638,35.128764 Z" id="Path" fill="#4E4E54"></path>
                <rect id="Rectangle" fill="#FE6B46" x="79" y="47" width="9" height="8"></rect>
                <path d="M79,50.7860031 C80.3911964,51.5627215 81.9082708,52 83.5,52 C85.0917292,52 86.6088036,51.5627215 88,50.7860031 L88,47 L79,47 L79,50.7860031 L79,50.7860031 Z" id="Path" fill="#FE6B46"></path>
                <path d="M95.5185001,54.1924536 L87.7994866,52 L82.9999031,55.1664708 L78.1999322,52 L70.4813061,54.1924536 C68.4205775,54.7777885 67,56.6501281 67,58.780562 L67,70.4094455 C67,71.2879293 67.716295,72 68.5999903,72 L97.4000097,72 C98.283705,72 99,71.2879293 99,70.4094455 L99,58.780562 C99,56.6499355 97.5792288,54.7777885 95.5185001,54.1924536 Z" id="Path" fill="#4E4E54"></path>
                <polygon id="Path" fill="#FFFFFF" points="87 72 82 72 83.25 55 85.75 55"></polygon>
                <path d="M83.9998991,49 L83.9998991,49 C78.4770276,49 74,44.8437526 74,39.7170147 L74,37.9043707 C74,37.0837629 74.3511711,36.2966914 74.9762152,35.7162706 L77.9985065,32.9106537 C78.6384855,32.3165562 79.5135877,31.9750109 80.4181559,32.0014278 C85.7458652,32.1574931 90.4616487,33.2169765 93.0395269,35.5542099 C93.6706258,36.1263872 94,36.9267608 94,37.7454951 L94,39.7170147 C94,44.84394 89.5227706,49 83.9998991,49 Z" id="Path" fill="#FE6B46"></path>
                <path d="M79.0115812,38.4278113 C79.0115812,36.6034748 80.629917,35.1533514 82.5531067,35.2694072 C85.9255161,35.4731752 90.9298148,36.0067257 94,37.404758 C93.8998655,36.7375327 93.5970344,36.1076521 93.0838197,35.6330872 C90.4999444,33.2439839 85.7731902,32.1609876 80.4330869,32.0014587 L80.4328846,32.0016503 L80.4328846,32.0014587 C79.5264143,31.9744557 78.649074,32.3237722 78.0078085,32.930863 L74.9786885,35.7985529 C74.351988,36.3916633 74,37.1962022 74,38.0352131 L74,39.8880848 C74,44.2154737 77.0629027,47.8589758 81.2460983,49 C79.8537227,47.3736862 79.0117835,45.3091946 79.0117835,43.0510851 L79.0115812,38.4278113 L79.0115812,38.4278113 Z" id="Path" fill="#FE6B46"></path>
                <path d="M94,64.024202 C94,62.8338466 94.3950714,61.6924024 95.0983289,60.8507663 L98.3159663,57 C98.7460039,57.7356618 99,58.6213181 99,59.5667548 L99,70.5040397 C99,71.3302779 98.4403911,72 97.75,72 L94,72 L94,64.024202 L94,64.024202 Z" id="Path" fill="#4E4E54"></path>
                <path d="M85.75,60 L83.25,60 C82.5597602,60 82,59.4402398 82,58.75 L82,55 L87,55 L87,58.75 C87,59.4402398 86.4405425,60 85.75,60 Z" id="Path" fill="#FFFFFF"></path>
                <g id="Group" transform="translate(76.000000, 49.000000)" fill="#FFFFFF">
                    <path d="M5.98591304,5.202 L3.55165217,7.57777778 C3.13234783,7.98711111 2.52608696,7.82311111 2.27269565,7.23155556 L0.0890434783,2.136 L0.968,0.422888889 C1.16295652,0.0428888889 1.57843478,-0.0217777778 1.83913043,0.287111111 L5.98591304,5.202 Z" id="Path"></path>
                    <path d="M5.98591304,5.202 L8.42017391,7.578 C8.83947826,7.98733333 9.44573913,7.82333333 9.69913043,7.23177778 L11.8827826,2.13622222 L11.0038261,0.423111111 C10.8088696,0.0431111111 10.3933913,-0.0215555556 10.1326957,0.287333333 L5.98591304,5.202 Z" id="Path"></path>
                </g>
                <path d="M28.8898541,47.7744896 C27.491182,44.3781695 26.3818767,38.5396885 26.1422572,35.4999294 C25.6864054,29.7153957 20.9298896,25 14.5,25 C8.0701132,25 3.31359736,29.7155774 2.8577456,35.4999294 C2.61812613,38.5395069 1.50882078,44.3781695 0.110148655,47.7744896 C-0.198046775,48.523213 0.157715796,49.3487706 0.962195057,49.6829897 C2.46095637,50.3054728 5.65647722,51.5250093 9.51040657,52 L19.489398,52 C23.3252915,51.5239194 26.5432085,50.3036564 28.0376095,49.6829897 C28.842287,49.3487706 29.1980496,48.523213 28.8898541,47.7744896 Z" id="Path" fill="#4E4E54"></path>
                <path d="M28.0071429,49.6829897 C28.8371511,49.3487706 29.2044982,48.523213 28.8862398,47.7744896 C27.4430319,44.3781695 26.2980379,38.5396885 26.0509581,35.4999294 C25.5807292,29.7153957 20.6718588,25 14.0364977,25 C14.0197258,25 14.0031583,25 13.9863863,25 C8.89486504,25.0185274 7.0955595,31.1850516 11.4785672,33.4858959 C11.7418053,33.6241246 11.9105478,33.6906051 11.9105478,33.6906051 L15.749489,52 L19.1854937,52 C23.1440886,51.5235561 26.4649395,50.3034747 28.0071429,49.6829897 Z" id="Path" fill="#4E4E54"></path>
                <path d="M26.3281644,57.0112013 L21.114427,54.4831412 C20.0226715,53.9537263 19.3330082,52.8714343 19.3332033,51.6877247 L19.3335935,47 L9.66660163,47 L9.66660163,51.6879139 C9.66660163,52.8716235 8.97713344,53.9535371 7.88537791,54.482952 L2.67164049,57.0112013 C1.03420229,57.8051345 0,59.4281941 0,61.2035693 L0,70.4374882 C0,71.3002944 0.721268795,72 1.61110027,72 L27.3888997,72 C28.2787312,72 29,71.3002944 29,70.4374882 L29,61.2037585 C29,59.4281941 27.9656026,57.8051345 26.3281644,57.0112013 Z" id="Path" fill="#FE6B46"></path>
                <path d="M15.5003569,52 C17.0870177,52 18.6067647,51.7225418 20,51.2286268 C19.9634204,51.0710523 19.920774,50.914386 19.920774,50.7501514 L19.9211309,47 L11.0795829,47 L11.0795829,50.7503027 C11.0795829,50.9154456 11.0369364,51.0728687 11,51.2310487 C12.3941274,51.7223904 13.9131607,52 15.5003569,52 Z" id="Path" fill="#FE6B46"></path>
                <path d="M26.3281644,56.8238164 L22.6139325,55.0001916 C20.8916277,57.6117741 17.9045175,59.343825 14.5000975,59.343825 C11.0956776,59.343825 8.1083723,57.6117741 6.38606748,55 L2.67183558,56.8238164 C1.03439739,57.627675 0,59.2710256 0,61.068596 L0,70.4179542 C0,71.2917385 0.721268795,72 1.61110027,72 L27.3888997,72 C28.2787312,72 29,71.2917385 29,70.4179542 L29,61.0687875 C29,59.2710256 27.9656026,57.627675 26.3281644,56.8238164 Z" id="Path" fill="#4E4E54"></path>
                <path d="M14.9787735,49 L14.9787735,49 C9.87038879,49 5.65260527,45.5282024 5.01486829,41.0342559 C4.92240149,40.3831092 5.26611029,39.7447047 5.90972784,39.4490479 C6.68069,39.0948507 7.80103875,38.4976277 8.87373465,37.6259849 C10.0683002,36.6553589 10.7691011,35.6317326 11.1649239,34.8803101 C11.5057938,34.2332261 12.2893282,33.86721 13.0529903,34.0446779 C18.948965,35.4141913 22.9629566,38.2076956 24.4193086,39.3482181 C24.8102647,39.6544011 25.0355511,40.1059194 24.9954011,40.5742428 C24.5896422,45.28887 20.2601279,49 14.9787735,49 Z" id="Path" fill="#FE6B46"></path>
                <path d="M24.4194561,39.3856136 C22.9632767,38.2371165 18.9489991,35.4240795 13.0529023,34.0449903 C12.2892243,33.8662815 11.5056737,34.2348569 11.1647967,34.8864653 C10.8650845,35.4595981 10.3696875,36.1896823 9.63460177,36.9350153 C9.63439899,36.9368749 9.63379064,36.9383626 9.63358786,36.9402222 C9.40545782,37.1773229 9.16252468,37.4149814 8.87376275,37.6515243 C7.80104461,38.5294477 6.68067265,39.1306606 5.90969451,39.4873344 C5.26606363,39.7850585 4.92255049,40.4281128 5.01481641,41.0838124 C5.58767629,45.1479971 9.05565843,48.3829803 13.4556278,49 C11.4507197,47.7492241 9.95520052,46.0290819 9.95520052,42.9625797 L9.95520052,40.7726991 C10.33562,40.5151427 10.7186757,40.2583301 11.1035564,39.9433116 C12.034327,39.181614 12.8468755,38.3007152 13.4984149,37.3523125 C18.0089006,38.64307 21.066857,40.7929689 22.2261632,41.7071548 C22.5435174,41.9622937 23.3311237,42.6280352 24.2525663,43.4207884 C24.6490056,42.5458403 24.911203,41.6071076 24.9953577,40.6205827 C25.0357114,40.1487989 24.8104203,39.6941234 24.4194561,39.3856136 Z" id="Path" fill="#FE6B46"></path>
                <path d="M0.761988375,57 C0.28048559,57.8802435 0,58.9600117 0,60.1035777 L0,70.2782921 C0,71.2292136 0.559608864,72 1.25,72 L5,72 L5,63.3247436 C5,62.2787507 4.65472875,61.2892586 4.06166747,60.6358519 L0.761988375,57 Z" id="Path" fill="#4E4E54"></path>
                <path d="M73.7406313,53.9985123 L60.2058132,49 L50.5,52.2858564 L40.7941868,49 L27.2593687,53.9987112 C24.7022588,54.9430692 23,57.4110921 23,60.1743387 L23,70.3571713 C23,71.2643278 23.7241945,72 24.6176355,72 L76.3823645,72 C77.2758055,72 78,71.2643278 78,70.3571713 L78,60.1743387 C78,57.4108931 76.2979371,54.9428702 73.7406313,53.9985123 Z" id="Path" fill="#FE6B46"></path>
                <polygon id="Path" fill="#FFFFFF" points="48.1905122 57 47 72 52 72 50.8094878 57"></polygon>
                <path d="M51.0000346,57 L48.0001384,57 C47.4477354,57 47,56.5355682 47,55.9625655 L47,52 L52,52 L52,55.9625655 C52.000173,56.5353887 51.5524376,57 51.0000346,57 Z" id="Path" fill="#FE6B46"></path>
                <path d="M74.3853839,57 C75.3982199,58.0954851 76,59.5544844 76,61.1194631 L76,70.4884686 C76,71.3233069 75.3284694,72 74.5,72 L67,72 L67,66.9466748 C67,65.343075 67.6321143,63.8051861 68.7573868,62.671446 L74.3853839,57 Z" id="Path" fill="#FE6B46"></path>
                <path d="M67,16.2144571 L67,3.12497635 C67,1.39901157 65.5753641,0 63.8182168,0 L44.7273253,0 C37.6983509,0 32,5.59642471 32,12.5000946 L32,16.2144571 C32,17.8938764 32.27568,19.5623217 32.8164445,21.1554617 L33.3460353,22.7158686 C33.5082454,23.1938106 33.5908916,23.6942685 33.5908916,24.1981321 L33.5908916,25 L65.4089158,25 L65.4089158,24.1981321 C65.4089158,23.6942685 65.491562,23.1938106 65.6537721,22.7158686 L66.1833629,21.1554617 C66.72432,19.5621325 67,17.8936872 67,16.2144571 Z" id="Path" fill="#FE6B46"></path>
                <path d="M40,6.3476326 C40,9.85332405 42.8887496,12.6952652 46.4521818,12.6952652 L47.3455402,12.6952652 L47.776737,25 L65.4117647,25 L65.4117647,24.1981261 C65.4117647,23.6942586 65.4942729,23.1937969 65.6562122,22.7158513 L66.1849187,21.1554326 C66.7247802,19.5622805 67,17.8938227 67,16.2143906 L67,3.125 C67,1.39902216 65.5777428,0 63.8235294,0 L46.4521818,0 C42.8887496,0 40,2.84194115 40,6.3476326 Z" id="Path" fill="#FE6B46"></path>
                <rect id="Rectangle" fill="#4E4E54" x="40" y="37" width="20" height="15"></rect>
                <path d="M50.0001009,45 C53.6472345,45 57.0560158,44.0477113 60,42.4103173 L60,37 L40,37 L40.0002018,42.4103173 C42.9443878,44.0477113 46.3529673,45 50.0001009,45 Z" id="Path" fill="#4E4E54"></path>
                <g id="Group" transform="translate(37.000000, 48.000000)" fill="#FE6B46">
                    <path d="M13.5,6.1418 L8.19308955,11.4094 C7.47980597,12.1174 6.30087313,12.0376 5.69115672,11.24 L0.188597015,4.0432 L1.62785821,1.0326 C2.05260448,0.1442 3.16041045,-0.1814 4.00385821,0.3346 L13.5,6.1418 Z" id="Path"></path>
                    <path d="M13.5,6.1418 L18.8069104,11.4094 C19.520194,12.1174 20.6991269,12.0376 21.3088433,11.24 L26.811403,4.0432 L25.3721418,1.0326 C24.9473955,0.1442 23.8395896,-0.1814 22.9961418,0.3346 L13.5,6.1418 Z" id="Path"></path>
                </g>
                <path d="M48.0002906,41 L48.0002906,41 C39.1636181,41 32,34.1275334 32,25.6500105 L32,23.851641 C32,23.0374955 32.3371297,22.2566221 32.9371817,21.6807721 L34.2626439,20.4091808 C34.8626959,19.8335167 35.1998256,19.0526433 35.1998256,18.2383119 L35.1998256,14.5586714 C35.1998256,13.847874 35.6973825,13.2303873 36.4183363,13.0670006 C40.20252,12.2095455 51.978227,10.1784568 59.9920319,15.832865 C60.5124516,16.199974 60.8001744,16.803148 60.8001744,17.4228652 L60.8001744,18.2383119 C60.8001744,19.0524575 61.1373041,19.8333308 61.7373561,20.4091808 L63.0628183,21.6807721 C63.6628703,22.2564362 64,23.0373096 64,23.851641 L64,25.6500105 C64.0005813,34.1275334 56.8369632,41 48.0002906,41 Z" id="Path" fill="#4E4E54"></path>
                <path d="M63.1864451,15.8469294 C57.5110731,11.8527931 49.9723297,11.6799224 44.6668616,12.2267242 C42.4289039,12.4572808 40.5797744,12.8136634 39.4493824,13.0690491 C38.7234264,13.2331457 38.2224173,13.8533149 38.2224173,14.5672003 L38.2224173,18.2626397 C38.2224173,19.0805089 37.8829485,19.8647747 37.278538,20.4431263 L35.9438793,21.7202418 C35.3394688,22.2985935 35,23.0828593 35,23.9007285 L35,25.706724 C35,33.5893325 41.1865261,40.0787071 49.164433,41 C46.3844957,38.2297739 44.6666665,34.4757152 44.6666665,30.3316705 L44.6666665,19.0631471 C44.6666665,17.5007762 45.8807552,16.1950978 47.5006457,16.0007582 C51.3670782,15.5368448 58.4487094,15.2579366 64,18.2630131 L64,17.4438371 C64.0003898,16.8214277 63.7100855,16.2154465 63.1864451,15.8469294 Z" id="Path" fill="#4E4E54"></path>
                <path d="M24.6146161,57 C23.6017801,58.0954851 23,59.5544844 23,61.1194631 L23,70.4884686 C23,71.3233069 23.6715306,72 24.5,72 L32,72 L32,66.9466748 C32,65.343075 31.3678857,63.8051861 30.2426132,62.671446 L24.6146161,57 Z" id="Path" fill="#FE6B46"></path>
            </g>
        </g>
    </g>
</svg>