<?xml version="1.0" encoding="UTF-8"?>
<svg width="91px" height="43px" viewBox="0 0 91 43" version="1.1" xmlns="http://www.w3.org/2000/svg" xmlns:xlink="http://www.w3.org/1999/xlink">
    <title>Fill 4</title>
    <g id="Page-1" stroke="none" stroke-width="1" fill="none" fill-rule="evenodd" opacity="0.703078497">
        <g id="Homepage" transform="translate(-524.000000, -517.000000)" fill="#FFFFFE">
            <path d="M606.754521,534 L604.47239,540.779223 L604.424162,540.779223 L603.777912,534 L598.701953,534 L595,545 L599.246443,545 L601.532433,538.205554 L601.580661,538.205554 L602.319026,545 L607.298047,545 L611,534 L606.754521,534 Z M581.643056,541.739113 C583.032806,537.869801 575.040754,538.892307 575.793122,536.802859 C575.963619,536.32774 576.580184,535.868247 577.582846,535.868247 C578.486877,535.868247 578.726267,536.386825 578.502737,537.008923 L578.41055,537.262352 L582.775573,537.262352 C583.590391,534.994185 582.216997,534 578.154804,534 C574.217015,534 571.865741,535.171439 571.098008,537.305811 C569.749396,541.057442 577.445556,540.019798 576.693188,542.10827 C576.486014,542.686909 575.774783,543.13273 574.82218,543.13273 C573.918149,543.13273 573.40864,542.806543 573.73427,541.90123 L573.82497,541.650242 L569.311258,541.650242 L569.177437,542.020376 C568.388888,544.213832 570.262374,545 574.125323,545 C578.237079,545 580.831708,543.991654 581.643056,541.739113 Z M565.169408,539.499294 C564.083017,542.256571 563.630965,543 562.120285,543 C560.609604,543 560.742653,542.256571 561.830092,539.499294 C562.91753,536.742959 563.369582,536 564.880263,536 C566.390943,536 566.256847,536.742959 565.169408,539.499294 Z M564.983337,534 C560.203375,534 558.011544,535.542549 556.584467,539.499756 C555.157391,543.458916 556.235903,545 561.015864,545 C565.796323,545 567.987657,543.458916 569.414733,539.499756 C570.843302,535.542549 569.764293,534 564.983337,534 Z M538.305634,539.498966 C537.237586,542.528508 536.837839,543 534.962581,543 L534,543 L536.467418,536 L537.431028,536 C539.304743,536 539.373168,536.470458 538.305634,539.498966 Z M538.568674,534 L531.802544,534 L528,545 L534.766626,545 C540.153975,545 541.334161,542.380662 542.330607,539.499493 C543.326559,536.619338 543.955529,534 538.568674,534 Z M587,541 L589.948502,536 L590,536 L589.657691,541 L587,541 Z M610.819821,557 L582,553.817961 L583.002309,544.740193 L585.161092,544.740193 L586.289179,542.881964 L589.953873,542.881964 L589.766919,544.740193 L594.670307,544.740193 L594.117764,534.131112 L588.324142,534.131112 L583.468227,540.517213 L585.181158,525 L614,528.180082 L610.819821,557 Z M556.097807,559 L555.502067,550.79255 C555.502067,550.79206 555.502067,550.791571 555.502067,550.791571 L554.89899,542.487764 C555.600379,541.67191 556.154544,540.624702 556.622136,539.304075 C557.796497,535.990281 557.237441,534.371779 554.277816,533.928147 L554,530.097351 L562.208788,529.501601 L562.209277,529.501601 L582.901215,528 L583.396687,534.814923 L582.657636,541.509033 L580.303045,544.606147 L582.316235,544.606147 L581.244099,554.320579 L584.841527,554.717746 L585,556.90216 L556.097807,559 Z M551.169825,539.499294 C550.083326,542.256571 549.631229,543 548.120397,543 C546.609565,543 546.742627,542.256571 547.830175,539.499294 C548.916674,536.742959 549.368771,536 550.879603,536 C552.390435,536 552.257373,536.742959 551.169825,539.499294 Z M552.934527,555 L525,545.935022 L534.066465,518 L562,527.066465 L561.474056,528.689407 L552.671802,529.328372 L552.996986,533.807077 C552.596455,533.775847 552.170643,533.755523 551.699227,533.755523 C546.933013,533.755523 544.748932,535.321459 543.325264,539.338661 C541.902587,543.357846 542.977774,544.922295 547.743988,544.922295 C550.440629,544.922295 552.309441,544.420144 553.683043,543.257218 L554.242695,550.969909 L552.934527,555 Z M584.357957,523.829275 L583.601791,530.680354 L583.335697,527.018681 L562.178921,528.554413 L562.839947,526.516186 L533.517477,517 L524,546.324602 L553.322966,555.841779 L554.299638,552.831764 L554.819935,560 L585.567524,557.76801 L585.36337,554.956714 L611.618563,557.855228 L611.658205,557.490994 L615,527.211949 L584.357957,523.829275 L584.357957,523.829275 Z" id="Fill-4"></path>
        </g>
    </g>
</svg>