<?xml version="1.0" encoding="UTF-8"?>
<svg width="179px" height="35px" viewBox="0 0 179 35" version="1.1" xmlns="http://www.w3.org/2000/svg" xmlns:xlink="http://www.w3.org/1999/xlink">
    <title>kramer-electronics-vector-logo</title>
    <g id="Page-1" stroke="none" stroke-width="1" fill="none" fill-rule="evenodd" opacity="0.703078497">
        <g id="Homepage" transform="translate(-894.000000, -521.000000)">
            <g id="kramer-electronics-vector-logo" transform="translate(895.000000, 522.000000)">
                <polygon id="Path" stroke="#FFFFFF" stroke-width="2" stroke-linejoin="round" points="4.02216066 0 28.9473684 0 29.7396122 0.0603842635 30.4709141 0.271729186 31.1412742 0.664226898 31.7506925 1.11710887 32.2686981 1.72095151 32.6648199 2.38517841 32.9085873 3.1399817 33 3.95516926 33 28.9844465 32.9085873 29.799634 32.6952909 30.5242452 32.299169 31.1884721 31.7811634 31.7923147 31.232687 32.305581 30.501385 32.6678866 29.7700831 32.8792315 28.9778393 33 4.02216066 33 3.2299169 32.9396157 2.43767313 32.6678866 1.76731302 32.3357731 1.15789474 31.8225069 0.670360111 31.2488564 0.304709141 30.5544373 0.0609418283 29.8298262 0 29.0146386 0 4.01555352 0.0609418283 3.20036597 0.274238227 2.44556267 0.670360111 1.75114364 1.12742382 1.17749314 1.73684211 0.664226898 2.40720222 0.332113449 3.13850416 0.0603842635 3.96121884 0"></polygon>
                <polygon id="Path" fill="#FFFFFF" points="25.8267717 3 22.519685 3 16 7.63157895 17.7007874 25 28 25 21.0708661 7.63157895"></polygon>
                <rect id="Rectangle" fill="#FFFFFF" x="4" y="3" width="10" height="22"></rect>
                <polygon id="Path" fill="#FFFFFF" points="27 28 25 28 25 31 25.9433962 31 25.9433962 30.2087912 27 30.2087912 27 29.5164835 25.9433962 29.5164835 25.9433962 28.6923077 27 28.6923077"></polygon>
                <polygon id="Path" fill="#FFFFFF" points="27.3333333 28 26 28 26 28.6923077 26.8148148 28.6923077 26.8518519 28.7912088 26.962963 28.7912088 26.962963 28.8241758 27 28.8571429 27 29.3516484 26.9259259 29.4175824 26.7407407 29.5164835 26 29.5164835 26 30.2087912 26.8148148 30.2087912 26.9259259 30.2747253 26.962963 30.3406593 26.962963 31 27.962963 31 27.962963 30.2087912 27.8888889 30.0769231 27.7777778 30.010989 27.7037037 29.9450549 27.5185185 29.8461538 27.3333333 29.8461538 27.4814815 29.8131868 27.6296296 29.7142857 27.7037037 29.7142857 27.8888889 29.5494505 27.962963 29.4175824 27.962963 29.3516484 28 29.2857143 28 28.5934066 27.8888889 28.2967033 27.5555556 28.032967"></polygon>
                <polygon id="Path" fill="#FFFFFF" points="14 28 13.2272727 28 11 31 12.3181818 31 12.7272727 30.5054945 14 30.5054945 14 29.8461538 13.1818182 29.8461538 14 28.5604396"></polygon>
                <polygon id="Path" fill="#FFFFFF" points="14.516129 28 14 28 14 28.5934066 14.5483871 29.8461538 14 29.8461538 14 30.5054945 14.9032258 30.5054945 15.0967742 31 16 31"></polygon>
                <polygon id="Path" fill="#FFFFFF" points="18.5294118 28 17 28 17 31 17.9411765 31 17.9411765 28.6593407 19 28.6593407"></polygon>
                <polygon id="Path" fill="#FFFFFF" points="18.109589 28 17 28 18.4794521 31 19.3424658 31 20 29.7323944 18.9726027 29.7323944"></polygon>
                <rect id="Rectangle" fill="#FFFFFF" x="20" y="28" width="1" height="3"></rect>
                <polygon id="Path" fill="#FFFFFF" points="21 28 19.2857143 28 18 30 19.0714286 30 19.9714286 28.6557377 21 28.6557377"></polygon>
                <polygon id="Path" fill="#FFFFFF" points="25 28 21 28 21 31 25 31 25 30.2747253 22.0752688 30.2747253 22.0752688 29.7142857 24.827957 29.7142857 24.827957 29.1208791 22.0752688 29.1208791 22.0752688 28.6923077 25 28.6923077"></polygon>
                <polygon id="Path" fill="#FFFFFF" points="11 28 9 28 9 31 9.96153846 31 9.96153846 30.2087912 11 30.2087912 11 29.5164835 9.96153846 29.5164835 9.96153846 28.6923077 11 28.6923077"></polygon>
                <polygon id="Path" fill="#FFFFFF" points="11.3090909 28 10 28 10 28.6923077 10.8 28.6923077 10.8727273 28.7912088 10.9090909 28.7912088 10.9818182 28.8241758 11.0181818 28.8571429 11.0181818 29.3516484 10.9090909 29.4175824 10.7636364 29.5164835 10 29.5164835 10 30.2087912 10.7636364 30.2087912 10.9090909 30.2747253 10.9818182 30.3406593 10.9818182 31 11.8909091 31 11.8909091 30.2087912 11.8545455 30.0769231 11.7818182 30.010989 11.6727273 29.9450549 11.5272727 29.8461538 11.2727273 29.8461538 11.4909091 29.8131868 11.6 29.7142857 11.6727273 29.7142857 11.7454545 29.6483516 11.7818182 29.5824176 11.8181818 29.5494505 11.8909091 29.3516484 11.8909091 29.2857143 12 29.1538462 12 28.5934066 11.8545455 28.2967033 11.5636364 28.032967"></polygon>
                <polygon id="Path" fill="#FFFFFF" points="5.04 28 4 28 4 31 5.04 31 5.04 29.8461538 7 29.8461538 6.48 29.4175824 6.92 29.0879121 5.04 29.0879121"></polygon>
                <polygon id="Path" fill="#FFFFFF" points="6.43835616 29 5 29 6.47945205 30 8 30"></polygon>
                <polygon id="Path" fill="#FFFFFF" points="8 28 6.43283582 28 5 29 6.47761194 29"></polygon>
                <g id="Group" transform="translate(42.000000, 9.000000)" fill="#FFFFFF">
                    <polygon id="Path" points="0.0609865471 0.181132075 4.57399103 0.181132075 4.57399103 6.03773585 6.83049327 6.03773585 12.929148 0.181132075 19.1192825 0.181132075 10.6421525 7.8490566 20.0035874 15.6981132 13.4780269 15.6981132 6.83049327 9.78113208 4.57399103 9.78113208 4.57399103 15.6981132 0.0609865471 15.6981132"></polygon>
                    <polygon id="Path" fill-rule="nonzero" points="0.0609865471 0.181132075 4.57399103 0.181132075 4.57399103 6.03773585 6.83049327 6.03773585 12.929148 0.181132075 19.1192825 0.181132075 10.6421525 7.8490566 20.0035874 15.6981132 13.4780269 15.6981132 6.83049327 9.78113208 4.57399103 9.78113208 4.57399103 15.6981132 0.0609865471 15.6981132"></polygon>
                    <path d="M22.5345291,0.181132075 L36.1955157,0.181132075 L37.4457399,0.241509434 L38.5130045,0.452830189 L39.3363229,0.78490566 L40.0071749,1.29811321 L40.4340807,1.78113208 L40.7695067,2.38490566 L40.9829596,3.16981132 L41.135426,4.0754717 L41.1964126,5.10188679 L41.135426,6.09811321 L41.0744395,6.94339623 L40.8609865,7.54716981 L40.6170404,8.1509434 L40.2511211,8.66415094 L39.8547085,8.99622642 L39.4278027,9.20754717 L38.8179372,9.4490566 L37.9946188,9.7509434 L38.9399103,9.96226415 L39.7022422,10.2037736 L40.2816143,10.5660377 L40.6170404,10.9584906 L40.8304933,11.4415094 L41.0134529,12.0150943 L41.0439462,12.7698113 L41.0439462,15.7283019 L36.4699552,15.7283019 L36.4699552,14.2490566 L36.4394619,13.2226415 L36.3174888,12.4377358 L36.1040359,12.1056604 L35.7686099,11.8943396 L35.2197309,11.7735849 L34.5183857,11.7433962 L27.0475336,11.7433962 L27.0475336,15.6981132 L22.5650224,15.6981132 L22.5650224,0.181132075 L22.5345291,0.181132075 Z M27.0170404,3.95471698 L27.0170404,7.96981132 L34.3659193,7.96981132 L35.0672646,7.93962264 L35.5856502,7.8490566 L36.0125561,7.72830189 L36.2565022,7.51698113 L36.4699552,7.18490566 L36.5919283,6.61132075 L36.6224215,5.76603774 L36.5919283,5.13207547 L36.5004484,4.61886792 L36.3784753,4.46792453 L36.2565022,4.34716981 L36.0735426,4.22641509 L35.8600897,4.13584906 L35.4636771,4.01509434 L35.1282511,3.98490566 L34.4573991,3.95471698 L27.0170404,3.95471698 Z" id="Shape"></path>
                    <path d="M22.5345291,0.181132075 L36.1955157,0.181132075 L37.4457399,0.241509434 L38.5130045,0.452830189 L39.3363229,0.78490566 L40.0071749,1.29811321 L40.4340807,1.78113208 L40.7695067,2.38490566 L40.9829596,3.16981132 L41.135426,4.0754717 L41.1964126,5.10188679 L41.135426,6.09811321 L41.0744395,6.94339623 L40.8609865,7.54716981 L40.6170404,8.1509434 L40.2511211,8.66415094 L39.8547085,8.99622642 L39.4278027,9.20754717 L38.8179372,9.4490566 L37.9946188,9.7509434 L38.9399103,9.96226415 L39.7022422,10.2037736 L40.2816143,10.5660377 L40.6170404,10.9584906 L40.8304933,11.4415094 L41.0134529,12.0150943 L41.0439462,12.7698113 L41.0439462,15.7283019 L36.4699552,15.7283019 L36.4699552,14.2490566 L36.4394619,13.2226415 L36.3174888,12.4377358 L36.1040359,12.1056604 L35.7686099,11.8943396 L35.2197309,11.7735849 L34.5183857,11.7433962 L27.0475336,11.7433962 L27.0475336,15.6981132 L22.5650224,15.6981132 L22.5650224,0.181132075 L22.5345291,0.181132075 Z M27.0170404,3.95471698 L27.0170404,7.96981132 L34.3659193,7.96981132 L35.0672646,7.93962264 L35.5856502,7.8490566 L36.0125561,7.72830189 L36.2565022,7.51698113 L36.4699552,7.18490566 L36.5919283,6.61132075 L36.6224215,5.76603774 L36.5919283,5.13207547 L36.5004484,4.61886792 L36.3784753,4.46792453 L36.2565022,4.34716981 L36.0735426,4.22641509 L35.8600897,4.13584906 L35.4636771,4.01509434 L35.1282511,3.98490566 L34.4573991,3.95471698 L27.0170404,3.95471698 Z" id="Shape" fill-rule="nonzero"></path>
                    <path d="M51.8690583,0.181132075 L57.9372197,0.181132075 L65.9874439,15.6981132 L61.0475336,15.6981132 L59.7058296,12.890566 L50.1004484,12.890566 L48.6672646,15.6981132 L43.7273543,15.6981132 L51.8690583,0.181132075 Z M54.8878924,3.16981132 L51.6860987,9.66037736 L58.1201794,9.66037736 L54.8878924,3.16981132 Z" id="Shape"></path>
                    <path d="M51.8690583,0.181132075 L57.9372197,0.181132075 L65.9874439,15.6981132 L61.0475336,15.6981132 L59.7058296,12.890566 L50.1004484,12.890566 L48.6672646,15.6981132 L43.7273543,15.6981132 L51.8690583,0.181132075 Z M54.8878924,3.16981132 L51.6860987,9.66037736 L58.1201794,9.66037736 L54.8878924,3.16981132 Z" id="Shape" fill-rule="nonzero"></path>
                    <polygon id="Path" points="68.6098655 0.181132075 75.4403587 0.181132075 81.0511211 10.5358491 86.6923767 0.181132075 93.5838565 0.181132075 93.5838565 15.6981132 89.3452915 15.6981132 89.3452915 3.89433962 82.8197309 15.6981132 79.2215247 15.6981132 72.8179372 3.89433962 72.8179372 15.6981132 68.6098655 15.6981132"></polygon>
                    <polygon id="Path" fill-rule="nonzero" points="68.6098655 0.181132075 75.4403587 0.181132075 81.0511211 10.5358491 86.6923767 0.181132075 93.5838565 0.181132075 93.5838565 15.6981132 89.3452915 15.6981132 89.3452915 3.89433962 82.8197309 15.6981132 79.2215247 15.6981132 72.8179372 3.89433962 72.8179372 15.6981132 68.6098655 15.6981132"></polygon>
                    <polygon id="Path" points="97.426009 0.181132075 113.83139 0.181132075 113.83139 3.74339623 101.90852 3.74339623 101.90852 6.36981132 113.038565 6.36981132 113.038565 9.4490566 101.90852 9.4490566 101.90852 12.1962264 113.83139 12.1962264 113.83139 15.6981132 97.426009 15.6981132"></polygon>
                    <polygon id="Path" fill-rule="nonzero" points="97.426009 0.181132075 113.83139 0.181132075 113.83139 3.74339623 101.90852 3.74339623 101.90852 6.36981132 113.038565 6.36981132 113.038565 9.4490566 101.90852 9.4490566 101.90852 12.1962264 113.83139 12.1962264 113.83139 15.6981132 97.426009 15.6981132"></polygon>
                    <path d="M117.155157,0.181132075 L130.846637,0.181132075 L132.096861,0.241509434 L133.133632,0.452830189 L133.956951,0.78490566 L134.627803,1.29811321 L135.054709,1.78113208 L135.390135,2.38490566 L135.603587,3.16981132 L135.756054,4.0754717 L135.786547,5.10188679 L135.756054,6.09811321 L135.664574,6.94339623 L135.481614,7.60754717 L135.207175,8.21132075 L134.871749,8.7245283 L134.444843,9.05660377 L134.04843,9.26792453 L133.408072,9.50943396 L132.584753,9.81132075 L133.530045,10.0226415 L134.292377,10.2641509 L134.841256,10.6264151 L135.176682,11.0188679 L135.390135,11.5018868 L135.512108,12.0754717 L135.603587,12.8301887 L135.603587,15.7886792 L131.029596,15.7886792 L131.029596,14.309434 L130.999103,13.2830189 L130.87713,12.4981132 L130.663677,12.1660377 L130.328251,11.954717 L129.779372,11.8339623 L129.078027,11.8037736 L121.576682,11.8037736 L121.576682,15.6981132 L117.124664,15.6981132 L117.124664,0.181132075 L117.155157,0.181132075 Z M121.607175,3.95471698 L121.607175,7.96981132 L128.986547,7.96981132 L129.718386,7.93962264 L130.236771,7.8490566 L130.663677,7.72830189 L130.907623,7.51698113 L131.121076,7.18490566 L131.273543,6.61132075 L131.304036,5.76603774 L131.273543,5.10188679 L131.182063,4.58867925 L131.06009,4.43773585 L130.938117,4.31698113 L130.755157,4.19622642 L130.541704,4.10566038 L130.145291,3.98490566 L129.809865,3.95471698 L129.139013,3.9245283 L121.607175,3.9245283 L121.607175,3.95471698 Z" id="Shape"></path>
                    <path d="M117.155157,0.181132075 L130.846637,0.181132075 L132.096861,0.241509434 L133.133632,0.452830189 L133.956951,0.78490566 L134.627803,1.29811321 L135.054709,1.78113208 L135.390135,2.38490566 L135.603587,3.16981132 L135.756054,4.0754717 L135.786547,5.10188679 L135.756054,6.09811321 L135.664574,6.94339623 L135.481614,7.60754717 L135.207175,8.21132075 L134.871749,8.7245283 L134.444843,9.05660377 L134.04843,9.26792453 L133.408072,9.50943396 L132.584753,9.81132075 L133.530045,10.0226415 L134.292377,10.2641509 L134.841256,10.6264151 L135.176682,11.0188679 L135.390135,11.5018868 L135.512108,12.0754717 L135.603587,12.8301887 L135.603587,15.7886792 L131.029596,15.7886792 L131.029596,14.309434 L130.999103,13.2830189 L130.87713,12.4981132 L130.663677,12.1660377 L130.328251,11.954717 L129.779372,11.8339623 L129.078027,11.8037736 L121.576682,11.8037736 L121.576682,15.6981132 L117.124664,15.6981132 L117.124664,0.181132075 L117.155157,0.181132075 Z M121.607175,3.95471698 L121.607175,7.96981132 L128.986547,7.96981132 L129.718386,7.93962264 L130.236771,7.8490566 L130.663677,7.72830189 L130.907623,7.51698113 L131.121076,7.18490566 L131.273543,6.61132075 L131.304036,5.76603774 L131.273543,5.10188679 L131.182063,4.58867925 L131.06009,4.43773585 L130.938117,4.31698113 L130.755157,4.19622642 L130.541704,4.10566038 L130.145291,3.98490566 L129.809865,3.95471698 L129.139013,3.9245283 L121.607175,3.9245283 L121.607175,3.95471698 Z" id="Shape" fill-rule="nonzero"></path>
                </g>
            </g>
        </g>
    </g>
</svg>