<?xml version="1.0" encoding="UTF-8"?>
<svg width="98px" height="101px" viewBox="0 0 98 101" version="1.1" xmlns="http://www.w3.org/2000/svg" xmlns:xlink="http://www.w3.org/1999/xlink">
    <title>E4182B12-A0AA-4052-8995-BEEDE5F0EC0A</title>
    <g id="Page-1" stroke="none" stroke-width="1" fill="none" fill-rule="evenodd">
        <g id="Carrier" transform="translate(-135.000000, -1917.000000)" fill-rule="nonzero">
            <g id="growing-plant" transform="translate(135.000000, 1917.000000)">
                <path d="M54.2539812,53.5604844 C51.1171204,58.4481121 49.2859211,66.8732999 48.2181486,74.8155065 C50.2834346,74.94505 52.3128471,75.3462494 54.2146361,76 C54.3129988,75.9661478 54.4121881,75.9339714 54.5112121,75.9016274 C55.0820463,68.9250477 56.1542824,61.3371166 58.0869854,55.3786182 C58.4301803,54.3206517 59.6116899,53.5237832 60.7078967,53.5981911 C84.5250599,55.2128763 92.4431744,35.3379198 93.504169,28.2669896 C95.3985188,15.6521672 91.4130938,5.62637147 89.1443045,1.16340505 C88.488994,-0.125829327 86.7855835,-0.398490751 85.7700507,0.622774594 C83.5665609,2.83842099 81.3024004,5.00948967 78.9117736,7.00057164 C71.7022012,13.0053236 62.0846438,15.4892742 54.6606572,21.3443724 C47.1898864,27.236507 41.9702162,37.9247678 46.9753069,47.099565 C48.2156688,49.3730283 50.6420038,51.9176448 50.6433263,51.9189855 C52.6515785,46.601166 57.5779791,42.5774409 58.8322275,41.4616574 C64.2539132,36.6382148 69.8402532,31.949846 74.2627723,26.1182098 C77.382275,22.0048265 80.6723832,17.1508833 82.0193736,12.0497517 C80.587907,18.6283161 77.4143462,25.0848783 73.8319602,30.6937936 C68.4416844,39.1318853 59.678808,45.1074775 54.2539812,53.5604844 Z" id="Path" fill="#FE6B46"></path>
                <path d="M87.3217055,93.0122095 C87.3245071,92.9320414 87.3264847,92.8518732 87.3264847,92.7711867 C87.3264847,88.2263081 82.7556288,84.5422006 77.1172072,84.5422006 C76.7658564,84.5422006 76.4187904,84.556541 76.0765036,84.584358 C73.8942396,80.1421084 68.5171887,77 62.2294603,77 C59.5176982,77 56.9755139,77.5846747 54.7855044,78.6057822 C54.7741333,78.6004262 54.7624326,78.5955884 54.7508967,78.5902324 C52.8225875,77.696461 50.6225253,77.1411582 48.2752979,77.0240159 C47.9664652,77.0086388 47.6553253,77 47.3415486,77 C43.082327,77 39.2411997,78.4419904 36.52746,80.7530452 C34.0843197,79.1381058 30.9592426,78.1686584 27.5530189,78.1686584 C20.3333541,78.1686584 14.3757174,82.5231376 13.5011309,88.1513232 C10.2690994,88.5341953 7.78772586,90.7778674 7.78772586,93.4894175 C7.78772586,93.6943301 7.80321694,93.8964782 7.83090311,94.0955165 C3.9467633,95.7920062 1.16595058,98.0455265 0,101 L10.9853144,101 L87.0146856,101 L98,101 C96.5662516,97.3663432 92.6900221,94.7928413 87.3217055,93.0122095 Z" id="Path" fill="#4E4E54"></path>
            </g>
        </g>
    </g>
</svg>