<?xml version="1.0" encoding="UTF-8"?>
<svg width="79px" height="82px" viewBox="0 0 79 82" version="1.1" xmlns="http://www.w3.org/2000/svg" xmlns:xlink="http://www.w3.org/1999/xlink">
    <title>AD553339-9AF3-4413-877D-5C4D7D4AB18B</title>
    <g id="Page-1" stroke="none" stroke-width="1" fill="none" fill-rule="evenodd">
        <g id="Carrier" transform="translate(-148.000000, -1199.000000)" fill-rule="nonzero">
            <g id="Group-5" transform="translate(148.000000, 1199.000000)">
                <g id="light-bulb" fill="#FE6B46">
                    <path d="M48.8290685,71.0746228 L48.8290685,73.4510288 C48.8290685,75.3421125 47.4247675,76.9152263 45.5974843,77.1829904 L45.0053092,79.3418381 C44.6838427,80.5133059 43.6179274,81.3333333 42.3828193,81.3333333 L36.511826,81.3333333 C35.2767179,81.3333333 34.2108027,80.5133059 33.8893362,79.3418381 L33.3140803,77.1829904 C31.4698778,76.8984911 30.0655768,75.3421125 30.0655768,73.4342936 L30.0655768,71.0578875 C30.0655768,69.7860082 31.0976535,68.7651578 32.3835194,68.7651578 L46.5111259,68.7651578 C47.7969919,68.781893 48.8290685,69.8027435 48.8290685,71.0746228 Z M59.7081714,39.0433471 C59.7081714,44.448834 57.5425024,49.3522634 54.0232903,52.9503429 C51.3500426,55.6949246 49.6242751,59.1925926 49.0490193,62.9245542 C48.7952299,64.5311385 47.3909289,65.7193416 45.7328386,65.7193416 L33.1618067,65.7193416 C31.5206357,65.7193416 30.0994154,64.5478738 29.8625454,62.9412894 C29.2703702,59.2093278 27.5276835,55.661454 24.8544358,52.9336077 C21.4029008,49.3857339 19.2541511,44.5659808 19.2033932,39.2609053 C19.0849582,28.1152263 28.0521814,19.0949246 39.320428,19.0112483 C50.5717553,18.927572 59.7081714,27.9311385 59.7081714,39.0433471 Z M41.7398863,26.9102881 C41.7398863,25.6718793 40.724729,24.6510288 39.4557823,24.6510288 C31.4022007,24.6510288 24.8375165,31.127572 24.8375165,39.1102881 C24.8375165,40.3486968 25.8526738,41.3695473 27.1216205,41.3695473 C28.3736479,41.3695473 29.4057246,40.3654321 29.4057246,39.1102881 C29.4057246,33.6211248 33.9231748,29.1695473 39.4557823,29.1695473 C40.724729,29.1695473 41.7398863,28.1654321 41.7398863,26.9102881 Z M39.4557823,12.4342936 C40.7078097,12.4342936 41.7398863,11.4301783 41.7398863,10.1750343 L41.7398863,2.25925926 C41.7398863,1.02085048 40.724729,0 39.4557823,0 C38.1868356,0 37.1716783,1.00411523 37.1716783,2.25925926 L37.1716783,10.1750343 C37.1716783,11.4301783 38.2037549,12.4342936 39.4557823,12.4342936 Z M12.5710318,39.0266118 C12.5710318,37.788203 11.5558745,36.7673525 10.2869278,36.7673525 L2.28410404,36.7673525 C1.03207664,36.7673525 0,37.7714678 0,39.0266118 C0,40.2650206 1.01515735,41.2858711 2.28410404,41.2858711 L10.2869278,41.2858711 C11.5558745,41.2858711 12.5710318,40.2817558 12.5710318,39.0266118 Z M76.6274606,36.7673525 L68.6246368,36.7673525 C67.3726094,36.7673525 66.3405328,37.7714678 66.3405328,39.0266118 C66.3405328,40.2650206 67.3556901,41.2858711 68.6246368,41.2858711 L76.6274606,41.2858711 C77.879488,41.2858711 78.9115646,40.2817558 78.9115646,39.0266118 C78.9115646,37.788203 77.8964073,36.7673525 76.6274606,36.7673525 Z M17.2238364,57.837037 L11.5558745,63.4433471 C10.6591522,64.3303155 10.6591522,65.7528121 11.5558745,66.6397805 C11.995776,67.0748971 12.5879511,67.2924554 13.163207,67.2924554 C13.7384628,67.2924554 14.3306379,67.0748971 14.7705394,66.6397805 L20.4385013,61.0334705 C21.3352236,60.1465021 21.3352236,58.7240055 20.4385013,57.837037 C19.5586983,56.9500686 18.1036394,56.9500686 17.2238364,57.837037 Z M60.0803958,20.8855967 C60.6556516,20.8855967 61.2478267,20.6680384 61.6877283,20.2329218 L67.3556901,14.6266118 C68.2524125,13.7396433 68.2524125,12.3171468 67.3556901,11.4301783 C66.4589678,10.5432099 65.0208282,10.5432099 64.1241059,11.4301783 L58.456144,17.0364883 C57.5594217,17.9234568 57.5594217,19.3459534 58.456144,20.2329218 C58.9129648,20.6680384 59.4882207,20.8855967 60.0803958,20.8855967 Z M17.2238364,20.2161866 C17.6637379,20.6513032 18.255913,20.8688615 18.8311688,20.8688615 C19.4064247,20.8688615 19.9985998,20.6513032 20.4385013,20.2161866 C21.3352236,19.3292181 21.3352236,17.9067215 20.4385013,17.0197531 L14.7705394,11.4134431 C13.8738171,10.5264746 12.4356775,10.5264746 11.5389552,11.4134431 C10.6422329,12.3004115 10.6422329,13.7229081 11.5389552,14.6098765 L17.2238364,20.2161866 Z M61.6877283,57.837037 C60.7910059,56.9500686 59.3528664,56.9500686 58.456144,57.837037 C57.5594217,58.7240055 57.5594217,60.1465021 58.456144,61.0334705 L64.1241059,66.6397805 C64.5640074,67.0748971 65.1561825,67.2924554 65.7314384,67.2924554 C66.3066942,67.2924554 66.8988693,67.0748971 67.3387708,66.6397805 C68.2354932,65.7528121 68.2354932,64.3303155 67.3387708,63.4433471 L61.6877283,57.837037 Z" id="XMLID_49_"></path>
                </g>
                <g id="light-bulb" transform="translate(29.333333, 68.000000)" fill="#4E4E54">
                    <path d="M19.8463408,2.8223594 L19.8463408,5.25720165 C19.8463408,7.19478738 18.4127835,8.80658436 16.5474319,9.08093278 L15.9429198,11.2928669 C15.6147561,12.4931413 14.5266343,13.3333333 13.2657947,13.3333333 L7.27248904,13.3333333 C6.01164951,13.3333333 4.92352773,12.4931413 4.59536402,11.2928669 L4.00812369,9.08093278 C2.12550029,8.78943759 0.691943015,7.19478738 0.691943015,5.24005487 L0.691943015,2.80521262 C0.691943015,1.50205761 1.74552125,0.456104252 3.0581761,0.456104252 L17.4801077,0.456104252 C18.7927625,0.473251029 19.8463408,1.51920439 19.8463408,2.8223594 Z" id="XMLID_49_"></path>
                </g>
            </g>
        </g>
    </g>
</svg>