<?xml version="1.0" encoding="UTF-8"?>
<svg width="86px" height="86px" viewBox="0 0 86 86" version="1.1" xmlns="http://www.w3.org/2000/svg" xmlns:xlink="http://www.w3.org/1999/xlink">
    <title>9C60B14C-5C99-4B3E-A785-965B3D72BB6B</title>
    <g id="Page-1" stroke="none" stroke-width="1" fill="none" fill-rule="evenodd">
        <g id="Carrier" transform="translate(-144.000000, -2769.000000)" fill-rule="nonzero">
            <g id="Group-9" transform="translate(144.000000, 2769.000000)">
                <path d="M43,86 C19.289505,86 0,66.710495 0,43 C0,19.289505 19.289505,0 43,0 C66.710495,0 86,19.289505 86,43 C86,66.710495 66.710495,86 43,86 Z" id="Path" fill="#FE6B46"></path>
                <path d="M43,0 L43,86 C66.710495,86 86,66.710495 86,43 C86,19.289505 66.710495,0 43,0 Z" id="Path" fill="#FE6B46"></path>
                <path d="M43,71.7226562 C27.1623841,71.7226562 14.2773438,58.8376159 14.2773438,43 C14.2773438,27.1623841 27.1623841,14.2773438 43,14.2773438 C58.8376159,14.2773438 71.7226562,27.1623841 71.7226562,43 C71.7226562,58.8376159 58.8376159,71.7226562 43,71.7226562 Z" id="Path" fill="#FFFFFF"></path>
                <path d="M43,56.6054688 C35.4978333,56.6054688 29.3945312,50.5021667 29.3945312,43 C29.3945312,35.4978333 35.4978333,29.3945312 43,29.3945312 C50.5021667,29.3945312 56.6054688,35.4978333 56.6054688,43 C56.6054688,50.5021667 50.5021667,56.6054688 43,56.6054688 Z" id="Path" fill="#FE6B46"></path>
                <path d="M43,45.5195313 C42.3550262,45.5195313 41.7100524,45.2734832 41.2186126,44.7813874 C40.2344207,43.7978516 40.2344207,42.2021484 41.2186126,41.2186126 L59.7470093,22.6902161 C60.7305451,21.7060241 62.3262482,21.7060241 63.3097839,22.6902161 C64.2939759,23.6737518 64.2939759,25.2687988 63.3097839,26.2529907 L44.7813874,44.7813874 C44.2899476,45.2734832 43.6449738,45.5195313 43,45.5195313 Z" id="Path" fill="#4E4E54"></path>
                <path d="M71.3867188,27.8224487 C71.316513,27.8224487 71.2456512,27.8191681 71.1747894,27.8139191 L61.3171234,26.982605 C60.0927887,26.8789369 59.1210631,25.9078675 59.0180511,24.6835327 L58.1860809,14.8252106 C58.1237487,14.0857544 58.3907928,13.3567962 58.9156951,12.8318939 L69.6046753,2.14291373 C70.2982025,1.44938655 71.3309479,1.22105404 72.2521515,1.55830387 C73.1726989,1.89489746 73.8143921,2.7353973 73.8970641,3.71237174 L74.5492554,11.4500885 L82.2876283,12.1029359 C83.2646027,12.1856079 84.1051025,12.8273011 84.4423522,13.7485046 C84.778946,14.6690521 84.5506134,15.7017975 83.8570863,16.3953247 L73.1681061,27.0843049 C72.6937256,27.5586852 72.0520326,27.8224487 71.3867188,27.8224487 Z" id="Path" fill="#4E4E54"></path>
            </g>
        </g>
    </g>
</svg>