<?xml version="1.0" encoding="UTF-8"?>
<svg width="92px" height="95px" viewBox="0 0 92 95" version="1.1" xmlns="http://www.w3.org/2000/svg" xmlns:xlink="http://www.w3.org/1999/xlink">
    <title>Group 4</title>
    <g id="Page-1" stroke="none" stroke-width="1" fill="none" fill-rule="evenodd">
        <g id="mieten-bei-flexcavo" transform="translate(-1088.000000, -416.000000)" fill-rule="nonzero">
            <g id="Group-4" transform="translate(1088.000000, 416.000000)">
                <path d="M77.3323864,59.0518465 C81.2223011,53.1441762 83.4900567,46.0781251 83.4900567,38.4907671 C83.4900567,17.8181818 66.6711647,1 45.9985796,1 C25.3259944,1 8.50781255,17.8181818 8.50781255,38.4907671 C8.50781255,46.0781251 10.7755682,53.1441762 14.6647727,59.0518465 L-3.55271368e-14,80.4389204 L16.7805398,77.3103693 L19.9098011,94.0909091 L33.7393465,73.9211647 C37.5830965,75.2549716 41.7073864,75.9815342 45.9985796,75.9815342 C50.2904829,75.9815342 54.4147727,75.2549716 58.2578125,73.9211647 L72.0880682,94.0909091 L75.2166193,77.3103693 L91.9971591,80.4389204 M22.875,80.0639204 L21.1683238,70.9105113 L12.0156251,72.6178978 L18.1917615,63.6100853 C21.149858,66.881392 24.6761364,69.6285511 28.612216,71.6981535 L22.875,80.0639204 Z M70.8288353,70.9105113 L69.1221591,80.0639204 L63.3856535,71.6981535 C67.3217329,69.6285511 70.8480113,66.881392 73.806108,63.6100853 L79.9822444,72.6171875 L70.8288353,70.9105113 Z" id="Shape" fill="#FFFFFF"></path>
                <circle id="Oval" fill="#FE6B46" cx="46" cy="38" r="38"></circle>
                <path d="M38.2656016,50.9272031 C39.1443203,52.0488984 40.7910156,52.1929453 41.8508594,51.2374453 L60.9752969,33.9938203 C61.9847734,33.0836016 62.0653281,31.5276328 61.1551094,30.5179922 C60.2450547,29.5086797 58.6887578,29.4277969 57.6794453,30.3381797 L40.51375,45.8158359 L34.6099609,38.2792969 C33.7720938,37.2094453 32.2249844,37.0217578 31.1551328,37.8594609 C30.0852813,38.6976563 29.8972656,40.2444375 30.7354609,41.3144531 L38.2656016,50.9272031 Z" id="Path" fill="#333B43"></path>
            </g>
        </g>
    </g>
</svg>