<?xml version="1.0" encoding="UTF-8"?>
<svg width="75px" height="75px" viewBox="0 0 75 75" version="1.1" xmlns="http://www.w3.org/2000/svg" xmlns:xlink="http://www.w3.org/1999/xlink">
    <title>Group 5</title>
    <g id="Page-1" stroke="none" stroke-width="1" fill="none" fill-rule="evenodd">
        <g id="mieten-bei-flexcavo" transform="translate(-683.000000, -424.000000)" fill-rule="nonzero">
            <g id="Group-5" transform="translate(683.000000, 424.000000)">
                <g id="calendar">
                    <path d="M75,16 L75,22.6 L69.1992188,27 L4.35058594,27 L0,22.6 L0,16 C0,9.928 4.921875,5 10.9863281,5 L64.0136719,5 C70.078125,5 75,9.928 75,16 Z" id="Path" fill="#FFFFFF"></path>
                    <path d="M0,22 L0,68.3933518 C0,72.0488837 2.94418945,75 6.59179688,75 L68.4082031,75 C72.0558105,75 75,72.0488837 75,68.3933518 L75,22 L0,22 Z" id="Path" fill="#FE6B46"></path>
                    <g id="Group" transform="translate(9.000000, 0.000000)" fill="#FE6B46">
                        <path d="M4.42708333,17.8125 C1.98598958,17.8125 0,15.8148281 0,13.359375 L0,4.453125 C0,1.99767187 1.98598958,0 4.42708333,0 C6.86817708,0 8.85416667,1.99767187 8.85416667,4.453125 L8.85416667,13.359375 C8.85416667,15.8148281 6.86817708,17.8125 4.42708333,17.8125 Z" id="Path"></path>
                        <path d="M28.9236111,17.8125 C26.4825174,17.8125 24.4965278,15.8148281 24.4965278,13.359375 L24.4965278,4.453125 C24.4965278,1.99767187 26.4825174,0 28.9236111,0 C31.3647049,0 33.3506944,1.99767187 33.3506944,4.453125 L33.3506944,13.359375 C33.3506944,15.8148281 31.3647049,17.8125 28.9236111,17.8125 Z" id="Path"></path>
                    </g>
                    <g id="Group" transform="translate(57.000000, 0.000000)" fill="#FE6B46">
                        <path d="M4.56640625,17.8125 C2.14326172,17.8125 0.171875,15.8148281 0.171875,13.359375 L0.171875,4.453125 C0.171875,1.99767187 2.14326172,0 4.56640625,0 C6.98955078,0 8.9609375,1.99767187 8.9609375,4.453125 L8.9609375,13.359375 C8.9609375,15.8148281 6.98955078,17.8125 4.56640625,17.8125 Z" id="Path"></path>
                    </g>
                </g>
                <path d="M30.2656016,55.9272031 C31.1443203,57.0488984 32.7910156,57.1929453 33.8508594,56.2374453 L52.9752969,38.9938203 C53.9847734,38.0836016 54.0653281,36.5276328 53.1551094,35.5179922 C52.2450547,34.5086797 50.6887578,34.4277969 49.6794453,35.3381797 L32.51375,50.8158359 L26.6099609,43.2792969 C25.7720938,42.2094453 24.2249844,42.0217578 23.1551328,42.8594609 C22.0852813,43.6976563 21.8972656,45.2444375 22.7354609,46.3144531 L30.2656016,55.9272031 Z" id="Path" fill="#333B43"></path>
            </g>
        </g>
    </g>
</svg>