<?xml version="1.0" encoding="UTF-8"?>
<svg width="60px" height="60px" viewBox="0 0 60 60" version="1.1" xmlns="http://www.w3.org/2000/svg" xmlns:xlink="http://www.w3.org/1999/xlink">
    <title>calendar</title>
    <g id="Page-1" stroke="none" stroke-width="1" fill="none" fill-rule="evenodd">
        <g id="Kontakt" transform="translate(-971.000000, -799.000000)" fill-rule="nonzero">
            <g id="calendar" transform="translate(971.000000, 799.000000)">
                <path d="M60,12.421875 L60,17.6953125 L55.359375,21.2109375 L3.48046875,21.2109375 L0,17.6953125 L0,12.421875 C0,7.5703125 3.9375,3.6328125 8.7890625,3.6328125 L51.2109375,3.6328125 C56.0625,3.6328125 60,7.5703125 60,12.421875 Z" id="Path" fill="#FE6B46"></path>
                <path d="M0,17.6953125 L0,54.7265625 C0,57.6444141 2.35535156,60 5.2734375,60 L54.7265625,60 C57.6446484,60 60,57.6444141 60,54.7265625 L60,17.6953125 L0,17.6953125 Z" id="Path" fill="#4E4E54"></path>
                <g id="Group" transform="translate(7.031250, 0.000000)" fill="#4E4E54">
                    <path d="M3.515625,14.0625 C1.57710937,14.0625 0,12.4853906 0,10.546875 L0,3.515625 C0,1.57710938 1.57710937,0 3.515625,0 C5.45414062,0 7.03125,1.57710938 7.03125,3.515625 L7.03125,10.546875 C7.03125,12.4853906 5.45414062,14.0625 3.515625,14.0625 Z" id="Path"></path>
                    <path d="M22.96875,14.0625 C21.0302344,14.0625 19.453125,12.4853906 19.453125,10.546875 L19.453125,3.515625 C19.453125,1.57710937 21.0302344,0 22.96875,0 C24.9072656,0 26.484375,1.57710938 26.484375,3.515625 L26.484375,10.546875 C26.484375,12.4853906 24.9072656,14.0625 22.96875,14.0625 Z" id="Path"></path>
                </g>
                <g id="Group" transform="translate(45.000000, 0.000000)" fill="#4E4E54">
                    <path d="M4.453125,14.0625 C2.51460937,14.0625 0.9375,12.4853906 0.9375,10.546875 L0.9375,3.515625 C0.9375,1.57710937 2.51460938,0 4.453125,0 C6.39164062,0 7.96875,1.57710938 7.96875,3.515625 L7.96875,10.546875 C7.96875,12.4853906 6.39164062,14.0625 4.453125,14.0625 Z" id="Path"></path>
                </g>
                <g id="Group" transform="translate(14.179688, 28.242188)" fill="#FFFFFF">
                    <path d="M7.03125,21.2109375 C3.15339844,21.2109375 0,18.0575391 0,14.1796875 C0,13.2080859 0.786210938,12.421875 1.7578125,12.421875 C2.72941406,12.421875 3.515625,13.2080859 3.515625,14.1796875 C3.515625,16.1177344 5.09320312,17.6953125 7.03125,17.6953125 C8.96929688,17.6953125 10.546875,16.1177344 10.546875,14.1796875 C10.546875,12.2416406 8.96929688,10.6640625 7.03125,10.6640625 L5.2734375,10.6640625 C4.5628125,10.6640625 3.92074219,10.2366797 3.64957031,9.57914063 C3.37664062,8.92171875 3.52769531,8.16632813 4.03066406,7.66335938 L8.06121094,3.6328125 L1.7578125,3.6328125 C0.786210938,3.6328125 0,2.84660156 0,1.875 C0,0.903398438 0.786210938,0.1171875 1.7578125,0.1171875 L12.3046875,0.1171875 C13.8704297,0.1171875 14.6500781,2.01527344 13.5474609,3.11777344 L9.18035156,7.48488281 C12.009375,8.39472656 14.0625,11.0520703 14.0625,14.1796875 C14.0625,18.0575391 10.9091016,21.2109375 7.03125,21.2109375 Z" id="Path"></path>
                    <path d="M33.3984375,21.2109375 L19.3359375,21.2109375 C18.3643359,21.2109375 17.5780957,20.4247266 17.5780957,19.453125 C17.5780957,18.4815234 18.3643359,17.6953125 19.3359375,17.6953125 L24.609375,17.6953125 L24.609375,6.11847656 L20.5787109,10.1491406 C19.8921094,10.8357422 18.7796484,10.8357422 18.0930469,10.1491406 C17.4064453,9.46253906 17.4064453,8.35007813 18.0930469,7.66347656 L25.1242969,0.632226562 C26.2269141,-0.474140625 28.125,0.313007812 28.125,1.875 L28.125,17.6953125 L33.3984375,17.6953125 C34.3700391,17.6953125 35.15625,18.4815234 35.15625,19.453125 C35.15625,20.4247266 34.3700391,21.2109375 33.3984375,21.2109375 Z" id="Path"></path>
                </g>
            </g>
        </g>
    </g>
</svg>