<?xml version="1.0" encoding="UTF-8"?>
<svg width="61px" height="60px" viewBox="0 0 61 60" version="1.1" xmlns="http://www.w3.org/2000/svg" xmlns:xlink="http://www.w3.org/1999/xlink">
    <title>call</title>
    <g id="Page-1" stroke="none" stroke-width="1" fill="none" fill-rule="evenodd">
        <g id="Kontakt" transform="translate(-970.000000, -627.000000)" fill-rule="nonzero">
            <g id="call" transform="translate(970.000000, 627.000000)">
                <g id="Group" transform="translate(2.923977, 12.163743)" fill="#4E4E54">
                    <path d="M14.2260819,13.2416374 L11.7347368,15.7329825 L6.1677193,13.668538 L3.16233918,10.6435088 L0.0506432749,4.01368421 C0.541754386,3.13649123 1.06807018,2.29438596 1.6645614,1.45239766 C2.85766082,-0.196608187 5.52432749,-0.407134503 6.9980117,1.06643275 L14.2260819,8.29450292 C15.6018713,9.67017544 15.5666667,11.9010526 14.2260819,13.2416374 L14.2260819,13.2416374 Z" id="Path"></path>
                    <path d="M44.7874854,40.6451462 C44.717193,41.662807 44.1908772,42.5750877 43.3838596,43.1715789 C42.5417544,43.7679532 41.6997661,44.294386 40.7873684,44.7505263 L34.745731,42.2176608 L32.1688889,39.6408187 L29.1382456,33.1014035 L31.594386,30.6100585 C32.9277193,29.2767251 35.2433918,29.2767251 36.5416374,30.6100585 L43.7697076,37.8381287 C44.5067836,38.5750877 44.8927485,39.5925146 44.7874854,40.6451462 L44.7874854,40.6451462 Z" id="Path"></path>
                </g>
                <g id="Path" transform="translate(33.567251, 0.000000)" fill="#FE6B46">
                    <path d="M1.78163743,21.0661988 C0.811929825,21.0661988 0.027251462,21.8526316 0.027251462,22.8223392 C0.027251462,23.7899415 0.81251462,24.5756725 1.78011696,24.5764912 C1.7805848,24.5764912 1.78116959,24.5767251 1.78163743,24.5767251 C1.88619883,25.4693567 2.6502924,26.2283041 3.54116959,26.2283041 C3.5702924,26.2283041 3.60116959,26.2283041 3.6302924,26.2265497 C4.55883041,26.1734503 5.29040936,25.5052632 5.29040936,24.5749708 C5.29040936,23.6078363 4.89684211,22.7306433 4.26140351,22.0952047 C3.62596491,21.4597661 2.74877193,21.0661988 1.78163743,21.0661988 L1.78163743,21.0661988 Z"></path>
                    <path d="M1.78163743,14.048655 C0.811929825,14.048655 0.027251462,14.8333333 0.027251462,15.8030409 C0.027251462,16.7727485 0.811929825,17.5574269 1.78163743,17.5574269 C3.71672515,17.5574269 5.47111111,18.3442105 6.74175439,19.6148538 C8.01239766,20.8854971 8.79918129,22.639883 8.79918129,24.5749708 C8.79918129,25.5446784 9.58385965,26.3293567 10.5535673,26.3293567 C11.5232749,26.3293567 12.3079532,25.5446784 12.3079532,24.5749708 C12.3079532,21.6727485 11.1274854,19.0411696 9.22152047,17.1350877 C7.31555556,15.2290058 4.68385965,14.048655 1.78163743,14.048655 Z"></path>
                    <path d="M1.78163743,7.03111111 C0.811929825,7.03111111 0.027251462,7.81578947 0.027251462,8.78549708 C0.027251462,9.75520468 0.811929825,10.539883 1.78163743,10.539883 C5.65099415,10.539883 9.15976608,12.1139181 11.7012865,14.6553216 C14.242807,17.1967251 15.8167251,20.7054971 15.8167251,24.5749708 C15.8167251,25.5446784 16.6014035,26.3293567 17.5711111,26.3293567 C18.5408187,26.3293567 19.3254971,25.5446784 19.3254971,24.5749708 C19.3254971,19.7383626 17.3577778,15.3523977 14.1809357,12.1756725 C11.0040936,8.99894737 6.61812865,7.03111111 1.78163743,7.03111111 Z"></path>
                    <path d="M19.1410526,7.21555556 C14.6936842,2.76807018 8.55333333,0.0135672515 1.78163743,0.0135672515 C0.811929825,0.0135672515 0.027251462,0.798245614 0.027251462,1.76795322 C0.027251462,2.73766082 0.811929825,3.52233918 1.78163743,3.52233918 C7.58619883,3.52233918 12.8493567,5.88327485 16.6614035,9.69520468 C20.4734503,13.5071345 22.834269,18.7704094 22.834269,24.5749708 C22.834269,25.5446784 23.6189474,26.3293567 24.588655,26.3293567 C25.5583626,26.3293567 26.3430409,25.5446784 26.3430409,24.5749708 C26.3430409,17.8032749 23.588538,11.662924 19.1410526,7.21555556 L19.1410526,7.21555556 Z"></path>
                </g>
                <path d="M32.0623392,45.2651462 C32.0623392,45.2651462 29.9920468,46.7387135 28.7991813,46.9844444 C26.4484211,47.5808187 23.8516959,46.9844444 22.0973099,45.2651462 L18.3780117,41.545848 L14.6587135,37.8265497 C12.834269,36.0018713 12.2376608,33.4054971 12.8692398,31.0546199 C13.1500585,29.8966082 13.7464327,28.8090058 14.6587135,27.8966082 L2.97461988,16.1773099 C2.3780117,17.300117 1.85181287,18.4581287 1.46561404,19.6512281 C-1.72725146,28.3880702 0.343040936,38.3879532 7.22,45.2652632 L10.9392982,48.9845614 L14.6585965,52.7038596 C19.2901754,57.3354386 25.465731,59.8968421 32.0270175,59.8968421 C34.8691228,59.8968421 37.6409357,59.405614 40.2725146,58.4583626 C41.465614,58.0722807 42.6235088,57.5460819 43.7112281,56.9145029 L32.0623392,45.2651462 Z" id="Path" fill="#FE6B46"></path>
                <path d="M32.0272515,59.8966082 C34.8693567,59.8966082 37.6411696,59.4053801 40.2727485,58.4581287 C41.465848,58.0720468 42.6237427,57.545848 43.711462,56.914269 L32.0623392,45.2651462 C32.0623392,45.2651462 29.9920468,46.7387135 28.7991813,46.9844444 C26.4484211,47.5808187 23.8516959,46.9844444 22.0973099,45.2651462 L18.3780117,41.545848 L10.9394152,48.9844444 L14.6587135,52.7037427 C19.2902924,57.3353216 25.465848,59.8966082 32.0272515,59.8966082 L32.0272515,59.8966082 Z" id="Path" fill="#FE6B46"></path>
            </g>
        </g>
    </g>
</svg>