<?xml version="1.0" encoding="UTF-8"?>
<svg width="60px" height="60px" viewBox="0 0 60 60" version="1.1" xmlns="http://www.w3.org/2000/svg" xmlns:xlink="http://www.w3.org/1999/xlink">
    <title>checkbox</title>
    <g id="Page-1" stroke="none" stroke-width="1" fill="none" fill-rule="evenodd">
        <g id="mieten-bei-flexcavo" transform="translate(-144.000000, -3454.000000)" fill-rule="nonzero">
            <g id="Group-3" transform="translate(144.000000, 3443.000000)">
                <g id="checkbox" transform="translate(0.000000, 11.000000)">
                    <rect id="Rectangle" fill="#FE6B46" x="0" y="0" width="50.8235294" height="50.8235294" rx="17"></rect>
                    <path d="M17.8352941,60 C16.1719424,60 14.8235294,58.651587 14.8235294,56.9882353 C14.8235294,55.3248836 16.1719424,53.9764706 17.8352941,53.9764706 L35.9058824,53.9764706 C45.8814514,53.9655155 53.9655155,45.8814514 53.9764706,35.9058824 L53.9764706,17.8352941 C53.9764706,16.1719424 55.3248836,14.8235294 56.9882353,14.8235294 C58.651587,14.8235294 60,16.1719424 60,17.8352941 C60,21.1218188 60,23.5867123 60,25.2299747 C60,27.6023986 60,31.1610345 60,35.9058824 C59.9847308,49.2063662 49.2063662,59.9847308 35.9058824,60 L17.8352941,60 Z" id="Path" fill="#4E4E54"></path>
                    <path d="M20.7899211,34.5882353 C20.6926228,34.5882353 20.5938367,34.5823186 20.4950507,34.5737404 C19.6479416,34.4906175 18.8775541,34.049785 18.3797797,33.3633364 L12.60883,25.4312262 C11.95381,24.5766849 11.8163763,23.4362592 12.2498111,22.4520862 C12.683246,21.4679132 13.6193932,20.7947508 14.6953134,20.6935805 C15.7712336,20.5924102 16.817742,21.0791407 17.4291128,21.9650691 L21.232673,27.1935887 L33.8261081,15.6101521 C35.0329579,14.5005802 36.9161123,14.5736833 38.0322511,15.7734325 C39.14839,16.9731816 39.0748542,18.8452562 37.8680045,19.9548282 L22.8108693,33.8025959 C22.2608153,34.3081918 21.5390679,34.5887693 20.7899211,34.5882353 L20.7899211,34.5882353 Z" id="Path" fill="#FFFFFF"></path>
                    <path d="M24,25.1986267 L24,33.4503304 C22.691487,34.6626961 22.2789524,35.2941176 20.5146383,35.2941176 C19.6630836,35.1977155 18.8900055,34.7486186 18.3813565,34.0548508 L12.5523895,25.9542772 C11.6022151,24.6018239 11.9078422,22.732429 13.2385441,21.757352 C14.569246,20.7822751 16.4316961,21.0630033 17.4198774,22.3876068 L21.2657938,27.7376125 L24,25.1986267 Z" id="Path" fill="#FFFFFF"></path>
                </g>
            </g>
        </g>
    </g>
</svg>