<?xml version="1.0" encoding="UTF-8"?>
<svg width="116px" height="92px" viewBox="0 0 116 92" version="1.1" xmlns="http://www.w3.org/2000/svg" xmlns:xlink="http://www.w3.org/1999/xlink">
    <title>Group 13</title>
    <defs>
        <polygon id="path-1" points="0.138970732 0.033 30.7281829 0.033 30.7281829 32.7946584 0.138970732 32.7946584"></polygon>
        <polygon id="path-3" points="0 28.9834711 59 28.9834711 59 0.983471074 0 0.983471074"></polygon>
        <polygon id="path-5" points="0 0.171288903 5.95823684 0.171288903 5.95823684 1.62013003 0 1.62013003"></polygon>
        <polygon id="path-7" points="0.161552632 0.171183499 6.11973684 0.171183499 6.11973684 1.62015846 0.161552632 1.62015846"></polygon>
        <polygon id="path-9" points="0 29.7536842 26.1197368 29.7536842 26.1197368 -3.73969861e-15 0 -3.73969861e-15"></polygon>
    </defs>
    <g id="Page-1" stroke="none" stroke-width="1" fill="none" fill-rule="evenodd">
        <g id="funktione" transform="translate(-657.000000, -328.000000)">
            <g id="Group-13" transform="translate(657.000000, 328.000000)">
                <g id="Group-18">
                    <path d="M9,46.5 C9,47.8805753 7.88065664,49 6.50018159,49 C5.11934336,49 4,47.8805753 4,46.5 C4,45.1194247 5.11934336,44 6.50018159,44 C7.88065664,44 9,45.1194247 9,46.5" id="Fill-1" fill="#FE6B46"></path>
                    <path d="M46.5,49 C45.1190615,49 44,47.8805753 44,46.5 C44,45.1194247 45.1190615,44 46.5,44 C47.8809385,44 49,45.1194247 49,46.5 C49,47.8805753 47.8809385,49 46.5,49 Z" id="Fill-3" fill="#FE6B46"></path>
                    <path d="M6.58964163,41.8435825 C4.43208049,41.8435825 2.67696017,43.708344 2.67696017,46.0001985 C2.67696017,48.292053 4.43208049,50.1564175 6.58964163,50.1564175 L46.4099847,50.1564175 C48.5675458,50.1564175 50.3230398,48.292053 50.3230398,46.0001985 C50.3230398,43.708344 48.5675458,41.8435825 46.4099847,41.8435825 L6.58964163,41.8435825 Z M46.4099847,53 L6.58964163,53 C2.95571677,53 0,49.8603102 0,46.0001985 C0,42.1400868 2.95571677,39 6.58964163,39 L46.4099847,39 C50.0439096,39 53,42.1400868 53,46.0001985 C53,49.8603102 50.0439096,53 46.4099847,53 L46.4099847,53 Z" id="Fill-5" fill="#FFFFFF"></path>
                    <path d="M37.8642278,26.2505517 L33.9649255,21.1127143 L25.25627,21.1127143 L25.25627,13.0064505 C25.25627,11.8438296 26.5378088,10.8603378 28.054686,10.8603378 L42.1780124,10.8603378 C43.219687,12.2460109 44.8734678,16.335045 46.49934,21.1127143 L46.5212144,26.2505517 L37.8642278,26.2505517 Z M14.6807467,22.985359 L3.36601923,22.985359 C3.00773147,22.985359 2.7180841,22.6916483 2.7180841,22.3299525 C2.7180841,21.9674928 3.00773147,21.6745459 3.36601923,21.6745459 L14.6807467,21.6745459 C15.0382802,21.6745459 15.3275504,21.9674928 15.3275504,22.3299525 C15.3275504,22.6916483 15.0382802,22.985359 14.6807467,22.985359 L14.6807467,22.985359 Z M14.6807467,25.9224665 L3.36601923,25.9224665 C3.00773147,25.9224665 2.7180841,25.6287557 2.7180841,25.2670599 C2.7180841,24.9049822 3.00773147,24.6112714 3.36601923,24.6112714 L14.6807467,24.6112714 C15.0382802,24.6112714 15.3275504,24.9049822 15.3275504,25.2670599 C15.3275504,25.6287557 15.0382802,25.9224665 14.6807467,25.9224665 L14.6807467,25.9224665 Z M14.6807467,28.85881 L3.36601923,28.85881 C3.00773147,28.85881 2.7180841,28.5658632 2.7180841,28.2041674 C2.7180841,27.8420896 3.00773147,27.5479969 3.36601923,27.5479969 L14.6807467,27.5479969 C15.0382802,27.5479969 15.3275504,27.8420896 15.3275504,28.2041674 C15.3275504,28.5658632 15.0382802,28.85881 14.6807467,28.85881 L14.6807467,28.85881 Z M14.6807467,31.7966814 L3.36601923,31.7966814 C3.00773147,31.7966814 2.7180841,31.5029706 2.7180841,31.1408929 C2.7180841,30.7791971 3.00773147,30.4858683 3.36601923,30.4858683 L14.6807467,30.4858683 C15.0382802,30.4858683 15.3275504,30.7791971 15.3275504,31.1408929 C15.3275504,31.5029706 15.0382802,31.7966814 14.6807467,31.7966814 L14.6807467,31.7966814 Z M48.8274562,19.1892718 C46.923251,13.6866831 44.566849,8 42.9643598,8 L28.054686,8 C24.9488969,8 22.4314539,10.2408335 22.4314539,13.0064505 L22.4314539,21.1127143 L18.0199887,21.1127143 C18.0350745,20.9786539 18.0452574,20.8426838 18.0452574,20.7032762 C18.0452574,19.2179172 17.1559495,18.012901 16.0599661,18.012901 L1.98642278,18.012901 C0.889307939,18.012901 0,19.2179172 0,20.7032762 C0,20.8426838 0.0105600603,20.9786539 0.0264001509,21.1127143 L0,21.1127143 L0,35 L52,35 L52,27.7198693 L48.8274562,19.1892718 Z" id="Fill-7" fill="#FE6B46"></path>
                    <path d="M63.9914351,51.9258668 L60.8557105,38 L58.7562602,38 C58.7562602,38 57.3138785,39.5956405 56.6767098,42.2522487 L53,42.2522487 C53.8217964,43.6213006 54.2979224,45.2340781 54.2979224,46.9603402 C54.2979224,47.2261533 54.2846558,47.4885391 54.2625446,47.7482591 L56.7946358,47.7482591 C57.1546784,49.0540947 57.7748952,50.454374 58.7562602,51.9258668 C64.4447129,52.0926665 63.9914351,51.9258668 63.9914351,51.9258668" id="Fill-9" fill="#FFFFFF"></path>
                    <polygon id="Fill-11" fill="#FE6B46" points="31.8461836 38 19.1538164 38 18 35 33 35"></polygon>
                    <g id="Group-15" transform="translate(50.000000, 0.000000)">
                        <mask id="mask-2" fill="white">
                            <use xlink:href="#path-1"></use>
                        </mask>
                        <g id="Clip-14"></g>
                        <path d="M22.8733122,5.5704 C22.4706902,5.51107416 22.0461415,5.5485236 21.6378488,5.69980449 C19.268239,6.57708539 7.36726341,10.9912989 5.74959268,11.7807034 C5.37040976,11.9664674 4.99727561,12.1948719 4.63964146,12.4432989 C4.60297073,12.1092202 4.54286098,11.7940517 4.46006829,11.5040966 L16.8283122,6.63047865 L16.5795561,6.04278202 L23.1031659,3.47286067 C22.9655561,4.09615281 22.8850317,4.81028764 22.8733122,5.5704 M27.7418244,29.1305461 C28.3686293,29.1305461 28.8763488,29.6285124 28.8763488,30.2429056 C28.8763488,30.8572989 28.3686293,31.355636 27.7418244,31.355636 C27.1153976,31.355636 26.607678,30.8572989 26.607678,30.2429056 C26.607678,29.6285124 27.1153976,29.1305461 27.7418244,29.1305461 M23.9348732,9.96088315 C24.1567878,10.2163551 24.4025195,10.3609618 24.6599707,10.3609618 L26.3256537,28.1182989 C25.6198366,28.5717708 25.1525683,29.3537596 25.1525683,30.2429056 C25.1525683,30.7149169 25.2863976,31.1554112 25.5151171,31.5343551 L25.5022634,31.5443663 C25.9540317,32.2922427 26.7846049,32.7946584 27.7353976,32.7946584 C28.4506659,32.7946584 29.0971293,32.5098944 29.5666659,32.0508607 C29.5659098,32.0497483 29.5651537,32.0478944 29.5643976,32.046782 C30.0377146,31.5862652 30.3314585,30.9485124 30.3314585,30.2429056 C30.3314585,29.4004787 29.9110683,28.6551978 29.2668732,28.1935685 L30.7284098,2.78023146 C30.7284098,2.78023146 29.622239,-1.27024045 27.6752878,0.465040449 C26.9089829,1.14765843 26.2818,1.72719775 25.7994098,2.17992809 C25.4905439,1.52066966 25.0935927,1.12578202 24.6599707,1.12578202 C24.2248366,1.12578202 23.8259951,1.52697303 23.5156171,2.19475955 L16.1758,5.08763596 L15.9270439,4.49845618 L2.67000732,9.72246742 C2.57889756,9.74471461 2.48967805,9.78031011 2.40386098,9.82777079 L2.3498,9.84890562 L2.35244634,9.85446742 C1.62697073,10.2994112 1.10110488,11.6201528 1.10110488,13.1800517 C1.10110488,14.0458382 1.2632878,14.8356135 1.53170244,15.4451865 L0.138970732,17.7058719 C0.301153659,18.1434 0.465226829,18.5924225 0.631190244,19.0566472 L3.91983659,27.6203326 C3.91983659,27.6203326 7.49201951,16.3599169 7.95739756,16.1333663 C9.03294634,15.6083326 17.9923244,12.2441865 23.3867024,10.2471303 C23.5863122,10.1740854 23.7673976,10.0754562 23.9348732,9.96088315" id="Fill-13" fill="#FE6B46" mask="url(#mask-2)"></path>
                    </g>
                    <path d="M78.3873564,33.2315472 C77.429614,33.2315472 76.5929698,32.7370291 76.1378993,32 L67.5726733,38.4221606 L66.3811123,38.1051431 C66.0772242,38.0039751 65.8369318,38.4433438 66.1392966,38.5445119 L68.5445058,39.8363216 C68.7958418,39.9192282 69.0627911,39.8279213 69.2082614,39.6303333 C74.1759553,41.3742946 77.2677688,41.6073098 79.6348969,39.4247102 C81.2594413,37.9269121 81.4026267,34.5401574 80.2316294,32.4989008 C79.7590416,32.9510525 79.1078529,33.2315472 78.3873564,33.2315472" id="Fill-16" fill="#FFFFFF"></path>
                </g>
                <g id="Group-16" transform="translate(57.000000, 62.016529)">
                    <path d="M34.6707103,21.9834711 C34.6707103,20.1447937 36.1611379,18.6543128 38.0002505,18.6543128 C39.8388621,18.6543128 41.3292897,20.1447937 41.3292897,21.9834711 C41.3292897,23.8221484 39.8388621,25.3131304 38.0002505,25.3131304 C36.1611379,25.3131304 34.6707103,23.8221484 34.6707103,21.9834711 M31,21.9834711 C31,25.8497035 34.1339059,28.9834711 38.0002505,28.9834711 C41.8660941,28.9834711 45,25.8497035 45,21.9834711 C45,18.1174891 41.8660941,14.9834711 38.0002505,14.9834711 C34.1339059,14.9834711 31,18.1174891 31,21.9834711" id="Fill-1" fill="#FFFFFF"></path>
                    <path d="M10.6708417,21.9834711 C10.6708417,20.1447937 12.1613226,18.6543128 14,18.6543128 C15.8386774,18.6543128 17.3296593,20.1447937 17.3296593,21.9834711 C17.3296593,23.8221484 15.8386774,25.3131304 14,25.3131304 C12.1613226,25.3131304 10.6708417,23.8221484 10.6708417,21.9834711 M7,21.9834711 C7,25.8497035 10.134018,28.9834711 14,28.9834711 C17.866483,28.9834711 21,25.8497035 21,21.9834711 C21,18.1174891 17.866483,14.9834711 14,14.9834711 C10.134018,14.9834711 7,18.1174891 7,21.9834711" id="Fill-3" fill="#FFFFFF"></path>
                    <path d="M31.4012754,8.98347107 C31.5109565,8.98347107 31.6106667,9.04965237 31.6568116,9.15327198 L32.0449855,10.0247395 C31.2881159,10.0445456 30.7953623,10.0575886 30.7953623,10.0575886 C29.395942,10.0616947 28.258087,11.2493349 28.258087,12.7084633 C28.258087,14.1702486 29.3998841,15.359338 30.8032464,15.359338 C30.9017971,15.359338 31.0015072,15.3520919 31.1144348,15.3373581 C31.1232464,15.336875 31.132058,15.3361504 31.1406377,15.3354258 L34,15.047513 C31.4084638,16.1786334 29.5830725,18.8464158 29.5830725,21.9511395 C29.5830725,22.3016105 29.6081159,22.6458016 29.6531014,22.9834711 L28.2817391,22.9834711 C28.1261449,22.9834711 28,22.8523162 28,22.690486 L28,9.27669767 C28,9.11486751 28.1261449,8.98347107 28.2817391,8.98347107 L31.4012754,8.98347107 Z" id="Fill-5" fill="#FE6B46"></path>
                    <mask id="mask-4" fill="white">
                        <use xlink:href="#path-3"></use>
                    </mask>
                    <g id="Clip-8"></g>
                    <polygon id="Fill-7" fill="#FFFFFF" mask="url(#mask-4)" points="25 19.9834711 28 19.9834711 28 18.9834711 25 18.9834711"></polygon>
                    <polygon id="Fill-9" fill="#FFFFFF" mask="url(#mask-4)" points="25 20.9834711 27 20.9834711 27 19.9834711 25 19.9834711"></polygon>
                    <polygon id="Fill-10" fill="#FFFFFF" mask="url(#mask-4)" points="25 21.9834711 28 21.9834711 28 20.9834711 25 20.9834711"></polygon>
                    <path d="M4.66159644,10.9049155 C4.66159644,10.7416456 4.79529752,10.609324 4.95972036,10.609324 L9.80785931,10.609324 C9.97228215,10.609324 10.1059832,10.7416456 10.1059832,10.9049155 C10.1059832,11.068429 9.97228215,11.2007506 9.80785931,11.2007506 L4.95972036,11.2007506 C4.79529752,11.2007506 4.66159644,11.068429 4.66159644,10.9049155 L4.66159644,10.9049155 Z M4.66159644,12.3102544 C4.66159644,12.1467409 4.79529752,12.0144192 4.95972036,12.0144192 L9.80785931,12.0144192 C9.97228215,12.0144192 10.1059832,12.1467409 10.1059832,12.3102544 C10.1059832,12.4735242 9.97228215,12.6058459 9.80785931,12.6058459 L4.95972036,12.6058459 C4.79529752,12.6058459 4.66159644,12.4735242 4.66159644,12.3102544 L4.66159644,12.3102544 Z M4.66159644,13.715106 C4.66159644,13.5518362 4.79529752,13.4192708 4.95972036,13.4192708 L9.80785931,13.4192708 C9.97228215,13.4192708 10.1059832,13.5518362 10.1059832,13.715106 C10.1059832,13.8783758 9.97228215,14.0109412 9.80785931,14.0109412 L4.95972036,14.0109412 C4.79529752,14.0109412 4.66159644,13.8783758 4.66159644,13.715106 L4.66159644,13.715106 Z M16.694694,3.34966514 L23.6854911,3.34966514 C23.9794369,4.48816757 24.4520604,6.44789287 24.7128267,8.19488002 C24.9888309,10.042997 25.0873863,12.9418893 25.1220405,14.6888765 L22.7766187,14.6888765 L21.54824,10.2281986 C21.5160436,10.1107418 21.4140474,10.0249642 21.2921434,10.0118051 L16.694694,9.52540727 L16.694694,3.34966514 Z M0,15.8846452 L0,20.1735242 C0,20.2787967 0.0562822578,20.3760276 0.147955979,20.4291512 L4.49913979,22.9435065 C4.54436222,22.9698246 4.59597477,22.9834711 4.64881619,22.9834711 L6.15270761,22.9834711 C6.10478167,22.6430413 6.07872962,22.2955446 6.07872962,21.9421995 C6.07872962,17.7793063 9.49376007,14.3930413 13.6920724,14.3930413 C17.8906305,14.3930413 21.3063983,17.7793063 21.3063983,21.9421995 C21.3063983,22.2955446 21.2793632,22.6430413 21.2321746,22.9834711 L23.8919413,22.9834711 C24.0563642,22.9834711 24.1900653,22.8511494 24.1900653,22.6881233 L24.1900653,18.1029217 L26.7011388,18.1029217 C26.8662989,18.1029217 27,17.9706 27,17.8073302 C27,17.7495765 26.9948387,12.032452 26.5743193,8.89425973 C26.3155193,6.96402048 25.8645239,4.86027657 25.5310085,3.4356864 C25.5285508,3.42447683 25.5253557,3.41351095 25.5211775,3.40278875 C25.5219149,3.40303244 25.5219149,3.40327613 25.5219149,3.40327613 C25.5228979,3.40327613 25.5211775,3.38719283 25.5211775,3.37427745 C25.5211775,3.35648835 25.5280592,3.34747196 25.5295338,3.34625353 C25.541331,3.34625353 25.5536197,3.34552247 25.5646795,3.34430404 C26.1751823,3.29044936 26.6514924,2.77505282 26.6514924,2.16656811 C26.6514924,1.51397617 26.1161965,0.983471074 25.4577678,0.983471074 L14.9789454,0.983471074 C14.321254,0.983471074 13.7859581,1.51397617 13.7859581,2.16656811 C13.7859581,2.76847329 14.2317922,3.26608073 14.8295147,3.34016137 C14.8403288,3.34259823 14.8521259,3.34454772 14.8634316,3.34576616 C14.8617111,3.36964741 14.8634316,3.3930413 14.8671182,3.41594781 L14.8671182,9.6725938 L3.77877605,9.6725938 C3.6730932,9.6725938 3.57478358,9.72839797 3.52095906,9.81929296 L0.0405527185,15.7355092 C0.0137633469,15.7808348 0,15.832009 0,15.8846452 L0,15.8846452 Z" id="Fill-11" fill="#FE6B46" mask="url(#mask-4)"></path>
                    <path d="M43,12.5586395 C43,11.6886517 42.1955384,10.9834711 41.203688,10.9834711 L31.1527031,11.2068224 C29.9633894,11.2068224 29,12.052288 29,13.0950363 C29,14.1377846 29.9633894,14.9834711 31.1527031,14.9834711 C31.2572277,14.9834711 31.3592336,14.9748551 31.4602321,14.9618208 L31.4602321,14.96403 L41.3127462,14.1293896 C41.3580822,14.1269594 41.4036701,14.1232038 41.4482504,14.1179016 L41.4852748,14.1148088 L41.4847711,14.1130414 C42.3431321,13.9944067 43,13.3446773 43,12.5586395" id="Fill-12" fill="#FE6B46" mask="url(#mask-4)"></path>
                    <path d="M50.5401835,20.3903014 L43.4408926,11.9834711 C43.4164671,13.0836403 42.6476559,14.0034698 41.5850269,14.2004897 C41.5568071,14.207742 41.5271645,14.2130603 41.4965733,14.2159612 L41.4730964,14.2183787 C41.4242453,14.2249057 41.3746828,14.2297406 41.3248832,14.2331249 L41,14.2650349 L48.481088,22.5427749 C48.7485831,22.8147349 49.1173374,22.9834711 49.5245085,22.9834711 C50.3393251,22.9834711 51,22.309977 51,21.4793505 C51,21.1617011 50.902535,20.867259 50.7372477,20.6243079 L50.737722,20.6243079 L50.7362992,20.6226157 C50.678911,20.5384894 50.6127487,20.4606484 50.5401835,20.3903014" id="Fill-13" fill="#FE6B46" mask="url(#mask-4)"></path>
                    <path d="M45.6359936,13.3452212 C45.6340493,13.3397769 45.6308898,13.3338376 45.6291886,13.3288882 C45.4777774,12.9750065 44.4677218,9.79526749 44.4230033,9.4710821 L36.2898198,9.70617838 L36.2835009,9.30280266 L32.2510557,9.41886598 L32,8.76950532 L36.2725643,8.64626538 L36.2652733,8.24313714 L44.9827141,7.9922028 C45.0388553,7.98230401 45.098156,7.98131413 45.1589148,7.98675846 L45.1931829,7.98626352 L45.1936689,7.98997557 C45.7098764,8.06891842 46.3318042,8.70590559 46.7196889,9.61263481 C46.8752316,9.97616789 47.9562536,13.4479212 48,13.7797781 L47.0149771,14.9834711 L45.6359936,13.3452212 Z" id="Fill-14" fill="#FE6B46" mask="url(#mask-4)"></path>
                    <path d="M58.7396259,26.0560179 L57.858706,26.2952608 C57.858706,26.2952608 57.6579686,26.3443547 57.4102553,26.4308078 L50.2829885,13.9834711 C49.1671889,14.6085201 48.2739196,15.4725726 47.630543,16.4728905 L51.3021726,20.6916123 C51.3975774,20.7835736 51.4832964,20.8839167 51.5590874,20.9919232 C51.8026843,21.3396517 51.9315049,21.7470112 51.9315049,22.1699371 C51.9315049,23.3120286 50.9922283,24.2409808 49.8372014,24.2409808 C49.278333,24.2409808 48.7523962,24.0256862 48.3564907,23.6346114 C48.3555222,23.6336535 48.0976388,23.3565724 47.6777611,22.906106 C47.6060865,22.8474328 47.5152825,22.8100736 47.4147927,22.8100736 C47.1859666,22.8100736 47,22.993996 47,23.2205464 C47,23.2842487 47.0157394,23.3436403 47.0421331,23.3975239 L47.0416488,23.3980028 C47.0416488,23.3980028 47.2782235,23.9267799 47.4266577,24.1858999 C49.2977045,27.4531581 53.2783099,28.7952175 56.7182077,27.4886015 C56.8165182,27.5731388 56.9436438,27.6057084 57.0712537,27.5611647 L58.8880602,26.4741541 C59.113012,26.394167 58.9655463,25.9760308 58.7396259,26.0560179" id="Fill-15" fill="#FFFFFF" mask="url(#mask-4)"></path>
                </g>
                <g id="Group-14" transform="translate(7.000000, 61.000000)">
                    <g id="Group-3" transform="translate(0.000000, 2.648421)">
                        <mask id="mask-6" fill="white">
                            <use xlink:href="#path-5"></use>
                        </mask>
                        <g id="Clip-2"></g>
                        <path d="M5.95823684,0.173394737 C3.23586842,0.172605263 2.90481579,0.172868421 0.804815789,0.171288903 C0.5085,0.171026316 0.272710526,0.261815789 0.109289474,0.523131579 C-0.174131579,0.976815789 0.123236842,1.58760526 0.656657895,1.61128947 C1.06113158,1.62944737 1.46692105,1.61392105 1.87192105,1.61444737 C2.10007895,1.61444737 2.3285,1.61707895 2.55665789,1.61707895 C4.12376316,1.61734211 3.78007895,1.61813158 5.95823684,1.61734211 L5.95823684,0.173394737 Z" id="Fill-1" fill="#FFFFFF" mask="url(#mask-6)"></path>
                    </g>
                    <g id="Group-6" transform="translate(20.000000, 2.648421)">
                        <mask id="mask-8" fill="white">
                            <use xlink:href="#path-7"></use>
                        </mask>
                        <g id="Clip-5"></g>
                        <path d="M0.161552632,1.61805263 C2.88392105,1.61884211 3.21497368,1.61857895 5.31497368,1.62015846 C5.61128947,1.62042105 5.84707895,1.52936842 6.0105,1.26805263 C6.29392105,0.814368421 5.99681579,0.203842105 5.46313158,0.179894737 C5.05865789,0.162 4.65286842,0.177263158 4.24786842,0.177 C4.01971053,0.176736842 3.79128947,0.174368421 3.56313158,0.174105263 C1.99602632,0.174105263 2.33971053,0.173315789 0.161552632,0.174105263 L0.161552632,1.61805263 Z" id="Fill-4" fill="#FFFFFF" mask="url(#mask-8)"></path>
                    </g>
                    <path d="M18.2464474,0.204078947 C18.0343421,0.0940789474 17.7801316,0.0290789474 17.5406579,0.0153947368 C17.0480263,-0.0130263158 16.5527632,0.00671052632 16.0417105,0.00671052632 L16.0417105,0.245921053 C16.0414474,1.95118421 16.0419737,3.65671053 16.0403947,5.36223684 C16.0401316,5.77460526 15.8485526,5.95986842 15.4340789,5.95986842 C14.5035526,5.96013158 13.5735526,5.96039474 12.6432895,5.96065789 C11.9738158,5.96065789 11.3040789,5.96197368 10.6343421,5.95934211 C10.2814474,5.95802632 10.0819737,5.75828947 10.0777632,5.40565789 C10.0740789,5.10171053 10.0761842,4.79802632 10.0761842,4.49407895 C10.0759211,3.44223684 10.0761842,2.39039474 10.0761842,1.33855263 L10.0761842,0.275394737 C10.0751316,0.190394737 10.0751316,0.104868421 10.0751316,0.0175 C10.0238158,0.0122368421 9.99355263,0.00644736842 9.96328947,0.00671052632 C9.4675,0.00776315789 8.97065789,-0.00592105263 8.47539474,0.0156578947 C7.81381579,0.0446052632 7.24907895,0.550921053 7.14118421,1.20776316 C7.10144737,1.45013158 7.11171053,1.70171053 7.11171053,1.94907895 C7.10960526,4.10723684 7.10960526,6.26513158 7.11092105,8.42328947 C7.11144737,9.23934211 7.70223684,9.86618421 8.51276316,9.91013158 C8.70171053,9.92039474 8.89197368,9.91171053 9.09302632,9.91171053 C9.09302632,10.4177632 9.09092105,10.8880263 9.09355263,11.3582895 C9.09565789,11.7185526 9.28539474,11.9043421 9.64802632,11.9077632 C9.78855263,11.9090789 9.92934211,11.9080263 10.0864474,11.9080263 C10.0864474,12.3946053 10.0861842,12.8582895 10.0864474,13.3219737 C10.0864474,13.6722368 10.3025,13.8896053 10.6488158,13.8893421 C11.2625,13.8893421 11.8764474,13.8893421 12.4903947,13.8893421 C13.4948684,13.8893421 14.4996053,13.8911842 15.5040789,13.8893421 C15.7909211,13.8885526 15.9785526,13.7438158 16.0185526,13.4803947 C16.0409211,13.3348684 16.0296053,13.1835526 16.0301316,13.0348684 C16.0311842,12.6648684 16.0303947,12.2948684 16.0303947,11.9072368 C16.1206579,11.9072368 16.1877632,11.9032895 16.2543421,11.9080263 C16.8430263,11.9496053 17.0598684,11.7672368 17.0290789,11.1267105 C17.0103947,10.7325 17.0256579,10.3367105 17.0256579,9.91434211 C17.2396053,9.91434211 17.4367105,9.92328947 17.6327632,9.91302632 C18.3835526,9.87276316 19.0032895,9.23907895 19.0051316,8.48907895 C19.0106579,6.13881579 19.0127632,3.78881579 19.0032895,1.43855263 C19.0009211,0.888552632 18.7346053,0.457236842 18.2464474,0.204078947 Z" id="Fill-7" fill="#FE6B46"></path>
                    <mask id="mask-10" fill="white">
                        <use xlink:href="#path-9"></use>
                    </mask>
                    <g id="Clip-10"></g>
                    <polygon id="Fill-9" fill="#FE6B46" mask="url(#mask-10)" points="11.0897368 16.8536842 15.0313158 16.8536842 15.0313158 14.9015789 11.0897368 14.9015789"></polygon>
                    <path d="M11.0782368,17.8771842 L15.0395526,17.8771842 L15.0395526,18.2308684 C15.0392895,18.6027105 15.0440263,18.9748158 15.0377105,19.3466579 C15.0324474,19.6366579 14.8453421,19.8390263 14.5658684,19.8406053 C13.5616579,19.8463947 12.5571842,19.8461316 11.5529737,19.8406053 C11.2800789,19.8392895 11.0961316,19.6421842 11.0795526,19.3663947 C11.0769211,19.3232368 11.0782368,19.2795526 11.0782368,19.2361316 L11.0782368,17.8771842 Z" id="Fill-11" fill="#FE6B46" mask="url(#mask-10)"></path>
                    <path d="M14.5491579,3.48086842 C14.546,3.55139474 14.5312632,3.61665789 14.5065263,3.67507895 C14.4941579,3.70455263 14.4791579,3.73192105 14.4623158,3.75744737 C14.3770526,3.88560526 14.2357368,3.96507895 14.0681053,3.96955263 C14.0167895,3.97113158 13.9673158,3.96560526 13.9204737,3.95428947 C13.7496842,3.91271053 13.6165263,3.78955263 13.5728421,3.61428947 C13.5688947,3.59823684 13.5657368,3.58192105 13.5631053,3.56507895 C13.5607368,3.5485 13.5588947,3.53113158 13.5581053,3.51376316 C13.5407368,3.15586842 13.5417895,2.79613158 13.5570526,2.4385 C13.5578421,2.42218421 13.5594211,2.40586842 13.5617895,2.39007895 C13.5688947,2.34244737 13.5833684,2.29771053 13.6036316,2.25639474 C13.6375789,2.18744737 13.6883684,2.1285 13.7494211,2.08323684 C13.8352105,2.01981579 13.9417895,1.98323684 14.0531053,1.98401379 C14.1028421,1.98428947 14.1507368,1.99165789 14.196,2.00534211 C14.211,2.00981579 14.2257368,2.01507895 14.2402105,2.02086842 C14.4133684,2.09165789 14.5378421,2.25692105 14.5483684,2.46086842 C14.5573158,2.6335 14.5499474,2.80692105 14.5502105,2.98007895 C14.5504737,3.14692105 14.5562632,3.31428947 14.5491579,3.48086842 L14.5491579,3.48086842 Z M12.5723158,3.48086842 C12.5602105,3.76297368 12.3596842,3.96244737 12.0912632,3.96955263 C11.8178421,3.97692105 11.5952105,3.79481579 11.5815263,3.51376316 C11.5641579,3.15586842 11.5649474,2.79613158 11.5807368,2.4385 C11.5920526,2.17613158 11.8220526,1.98218421 12.0765263,1.9840133 C12.341,1.98560526 12.5578421,2.18876316 12.5715263,2.46086842 C12.5807368,2.6335 12.5733684,2.80692105 12.5736316,2.98007895 C12.5736316,3.14692105 12.5796842,3.31428947 12.5723158,3.48086842 L12.5723158,3.48086842 Z M11.0883684,0.0179736842 L11.0883684,0.275342105 L11.0883684,3.97007895 L11.0883684,4.94481579 L15.0307368,4.94481579 L15.0307368,0.0179736842 L11.0883684,0.0179736842 Z" id="Fill-12" fill="#FFFFFF" mask="url(#mask-10)"></path>
                    <path d="M12.3809211,20.4956579 C12.3653947,22.0935526 12.3659211,23.6917105 12.3843421,25.2893421 C12.3885526,25.6861842 12.2769737,25.8690789 11.8680263,25.8064474 C11.5140789,25.7525 11.4167105,25.8940789 11.3864474,26.2582895 C11.2809211,27.5301316 12.0638158,28.4896053 12.4985526,29.5680263 C12.6101316,29.8451316 13.6514474,29.7982895 13.7535526,29.5188158 C14.1375,28.4690789 14.8356579,27.5177632 14.7319737,26.3093421 C14.7011842,25.9546053 14.6461842,25.7425 14.2417105,25.8075 C13.8535526,25.8696053 13.7427632,25.6948684 13.7467105,25.3180263 C13.7638158,23.7475 13.7546053,22.1769737 13.7546053,20.6064474 C13.7546053,20.5669737 13.7548684,20.5314474 13.7548684,20.4956579 L12.3809211,20.4956579 Z" id="Fill-13" fill="#FFFFFF" mask="url(#mask-10)"></path>
                </g>
            </g>
        </g>
    </g>
</svg>