<?xml version="1.0" encoding="UTF-8"?>
<svg width="27px" height="30px" viewBox="0 0 27 30" version="1.1" xmlns="http://www.w3.org/2000/svg" xmlns:xlink="http://www.w3.org/1999/xlink">
    <title>Group 14</title>
    <defs>
        <polygon id="path-1" points="0 0.171288903 5.95823684 0.171288903 5.95823684 1.62013003 0 1.62013003"></polygon>
        <polygon id="path-3" points="0.161552632 0.171183499 6.11973684 0.171183499 6.11973684 1.62015846 0.161552632 1.62015846"></polygon>
        <polygon id="path-5" points="0 29.7536842 26.1197368 29.7536842 26.1197368 -3.73969861e-15 0 -3.73969861e-15"></polygon>
    </defs>
    <g id="Page-1" stroke="none" stroke-width="1" fill="none" fill-rule="evenodd">
        <g id="Toolkit-2" transform="translate(-688.000000, -457.000000)">
            <g id="Group-14" transform="translate(688.000000, 457.000000)">
                <g id="Group-3" transform="translate(0.000000, 2.648421)">
                    <mask id="mask-2" fill="white">
                        <use xlink:href="#path-1"></use>
                    </mask>
                    <g id="Clip-2"></g>
                    <path d="M5.95823684,0.173394737 C3.23586842,0.172605263 2.90481579,0.172868421 0.804815789,0.171288903 C0.5085,0.171026316 0.272710526,0.261815789 0.109289474,0.523131579 C-0.174131579,0.976815789 0.123236842,1.58760526 0.656657895,1.61128947 C1.06113158,1.62944737 1.46692105,1.61392105 1.87192105,1.61444737 C2.10007895,1.61444737 2.3285,1.61707895 2.55665789,1.61707895 C4.12376316,1.61734211 3.78007895,1.61813158 5.95823684,1.61734211 L5.95823684,0.173394737 Z" id="Fill-1" fill="#4E4E54" mask="url(#mask-2)"></path>
                </g>
                <g id="Group-6" transform="translate(20.000000, 2.648421)">
                    <mask id="mask-4" fill="white">
                        <use xlink:href="#path-3"></use>
                    </mask>
                    <g id="Clip-5"></g>
                    <path d="M0.161552632,1.61805263 C2.88392105,1.61884211 3.21497368,1.61857895 5.31497368,1.62015846 C5.61128947,1.62042105 5.84707895,1.52936842 6.0105,1.26805263 C6.29392105,0.814368421 5.99681579,0.203842105 5.46313158,0.179894737 C5.05865789,0.162 4.65286842,0.177263158 4.24786842,0.177 C4.01971053,0.176736842 3.79128947,0.174368421 3.56313158,0.174105263 C1.99602632,0.174105263 2.33971053,0.173315789 0.161552632,0.174105263 L0.161552632,1.61805263 Z" id="Fill-4" fill="#4E4E54" mask="url(#mask-4)"></path>
                </g>
                <path d="M19.0032895,1.43855263 C19.0009211,0.888552632 18.7346053,0.457236842 18.2464474,0.204078947 C18.0343421,0.0940789474 17.7801316,0.0290789474 17.5406579,0.0153947368 C17.0480263,-0.0130263158 16.5527632,0.00671052632 16.0417105,0.00671052632 L16.0417105,0.245921053 C16.0414474,1.95118421 16.0419737,3.65671053 16.0403947,5.36223684 C16.0401316,5.77460526 15.8485526,5.95986842 15.4340789,5.95986842 C14.5035526,5.96013158 13.5735526,5.96039474 12.6432895,5.96065789 C11.9738158,5.96065789 11.3040789,5.96197368 10.6343421,5.95934211 C10.2814474,5.95802632 10.0819737,5.75828947 10.0777632,5.40565789 C10.0740789,5.10171053 10.0761842,4.79802632 10.0761842,4.49407895 C10.0759211,3.44223684 10.0761842,2.39039474 10.0761842,1.33855263 L10.0761842,0.275394737 L10.0753947,0.275394737 C10.0751316,0.190394737 10.0751316,0.104868421 10.0751316,0.0175 C10.0238158,0.0122368421 9.99355263,0.00644736842 9.96328947,0.00671052632 C9.4675,0.00776315789 8.97065789,-0.00592105263 8.47539474,0.0156578947 C7.81381579,0.0446052632 7.24907895,0.550921053 7.14118421,1.20776316 C7.10144737,1.45013158 7.11171053,1.70171053 7.11171053,1.94907895 C7.10960526,4.10723684 7.10960526,6.26513158 7.11092105,8.42328947 C7.11144737,9.23934211 7.70223684,9.86618421 8.51276316,9.91013158 C8.70171053,9.92039474 8.89197368,9.91171053 9.09302632,9.91171053 C9.09302632,10.4177632 9.09092105,10.8880263 9.09355263,11.3582895 C9.09565789,11.7185526 9.28539474,11.9043421 9.64802632,11.9077632 C9.78855263,11.9090789 9.92934211,11.9080263 10.0864474,11.9080263 C10.0864474,12.3946053 10.0861842,12.8582895 10.0864474,13.3219737 C10.0864474,13.6722368 10.3025,13.8896053 10.6488158,13.8893421 C11.2625,13.8893421 11.8764474,13.8893421 12.4903947,13.8893421 C13.4948684,13.8893421 14.4996053,13.8911842 15.5040789,13.8893421 C15.7909211,13.8885526 15.9785526,13.7438158 16.0185526,13.4803947 C16.0409211,13.3348684 16.0296053,13.1835526 16.0301316,13.0348684 C16.0311842,12.6648684 16.0303947,12.2948684 16.0303947,11.9072368 C16.1206579,11.9072368 16.1877632,11.9032895 16.2543421,11.9080263 C16.8430263,11.9496053 17.0598684,11.7672368 17.0290789,11.1267105 C17.0103947,10.7325 17.0256579,10.3367105 17.0256579,9.91434211 C17.2396053,9.91434211 17.4367105,9.92328947 17.6327632,9.91302632 C18.3835526,9.87276316 19.0032895,9.23907895 19.0051316,8.48907895 C19.0106579,6.13881579 19.0127632,3.78881579 19.0032895,1.43855263" id="Fill-7" fill="#FFFFFF"></path>
                <mask id="mask-6" fill="white">
                    <use xlink:href="#path-5"></use>
                </mask>
                <g id="Clip-10"></g>
                <polygon id="Fill-9" fill="#FFFFFF" mask="url(#mask-6)" points="11.0897368 16.8536842 15.0313158 16.8536842 15.0313158 14.9015789 11.0897368 14.9015789"></polygon>
                <path d="M11.0782368,17.8771842 L15.0395526,17.8771842 L15.0395526,18.2308684 C15.0392895,18.6027105 15.0440263,18.9748158 15.0377105,19.3466579 C15.0324474,19.6366579 14.8453421,19.8390263 14.5658684,19.8406053 C13.5616579,19.8463947 12.5571842,19.8461316 11.5529737,19.8406053 C11.2800789,19.8392895 11.0961316,19.6421842 11.0795526,19.3663947 C11.0769211,19.3232368 11.0782368,19.2795526 11.0782368,19.2361316 L11.0782368,17.8771842 Z" id="Fill-11" fill="#FFFFFF" mask="url(#mask-6)"></path>
                <path d="M14.5491579,3.48086842 C14.546,3.55139474 14.5312632,3.61665789 14.5065263,3.67507895 C14.4941579,3.70455263 14.4791579,3.73192105 14.4623158,3.75744737 C14.3770526,3.88560526 14.2357368,3.96507895 14.0681053,3.96955263 C14.0167895,3.97113158 13.9673158,3.96560526 13.9204737,3.95428947 C13.7496842,3.91271053 13.6165263,3.78955263 13.5728421,3.61428947 C13.5688947,3.59823684 13.5657368,3.58192105 13.5631053,3.56507895 C13.5607368,3.5485 13.5588947,3.53113158 13.5581053,3.51376316 C13.5407368,3.15586842 13.5417895,2.79613158 13.5570526,2.4385 C13.5578421,2.42218421 13.5594211,2.40586842 13.5617895,2.39007895 C13.5688947,2.34244737 13.5833684,2.29771053 13.6036316,2.25639474 C13.6375789,2.18744737 13.6883684,2.1285 13.7494211,2.08323684 C13.8352105,2.01981579 13.9417895,1.98323684 14.0531053,1.98401379 C14.1028421,1.98428947 14.1507368,1.99165789 14.196,2.00534211 C14.211,2.00981579 14.2257368,2.01507895 14.2402105,2.02086842 C14.4133684,2.09165789 14.5378421,2.25692105 14.5483684,2.46086842 C14.5573158,2.6335 14.5499474,2.80692105 14.5502105,2.98007895 C14.5504737,3.14692105 14.5562632,3.31428947 14.5491579,3.48086842 L14.5491579,3.48086842 Z M12.5723158,3.48086842 C12.5602105,3.76297368 12.3596842,3.96244737 12.0912632,3.96955263 C11.8178421,3.97692105 11.5952105,3.79481579 11.5815263,3.51376316 C11.5641579,3.15586842 11.5649474,2.79613158 11.5807368,2.4385 C11.5920526,2.17613158 11.8220526,1.98218421 12.0765263,1.9840133 C12.341,1.98560526 12.5578421,2.18876316 12.5715263,2.46086842 C12.5807368,2.6335 12.5733684,2.80692105 12.5736316,2.98007895 C12.5736316,3.14692105 12.5796842,3.31428947 12.5723158,3.48086842 L12.5723158,3.48086842 Z M11.0883684,0.0179736842 L11.0883684,0.275342105 L11.0883684,3.97007895 L11.0883684,4.94481579 L15.0307368,4.94481579 L15.0307368,0.0179736842 L11.0883684,0.0179736842 Z" id="Fill-12" fill="#4E4E54" mask="url(#mask-6)"></path>
                <path d="M12.3809211,20.4956579 C12.3653947,22.0935526 12.3659211,23.6917105 12.3843421,25.2893421 C12.3885526,25.6861842 12.2769737,25.8690789 11.8680263,25.8064474 C11.5140789,25.7525 11.4167105,25.8940789 11.3864474,26.2582895 C11.2809211,27.5301316 12.0638158,28.4896053 12.4985526,29.5680263 C12.6101316,29.8451316 13.6514474,29.7982895 13.7535526,29.5188158 C14.1375,28.4690789 14.8356579,27.5177632 14.7319737,26.3093421 C14.7011842,25.9546053 14.6461842,25.7425 14.2417105,25.8075 C13.8535526,25.8696053 13.7427632,25.6948684 13.7467105,25.3180263 C13.7638158,23.7475 13.7546053,22.1769737 13.7546053,20.6064474 C13.7546053,20.5669737 13.7548684,20.5314474 13.7548684,20.4956579 L12.3809211,20.4956579 Z" id="Fill-13" fill="#4E4E54" mask="url(#mask-6)"></path>
            </g>
        </g>
    </g>
</svg>