<?xml version="1.0" encoding="UTF-8"?>
<svg width="26px" height="25px" viewBox="0 0 26 25" version="1.1" xmlns="http://www.w3.org/2000/svg" xmlns:xlink="http://www.w3.org/1999/xlink">
    <title>0AB4071E-C356-49EB-81C4-D29A46E8A1E8</title>
    <defs>
        <polygon id="path-1" points="0.14814507 0.155533663 11.765 0.155533663 11.765 12.8412535 0.14814507 12.8412535"></polygon>
        <polygon id="path-3" points="0 24.0353521 25.8635915 24.0353521 25.8635915 0 0 0"></polygon>
    </defs>
    <g id="Page-1" stroke="none" stroke-width="1" fill="none" fill-rule="evenodd">
        <g id="Homepage-step-1" transform="translate(-260.000000, -556.000000)">
            <g id="Group-21" transform="translate(226.000000, 486.000000)">
                <g id="Group-15" transform="translate(34.000000, 70.000000)">
                    <path d="M3.08363662,10.6892775 C2.92470704,9.24572817 2.67441127,7.01595352 2.42118592,6.3817 C2.07384789,5.51198169 1.19296056,5.67457324 0.922340845,5.7057 C0.651904225,5.73664366 0.364988732,6.28008028 0.733016901,6.78195352 C1.25008732,7.4868831 1.6560169,8.14731972 1.9813831,11.9015732 C2.0202,11.884362 2.0593831,11.8697141 2.0983831,11.8532352 C2.09398873,11.8649535 2.09087606,11.8764887 2.08648169,11.8880239 C3.0340169,11.8208268 5.59263662,11.6360803 6.56305915,11.8633056 C7.25407324,12.0249817 7.87349577,11.6357141 7.86141127,11.4040944 C7.84932676,11.1726577 7.88594648,10.4012634 6.74286197,10.3602493 C5.88669296,10.3294887 4.4123831,10.5039817 3.08363662,10.6892775 Z" id="Fill-1" fill="#4E4E54"></path>
                    <g id="Group-5" transform="translate(14.098592, 2.979014)">
                        <mask id="mask-2" fill="white">
                            <use xlink:href="#path-1"></use>
                        </mask>
                        <g id="Clip-4"></g>
                        <path d="M8.78197606,2.29971831 C8.62908873,2.27683099 8.46777887,2.29111268 8.31269437,2.34970423 C7.41276479,2.68935211 2.89315915,4.39857746 2.27868028,4.70435211 C2.13476479,4.77612676 1.99304648,4.86474648 1.85737042,4.96087324 C1.84327183,4.83160563 1.82038451,4.70966197 1.78907465,4.59723944 L6.48628592,2.71022535 L6.39162394,2.4826338 L8.86931408,1.48730986 C8.81694789,1.7288169 8.78637042,2.00547887 8.78197606,2.29971831 L8.78197606,2.29971831 Z M10.6309056,11.4224225 C10.8689338,11.4224225 11.0617366,11.6152254 11.0617366,11.8530704 C11.0617366,12.0910986 10.8689338,12.2839014 10.6309056,12.2839014 C10.3928775,12.2839014 10.2002577,12.0910986 10.2002577,11.8530704 C10.2002577,11.6152254 10.3928775,11.4224225 10.6309056,11.4224225 L10.6309056,11.4224225 Z M0.14814507,11.9589014 C0.14814507,11.9589014 2.94058169,6.47747887 3.11727183,6.38959155 C3.52576479,6.18653521 6.92828592,4.88378873 8.97697606,4.11056338 C9.05277887,4.0821831 9.12144085,4.04409859 9.18515915,3.99978873 C9.26938451,4.09866197 9.36276479,4.15450704 9.46053944,4.15450704 L10.0931451,11.0305915 C9.82490563,11.2061831 9.6476662,11.5088451 9.6476662,11.8530704 C9.6476662,12.0359859 9.69838451,12.2064507 9.78517324,12.3532958 L9.78041268,12.3571408 C9.95197606,12.6468028 10.2674549,12.8412535 10.6285254,12.8412535 C10.9000606,12.8412535 11.1455958,12.7308451 11.3237507,12.5532394 L11.3230183,12.5515915 C11.5028211,12.3734366 11.6143282,12.1262535 11.6143282,11.8530704 C11.6143282,11.5269718 11.4546662,11.2384085 11.2100465,11.0597042 L11.7650183,1.21925352 C11.7650183,1.21925352 11.3451732,-0.349169014 10.6054549,0.322985915 C10.3146944,0.587014085 10.0763,0.811676056 9.89320141,0.986901408 C9.77583521,0.731661972 9.62496197,0.578774648 9.46053944,0.578774648 C9.29520141,0.578774648 9.14377887,0.734042254 9.02586338,0.992577465 L6.23837042,2.11277465 L6.14389155,1.8846338 L1.10922958,3.90732394 C1.07462394,3.91611268 1.0407507,3.92966197 1.00815915,3.94815493 L0.987652113,3.95639437 L0.988750704,3.95859155 C0.713187324,4.13070423 0.513426761,4.64228169 0.513426761,5.24632394 C0.513426761,5.58139437 0.574947887,5.88735211 0.676933803,6.1233662 L0.14814507,6.99857746 L0.14814507,11.9589014 Z" id="Fill-3" fill="#FE6B46" mask="url(#mask-2)"></path>
                    </g>
                    <path d="M23.8789859,15.3361183 L20.6496761,17.8606817 L20.2005352,17.7359915 C20.0859155,17.6962592 19.9952817,17.8689211 20.1093521,17.9088366 L21.0160563,18.416569 C21.1109014,18.4491606 21.2116056,18.4132732 21.2665352,18.3356394 C23.1392676,19.0211606 24.3048732,19.1127099 25.1974789,18.2547099 C25.8099437,17.6660479 25.8637746,16.334738 25.4223239,15.5322169 C25.244169,15.7098225 24.9986338,15.820231 24.7270986,15.820231 C24.3660282,15.820231 24.0505493,15.6257803 23.8789859,15.3361183 Z" id="Fill-6" fill="#4E4E54"></path>
                    <mask id="mask-4" fill="white">
                        <use xlink:href="#path-3"></use>
                    </mask>
                    <g id="Clip-9"></g>
                    <path d="M4.11111268,16.4100282 L4.83801408,16.4100282 L4.83801408,13.1810845 L4.11111268,13.1810845 L4.11111268,16.4100282 Z M2.88764789,16.4100282 L3.6145493,16.4100282 L3.6145493,13.1810845 L2.88764789,13.1810845 L2.88764789,16.4100282 Z M1.6641831,16.4100282 L2.39108451,16.4100282 L2.39108451,13.1810845 L1.6641831,13.1810845 L1.6641831,16.4100282 Z M13.3672958,9.10823944 C13.3627183,8.76804225 13.1953662,8.61515493 13.0254507,8.54704225 C13.2063521,7.27102817 13.3663803,4.76825352 13.300831,3.66508451 C13.1660704,1.40601408 12.3340704,0.213309859 12.2985493,0.163873239 L12.1819155,0 L8.52690141,0.0338732394 C8.31469014,0.0366197183 8.14495775,0.21056338 8.14733803,0.422774648 C8.15008451,0.634985915 8.32439437,0.804535211 8.53660563,0.80215493 L11.7712254,0.773408451 C11.9773944,1.14601408 12.4404507,2.14207042 12.5340141,3.71085915 C12.597,4.76916901 12.4307465,7.22177465 12.2500282,8.50035211 C12.2038873,8.50053521 12.1566479,8.50071831 12.1068451,8.50071831 C11.8944507,8.5014507 11.9816056,9.09322535 11.9816056,9.09322535 C11.9816056,9.09322535 11.9372958,14.6830423 11.9795915,15.7483099 C12.0220704,16.8137606 11.3647465,16.7185493 11.3647465,16.7185493 L10.0923944,16.7185493 C8.82022535,16.7185493 9.05349296,15.7365915 9.05349296,15.7365915 C9.05349296,15.7365915 9.09578873,14.3862394 9.05349296,13.2107465 C9.02621127,12.4556479 8.07190141,12.2622958 7.39242254,12.2201831 L1.52905634,12.2201831 C0.684605634,12.2201831 0,12.9046056 0,13.7492394 L0,16.9611549 C0,19.2193099 2.88764789,19.2562958 2.88764789,19.2562958 L6.72411268,19.2562958 L14.0934648,19.2562958 C13.1137042,17.9504366 13.5232958,10.6684225 13.3672958,9.10823944 L13.3672958,9.10823944 Z" id="Fill-8" fill="#FE6B46" mask="url(#mask-4)"></path>
                    <path d="M2.67347746,22.3428437 C2.67347746,22.7075761 2.37777324,23.0034634 2.01285775,23.0034634 C1.64794225,23.0034634 1.35223803,22.7075761 1.35223803,22.3428437 C1.35223803,21.9779282 1.64794225,21.6822239 2.01285775,21.6822239 C2.37777324,21.6822239 2.67347746,21.9779282 2.67347746,22.3428437" id="Fill-10" fill="#FE6B46" mask="url(#mask-4)"></path>
                    <path d="M12.7515901,22.3428437 C12.7515901,22.7075761 12.4558859,23.0034634 12.0909704,23.0034634 C11.7260549,23.0034634 11.4303507,22.7075761 11.4303507,22.3428437 C11.4303507,21.9779282 11.7260549,21.6822239 12.0909704,21.6822239 C12.4558859,21.6822239 12.7515901,21.9779282 12.7515901,22.3428437" id="Fill-11" fill="#FE6B46" mask="url(#mask-4)"></path>
                    <path d="M1.93804366,21.3377606 C1.38380423,21.3377606 0.933015493,21.7885493 0.933015493,22.3427887 C0.933015493,22.8970282 1.38380423,23.3478169 1.93804366,23.3478169 L12.1657479,23.3478169 C12.7199873,23.3478169 13.1707761,22.8970282 13.1707761,22.3427887 C13.1707761,21.7885493 12.7199873,21.3377606 12.1657479,21.3377606 L1.93804366,21.3377606 Z M12.1657479,24.0353521 L1.93804366,24.0353521 C1.00460704,24.0353521 0.245480282,23.2760423 0.245480282,22.3427887 C0.245480282,21.4095352 1.00460704,20.6502254 1.93804366,20.6502254 L12.1657479,20.6502254 C13.0991845,20.6502254 13.8584944,21.4095352 13.8584944,22.3427887 C13.8584944,23.2760423 13.0991845,24.0353521 12.1657479,24.0353521 L12.1657479,24.0353521 Z" id="Fill-12" fill="#4E4E54" mask="url(#mask-4)"></path>
                    <path d="M15.9694746,20.1772085 L15.4227423,20.1772085 C15.4227423,20.1772085 15.0470239,20.579293 14.8811366,21.2488845 L13.923531,21.2488845 C14.1375732,21.5938423 14.261531,22.0003211 14.261531,22.4353634 C14.261531,22.5023775 14.2580521,22.5684761 14.2523761,22.6340254 L14.9117141,22.6340254 C15.0054606,22.9630535 15.1671366,23.3158845 15.4227423,23.6868423 C16.904193,23.7287718 16.7860944,23.6868423 16.7860944,23.6868423 L15.9694746,20.1772085 Z" id="Fill-13" fill="#4E4E54" mask="url(#mask-4)"></path>
                    <polygon id="Fill-14" fill="#FE6B46" mask="url(#mask-4)" points="8.41301408 20.3400197 5.26170423 20.3400197 4.97515493 19.7097944 8.69938028 19.7097944"></polygon>
                </g>
            </g>
        </g>
    </g>
</svg>