<?xml version="1.0" encoding="UTF-8"?>
<svg width="30px" height="28px" viewBox="0 0 30 28" version="1.1" xmlns="http://www.w3.org/2000/svg" xmlns:xlink="http://www.w3.org/1999/xlink">
    <title>Group 23</title>
    <defs>
        <polygon id="path-1" points="0 0.217235054 9.69007087 0.217235054 9.69007087 8.22748819 0 8.22748819"></polygon>
        <polygon id="path-3" points="0.125622047 0.15 3.95546457 0.15 3.95546457 9.4636063 0.125622047 9.4636063"></polygon>
    </defs>
    <g id="Page-1" stroke="none" stroke-width="1" fill="none" fill-rule="evenodd">
        <g id="Toolkit-2" transform="translate(-686.000000, -357.000000)">
            <g id="Group-23" transform="translate(686.000000, 357.000000)">
                <g id="Group-3" transform="translate(0.000000, 13.078346)">
                    <mask id="mask-2" fill="white">
                        <use xlink:href="#path-1"></use>
                    </mask>
                    <g id="Clip-2"></g>
                    <path d="M8.81298425,7.05111024 C9.387,7.08465354 9.69007087,7.11347244 9.69007087,7.11347244 L8.94550394,0.219614173 C8.94550394,0.219614173 4.89668504,-0.108732283 4.89668504,6.94929921 L0.639047244,6.94929921 C0.287551181,6.94929921 -0.000165354331,7.23677953 -0.000165354331,7.58827559 C-0.000165354331,7.94000787 0.287551181,8.22748819 0.639047244,8.22748819 L8.47022835,8.22748819 C8.82196063,8.22748819 9.10944094,7.94000787 9.10944094,7.58827559 C9.10944094,7.36292126 8.99038583,7.1649685 8.81298425,7.05111024" id="Fill-1" fill="#4E4E54" mask="url(#mask-2)"></path>
                </g>
                <polygon id="Fill-4" fill="#FFFFFF" points="22.4687953 14.4684803 24.2654882 21.3058819 24.5432835 21.3058819 26.4084803 20.0751732 25.0065118 14.7401339"></polygon>
                <polygon id="Fill-6" fill="#FFFFFF" points="13.540748 21.3059528 16.7819291 21.3059528 14.6103543 13.0408346 18.3863386 13.4457165 20.4511417 21.3059528 23.6639764 21.3059528 21.6917717 13.799811 25.4677559 14.2044567 26.9209843 19.7367402 29.3493307 18.1342205 28.0059449 12.1361102 13.9680709 10.3344567 9.69011811 5.99792126"></polygon>
                <polygon id="Fill-8" fill="#FFFFFF" points="17.9252598 13.9811575 15.3875433 13.7097402 17.3831339 21.3058819 19.8495118 21.3058819"></polygon>
                <path d="M7.23269291,25.1203228 C7.23269291,25.6815827 6.77773228,26.1365433 6.21647244,26.1365433 C5.6552126,26.1365433 5.20025197,25.6815827 5.20025197,25.1203228 C5.20025197,24.559063 5.6552126,24.1041024 6.21647244,24.1041024 C6.77773228,24.1041024 7.23269291,24.559063 7.23269291,25.1203228" id="Fill-10" fill="#FFFFFF"></path>
                <path d="M22.735937,25.1203228 C22.735937,25.6815827 22.2809764,26.1365433 21.7197165,26.1365433 C21.1584567,26.1365433 20.7034961,25.6815827 20.7034961,25.1203228 C20.7034961,24.559063 21.1584567,24.1041024 21.7197165,24.1041024 C22.2809764,24.1041024 22.735937,24.559063 22.735937,25.1203228" id="Fill-12" fill="#FFFFFF"></path>
                <path d="M6.10140945,23.5742598 C5.24888976,23.5742598 4.55534646,24.2678031 4.55534646,25.1203228 C4.55534646,25.9728425 5.24888976,26.6661496 6.10140945,26.6661496 L21.834874,26.6661496 C22.6873937,26.6661496 23.380937,25.9728425 23.380937,25.1203228 C23.380937,24.2678031 22.6873937,23.5742598 21.834874,23.5742598 L6.10140945,23.5742598 Z M21.834874,27.7239449 L6.10140945,27.7239449 C4.66566142,27.7239449 3.49755118,26.5560709 3.49755118,25.1203228 C3.49755118,23.6845748 4.66566142,22.5164646 6.10140945,22.5164646 L21.834874,22.5164646 C23.270622,22.5164646 24.4384961,23.6845748 24.4384961,25.1203228 C24.4384961,26.5560709 23.270622,27.7239449 21.834874,27.7239449 L21.834874,27.7239449 Z" id="Fill-14" fill="#4E4E54"></path>
                <path d="M12.583748,21.3059528 L9.15359055,7.39185827 L8.69012598,9.56768504 L6.17626772,10.5283937 C6.17626772,10.5283937 6.73492913,12.6711496 7.75988976,13.3528819 C9.43776378,14.4685512 7.87847244,21.3059528 7.87847244,21.3059528 L12.583748,21.3059528 Z" id="Fill-16" fill="#FFFFFF"></path>
                <g id="Group-20" transform="translate(25.984252, 0.086220)">
                    <mask id="mask-4" fill="white">
                        <use xlink:href="#path-3"></use>
                    </mask>
                    <g id="Clip-19"></g>
                    <path d="M0.845622047,9.4636063 C0.845622047,9.4636063 0.376488189,9.21864567 0.125622047,8.66541732 C0.161527559,7.4224252 0.859559055,4.75880315 0.859559055,4.75880315 C0.859559055,4.75880315 1.62845669,2.11455118 2.23601575,1.02959055 C2.53908661,0.819590551 2.85231496,0.748724409 3.05215748,0.725102362 L3.1100315,0.259748031 C3.11782677,0.126755906 3.33113386,0.107858268 3.3235748,0.240377953 L3.45585827,1.37376378 C3.4516063,1.43777953 3.4227874,1.49376378 3.37955906,1.53392126 L3.95546457,5.6143937 L0.845622047,9.4636063 Z" id="Fill-18" fill="#4E4E54" mask="url(#mask-4)"></path>
                </g>
                <path d="M27.932315,8.8509685 L27.2099528,9.74317323 C27.2099528,9.74317323 26.4438898,10.5876614 26.4174331,11.2996299 C26.3912126,12.0113622 26.5865669,20.9471102 26.5865669,20.9471102 L23.8558583,22.5007323 C23.8558583,22.5007323 24.685937,23.0197087 24.743811,23.4236457 C27.6793228,21.7377402 27.8860157,21.6227008 27.8860157,21.6227008 L27.4901102,12.4455354 C27.4901102,12.4455354 27.2647559,10.912937 28.5110551,9.94277953 C29.6739685,8.69293701 29.1311339,7.36679528 29.1311339,7.36679528 L27.932315,8.8509685 Z" id="Fill-21" fill="#4E4E54"></path>
            </g>
        </g>
    </g>
</svg>