<?xml version="1.0" encoding="UTF-8"?>
<svg width="31px" height="18px" viewBox="0 0 31 18" version="1.1" xmlns="http://www.w3.org/2000/svg" xmlns:xlink="http://www.w3.org/1999/xlink">
    <title>C76D7148-80DF-4A56-8E0C-1D8A14A02C98</title>
    <defs>
        <polygon id="path-1" points="0.0178392857 0.0635182761 12.19875 0.0635182761 12.19875 13.3006205 0.0178392857 13.3006205"></polygon>
    </defs>
    <g id="Page-1" stroke="none" stroke-width="1" fill="none" fill-rule="evenodd">
        <g id="Homepage-step-1" transform="translate(-258.000000, -660.000000)">
            <g id="Group-21" transform="translate(226.000000, 486.000000)">
                <g id="Group-22" transform="translate(32.000000, 174.000000)">
                    <path d="M22.5063884,16.4938929 L21.3667902,11.5963929 L20.6037991,11.5963929 C20.6037991,11.5963929 20.0796027,12.1575536 19.8480402,13.0918393 L18.5118348,13.0918393 C18.8104955,13.5733125 18.9835313,14.1405 18.9835313,14.7475982 C18.9835313,14.8410804 18.9787098,14.9333571 18.9706741,15.0246964 L19.8908973,15.0246964 C20.0217455,15.4839375 20.2471473,15.9763929 20.6037991,16.4938929 C22.6711205,16.5525536 22.5063884,16.4938929 22.5063884,16.4938929" id="Fill-1" fill="#4E4E54"></path>
                    <path d="M12.0927321,15.0835179 C12.0863036,14.9979375 12.0818839,14.9116875 12.0818839,14.8243661 C12.0818839,14.1896786 12.2558571,13.5951696 12.5575982,13.0846339 L5.74545536,13.0846339 C6.04719643,13.5951696 6.22116964,14.1896786 6.22116964,14.8243661 C6.22116964,14.9116875 6.21675,14.9979375 6.21032143,15.0835179 L12.0927321,15.0835179 Z" id="Fill-3" fill="#4E4E54"></path>
                    <path d="M2.79070982,16.3917455 C1.92499554,16.3917455 1.22334375,15.6899598 1.22334375,14.8243795 C1.22334375,13.9586652 1.92499554,13.2568795 2.79070982,13.2568795 C3.65629018,13.2568795 4.35820982,13.9586652 4.35820982,14.8243795 C4.35820982,15.6899598 3.65629018,16.3917455 2.79070982,16.3917455 M2.79070982,12.0335759 C1.24945982,12.0335759 4.01785714e-05,13.2831295 4.01785714e-05,14.8243795 C4.01785714e-05,16.3656295 1.24945982,17.6150491 2.79070982,17.6150491 C4.33195982,17.6150491 5.58151339,16.3656295 5.58151339,14.8243795 C5.58151339,13.2831295 4.33195982,12.0335759 2.79070982,12.0335759" id="Fill-5" fill="#4E4E54"></path>
                    <path d="M15.5122902,16.3917455 C14.6467098,16.3917455 13.9447902,15.6899598 13.9447902,14.8243795 C13.9447902,13.9586652 14.6467098,13.2568795 15.5122902,13.2568795 C16.3778705,13.2568795 17.0796563,13.9586652 17.0796563,14.8243795 C17.0796563,15.6899598 16.3778705,16.3917455 15.5122902,16.3917455 M15.5122902,12.0335759 C13.9710402,12.0335759 12.7216205,13.2831295 12.7216205,14.8243795 C12.7216205,16.3656295 13.9710402,17.6150491 15.5122902,17.6150491 C17.0535402,17.6150491 18.3030938,16.3656295 18.3030938,14.8243795 C18.3030938,13.2831295 17.0535402,12.0335759 15.5122902,12.0335759" id="Fill-7" fill="#4E4E54"></path>
                    <path d="M16.0207366,8.20797321 L14.7710491,8.22658929 L12.6761384,5.57975893 L9.87020089,5.56047321 L9.87020089,5.46364286 L9.87020089,2.44984821 L15.2664509,2.44984821 L16.7679241,5.91297321 L16.7968527,6.51725893 L16.0207366,8.20797321 Z M6.26203125,9.8405625 C6.07252232,9.8405625 5.84752232,9.68333036 5.75926339,9.48926786 L4.74247768,7.25359821 C4.65421875,7.05940179 4.73618304,6.9021693 4.92569196,6.9021693 C5.11506696,6.90190179 5.34006696,7.05926786 5.42845982,7.25319643 L6.44511161,9.48913393 C6.53350446,9.68319643 6.45140625,9.84042857 6.26203125,9.8405625 L6.26203125,9.8405625 Z M5.13957589,9.84083044 C4.95020089,9.84096429 4.72506696,9.68373214 4.63680804,9.48966964 L3.62002232,7.25373214 C3.53176339,7.05980357 3.61372768,6.9024375 3.80323661,6.90230357 C3.99261161,6.90230357 4.21774554,7.05953571 4.30600446,7.25373214 L5.32279018,9.48940179 C5.41104911,9.68346429 5.32908482,9.84083044 5.13957589,9.84083044 L5.13957589,9.84083044 Z M4.01725446,9.84123214 C3.82774554,9.84123214 3.60261161,9.684 3.51435268,9.4899375 L2.49756696,7.25413393 C2.40930804,7.06020536 2.49127232,6.90270536 2.68078125,6.90270536 C2.87029018,6.90270536 3.09529018,7.0599375 3.18354911,7.25386607 L4.20033482,9.48980357 C4.28859375,9.68386607 4.20662946,9.84123214 4.01725446,9.84123214 L4.01725446,9.84123214 Z M2.89466518,9.84150009 C2.70529018,9.84163393 2.48015625,9.68440179 2.39189732,9.49033929 L1.37511161,7.25466964 C1.28685268,7.06047321 1.36895089,6.90310706 1.55832589,6.90310706 C1.74783482,6.90297321 1.97283482,7.06033929 2.06109375,7.25426786 L3.07787946,9.49007143 C3.16613839,9.68413393 3.08417411,9.84150009 2.89466518,9.84150009 L2.89466518,9.84150009 Z M17.7473438,5.68516071 L15.9156027,1.46091964 L8.88100446,1.46091964 L8.88100446,5.46364286 L1.18707589,5.46364286 C0.704129464,5.46364286 0.31265625,6.13998214 0.31265625,6.97449107 L0.31265625,9.76917857 C0.31265625,10.6035536 0.704129464,11.2800268 1.18707589,11.2800268 L8.88100446,11.2800268 L13.1191741,11.2800268 L15.6990402,11.2800268 L17.7963616,6.71078571 L17.7473438,5.68516071 Z" id="Fill-9" fill="#FE6B46"></path>
                    <polygon id="Fill-11" fill="#FE6B46" points="11.405625 12.6048616 7.00808036 12.6048616 6.60816964 11.7253527 11.8054018 11.7253527"></polygon>
                    <g id="Group-15" transform="translate(17.678571, 0.070446)">
                        <mask id="mask-2" fill="white">
                            <use xlink:href="#path-1"></use>
                        </mask>
                        <g id="Clip-14"></g>
                        <path d="M9.98132143,11.9933437 L9.98132143,11.9933437 C10.0023482,11.9857098 10.0239107,11.979817 10.0461429,11.9753973 C10.0694464,11.9712455 10.0931518,11.9681652 10.1176607,11.9681652 C10.1401607,11.9681652 10.1617232,11.9712455 10.1831518,11.9747277 L10.1832857,11.9747277 C10.375875,12.0063348 10.5231964,12.1722723 10.5231964,12.3738348 C10.5231964,12.5978973 10.3417232,12.7793705 10.1176607,12.7793705 C9.89359821,12.7793705 9.712125,12.5978973 9.712125,12.3738348 C9.712125,12.1977187 9.82475893,12.0495937 9.98132143,11.9933437 L9.98132143,11.9933437 Z M10.8077946,4.66731696 C10.8107411,4.66879018 10.8136875,4.67079911 10.8162321,4.67213839 C10.9960982,4.77820982 11.178375,4.85441518 11.3494018,4.90035268 L10.6784196,9.33352232 L10.8947143,9.36365625 L10.5621696,11.561558 C10.5178393,11.537317 10.4709643,11.5173616 10.4224821,11.5003527 L10.8077946,4.66731696 Z M8.24547321,4.17352232 C8.33533929,4.27919196 8.43525,4.33905804 8.53971429,4.33905804 L9.24966964,12.0540134 C9.21283929,12.1537902 9.1918125,12.2612009 9.1918125,12.3738348 C9.1918125,12.5453973 9.23935714,12.705308 9.32078571,12.8431205 C9.48163393,13.1166027 9.77788393,13.3006205 10.1180625,13.3006205 C10.3725268,13.3006205 10.6022143,13.1976295 10.7693571,13.031558 C10.7693571,13.0314241 10.7692232,13.0312902 10.7692232,13.0312902 C10.7893125,13.0114687 10.8081964,12.990442 10.8264107,12.9688795 L10.8324375,12.9616473 C10.8679286,12.9186562 10.8992679,12.8724509 10.9267232,12.823433 C10.9298036,12.817942 10.93275,12.812183 10.9356964,12.806558 C11.0042679,12.677317 11.0435089,12.5302634 11.0435089,12.3738348 C11.0435089,12.1777634 10.9823036,11.9962902 10.878375,11.8468259 L11.2465446,9.41280804 L11.4627054,9.44320982 L12.1815,4.69142411 C12.1904732,4.66129018 12.1950268,4.62901339 12.1960982,4.59539732 L12.1987768,4.57678125 L12.1967679,4.57624554 C12.1888661,4.28870089 11.8884643,3.90646875 11.4272143,3.63472768 C11.2423929,3.52584375 11.0544911,3.44883482 10.8791786,3.40303125 L11.0037321,1.20084375 C11.0037321,1.20084375 10.5545357,-0.475941964 9.76395536,0.242450893 C9.45297321,0.525040179 9.19810714,0.765040179 9.0024375,0.95240625 C8.87694643,0.679459821 8.71569643,0.515933036 8.53971429,0.515933036 C8.36319643,0.515933036 8.20114286,0.682004464 8.07511607,0.958299107 L5.0949375,2.15588839 L4.99408929,1.91227232 L0.0178392857,3.54164732 L0.3980625,4.41847768 L5.36011607,2.79472768 L5.25886607,2.55151339 L7.90757143,1.48745089 C7.85185714,1.74566518 7.81904464,2.04124554 7.81435714,2.35597768 C7.65069643,2.33133482 7.47846429,2.34687054 7.31266071,2.40941518 C6.53292857,2.70392411 2.09199107,4.03986161 0.511232143,4.67937054 L0.818464286,5.38838839 L0.881410714,6.70129018 C1.83297321,6.30137946 6.06551786,5.03066518 8.02288393,4.29204911 C8.10391071,4.26178125 8.17730357,4.22093304 8.24547321,4.17352232 L8.24547321,4.17352232 Z" id="Fill-13" fill="#FE6B46" mask="url(#mask-2)"></path>
                    </g>
                    <path d="M28.6052411,12.8939063 C28.6083214,12.8882813 28.6112679,12.8826563 28.6142143,12.8770313 C28.6112679,12.8826563 28.6083214,12.8882813 28.6052411,12.8939063" id="Fill-16" fill="#848484"></path>
                    <path d="M27.7967009,13.3710268 C27.4565223,13.3710268 27.1602723,13.1870089 26.9992902,12.9135268 C26.999558,12.9140625 26.999692,12.9144643 26.9999598,12.915 L23.9549598,15.2955804 L23.5320134,15.1783929 C23.4242009,15.140625 23.3388884,15.3033482 23.4462991,15.3408482 L24.2999598,15.8189732 C24.3892902,15.8496429 24.4839777,15.8157589 24.5356741,15.7427679 C26.2989777,16.3880357 27.3965223,16.4744196 28.2367902,15.6665625 C28.8136205,15.1119643 28.8643795,13.8573214 28.4478616,13.1019643 C28.2808527,13.2680357 28.0510312,13.3710268 27.7967009,13.3710268" id="Fill-18" fill="#4E4E54"></path>
                    <path d="M28.5049955,13.0393527 L28.5110223,13.0321205 L28.5049955,13.0393527 Z" id="Fill-20" fill="#848484"></path>
                </g>
            </g>
        </g>
    </g>
</svg>