<?xml version="1.0" encoding="UTF-8"?>
<svg width="122px" height="80px" viewBox="0 0 122 80" version="1.1" xmlns="http://www.w3.org/2000/svg" xmlns:xlink="http://www.w3.org/1999/xlink">
    <title>Group 18</title>
    <defs>
        <polygon id="path-1" points="0.206214634 0.05 45.5966585 0.05 45.5966585 49.6888764 0.206214634 49.6888764"></polygon>
    </defs>
    <g id="Page-1" stroke="none" stroke-width="1" fill="none" fill-rule="evenodd">
        <g id="mieten-bei-flexcavo" transform="translate(-266.000000, -424.000000)">
            <g id="Group-18" transform="translate(266.000000, 424.000000)">
                <path d="M14,70 C14,72.2089205 12.2090506,74 10.0002905,74 C7.79094937,74 6,72.2089205 6,70 C6,67.7910795 7.79094937,66 10.0002905,66 C12.2090506,66 14,67.7910795 14,70" id="Fill-1" fill="#FE6B46"></path>
                <path d="M74,70 C74,72.2089205 72.2095017,74 70,74 C67.7904983,74 66,72.2089205 66,70 C66,67.7910795 67.7904983,66 70,66 C72.2095017,66 74,67.7910795 74,70" id="Fill-3" fill="#FE6B46"></path>
                <path d="M9.94662888,64.0622608 C6.68993281,64.0622608 4.0406946,66.7262057 4.0406946,70.0002835 C4.0406946,73.2743614 6.68993281,75.9377392 9.94662888,75.9377392 L70.0528071,75.9377392 C73.3095032,75.9377392 75.9593054,73.2743614 75.9593054,70.0002835 C75.9593054,66.7262057 73.3095032,64.0622608 70.0528071,64.0622608 L9.94662888,64.0622608 Z M9.94662888,80 C4.46145928,80 0,75.5147288 0,70.0002835 C0,64.4858382 4.46145928,60 9.94662888,60 L70.0528071,60 C75.5379767,60 80,64.4858382 80,70.0002835 C80,75.5147288 75.5379767,80 70.0528071,80 L9.94662888,80 Z" id="Fill-5" fill="#FFFFFF"></path>
                <path d="M57.7963417,40.0378544 L51.9473883,32.4262434 L38.8844051,32.4262434 L38.8844051,20.4169637 C38.8844051,18.6945623 40.8067132,17.2375375 43.082029,17.2375375 L64.2670187,17.2375375 C65.8295305,19.2903865 68.3102018,25.3482148 70.74901,32.4262434 L70.7818216,40.0378544 L57.7963417,40.0378544 Z M23.0211201,35.2005319 L6.04902885,35.2005319 C5.51159721,35.2005319 5.07712616,34.7654049 5.07712616,34.2295592 C5.07712616,33.6925819 5.51159721,33.2585865 6.04902885,33.2585865 L23.0211201,33.2585865 C23.5574203,33.2585865 23.9913257,33.6925819 23.9913257,34.2295592 C23.9913257,34.7654049 23.5574203,35.2005319 23.0211201,35.2005319 L23.0211201,35.2005319 Z M23.0211201,39.5518022 L6.04902885,39.5518022 C5.51159721,39.5518022 5.07712616,39.1166752 5.07712616,38.5808295 C5.07712616,38.044418 5.51159721,37.609291 6.04902885,37.609291 L23.0211201,37.609291 C23.5574203,37.609291 23.9913257,38.044418 23.9913257,38.5808295 C23.9913257,39.1166752 23.5574203,39.5518022 23.0211201,39.5518022 L23.0211201,39.5518022 Z M23.0211201,43.9019408 L6.04902885,43.9019408 C5.51159721,43.9019408 5.07712616,43.4679455 5.07712616,42.9320998 C5.07712616,42.3956883 5.51159721,41.9599955 6.04902885,41.9599955 L23.0211201,41.9599955 C23.5574203,41.9599955 23.9913257,42.3956883 23.9913257,42.9320998 C23.9913257,43.4679455 23.5574203,43.9019408 23.0211201,43.9019408 L23.0211201,43.9019408 Z M23.0211201,48.2543428 L6.04902885,48.2543428 C5.51159721,48.2543428 5.07712616,47.8192158 5.07712616,47.2828043 C5.07712616,46.7469586 5.51159721,46.3123974 6.04902885,46.3123974 L23.0211201,46.3123974 C23.5574203,46.3123974 23.9913257,46.7469586 23.9913257,47.2828043 C23.9913257,47.8192158 23.5574203,48.2543428 23.0211201,48.2543428 L23.0211201,48.2543428 Z M74.2411842,29.5766989 C71.3848765,21.4247157 67.8502734,13 65.4465397,13 L43.082029,13 C38.4233453,13 34.6471808,16.3197533 34.6471808,20.4169637 L34.6471808,32.4262434 L28.029983,32.4262434 C28.0526117,32.2276354 28.0678861,32.0261982 28.0678861,31.8196684 C28.0678861,29.6191365 26.7339242,27.8339275 25.0899491,27.8339275 L3.97963417,27.8339275 C2.33396191,27.8339275 1,29.6191365 1,31.8196684 C1,32.0261982 1.01584009,32.2276354 1.03960023,32.4262434 L1,32.4262434 L1,53 L79,53 L79,42.2146212 L74.2411842,29.5766989 Z" id="Fill-7" fill="#FE6B46"></path>
                <path d="M96.9867633,77.8888002 L92.1406435,57 L88.8960385,57 C88.8960385,57 86.6669031,59.3934608 85.6821879,63.378373 L80,63.378373 C81.270049,65.4319509 82.0058801,67.8511171 82.0058801,70.4405103 C82.0058801,70.83923 81.9853771,71.2328086 81.9512054,71.6223887 L85.8644371,71.6223887 C86.4208667,73.5811421 87.3793835,75.681561 88.8960385,77.8888002 C97.6872836,78.1389997 96.9867633,77.8888002 96.9867633,77.8888002" id="Fill-9" fill="#FE6B46"></path>
                <polygon id="Fill-11" fill="#FE6B46" points="48.3077359 58 29.6922641 58 28 54 50 54"></polygon>
                <g id="Group-15" transform="translate(76.000000, 0.000000)">
                    <mask id="mask-2" fill="white">
                        <use xlink:href="#path-1"></use>
                    </mask>
                    <g id="Clip-14"></g>
                    <path d="M33.9410439,8.44 C33.3436049,8.35011236 32.7136293,8.40685393 32.1077756,8.63606742 C28.5915805,9.9652809 10.9320683,16.6534831 8.53165366,17.8495506 C7.96899512,18.1310112 7.4153122,18.4770787 6.88462927,18.8534831 C6.83021463,18.3473034 6.74101951,17.8697753 6.61816585,17.4304494 L24.9710439,10.0461798 L24.601922,9.15573034 L34.2821171,5.26191011 C34.077922,6.20629213 33.9584341,7.28831461 33.9410439,8.44 M41.1652878,44.137191 C42.0953854,44.137191 42.8487756,44.8916854 42.8487756,45.8225843 C42.8487756,46.7534831 42.0953854,47.5085393 41.1652878,47.5085393 C40.2357512,47.5085393 39.482361,46.7534831 39.482361,45.8225843 C39.482361,44.8916854 40.2357512,44.137191 41.1652878,44.137191 M35.5162634,15.0922472 C35.8455561,15.4793258 36.2101902,15.698427 36.5922146,15.698427 L39.0638732,42.6034831 C38.0165317,43.2905618 37.3231659,44.4753933 37.3231659,45.8225843 C37.3231659,46.5377528 37.5217512,47.2051685 37.8611415,47.7793258 L37.8420683,47.7944944 C38.5124341,48.9276404 39.7448976,49.6888764 41.1557512,49.6888764 C42.2171171,49.6888764 43.1763854,49.2574157 43.8731171,48.5619101 C43.8719951,48.5602247 43.8708732,48.5574157 43.8697512,48.5557303 C44.5720927,47.8579775 45.0079707,46.8916854 45.0079707,45.8225843 C45.0079707,44.5461798 44.3841659,43.4169663 43.4282634,42.7175281 L45.5969951,4.21247191 C45.5969951,4.21247191 43.9555805,-1.92460674 41.0665561,0.704606742 C39.9294585,1.7388764 38.9988,2.61696629 38.2829951,3.30292135 C37.824678,2.30404494 37.2356537,1.70573034 36.5922146,1.70573034 C35.9465317,1.70573034 35.3547024,2.31359551 34.8941415,3.32539326 L24.0028,7.70853933 L23.633678,6.8158427 L3.96194634,14.7310112 C3.82675122,14.7647191 3.69436098,14.8186517 3.56701951,14.8905618 L3.4868,14.9225843 L3.49072683,14.9310112 C2.41421463,15.6051685 1.63389756,17.6062921 1.63389756,19.9697753 C1.63389756,21.281573 1.8745561,22.4782022 2.27284878,23.4017978 L0.206214634,26.8270787 C0.446873171,27.49 0.690336585,28.1703371 0.936604878,28.8737079 L5.81653171,41.8489888 C5.81653171,41.8489888 11.1171902,24.7877528 11.8077512,24.4444944 C13.4037268,23.6489888 26.6982878,18.5517978 34.7028488,15.5259551 C34.9990439,15.4152809 35.2677512,15.2658427 35.5162634,15.0922472" id="Fill-13" fill="#FE6B46" mask="url(#mask-2)"></path>
                </g>
                <path d="M117.168123,48.9157401 C115.763434,48.9157401 114.536356,48.1464898 113.868919,47 L101.306588,56.9900277 L99.5589647,56.4968893 C99.1132622,56.3395169 98.7608332,57.0229793 99.2043016,57.1803518 L102.731942,59.1898336 C103.100568,59.3187995 103.492094,59.1767665 103.70545,58.8694073 C110.991401,61.5822361 115.526061,61.9447041 118.997849,58.5495491 C121.380514,56.2196411 121.590519,50.9513559 119.873057,47.7760679 C119.179928,48.4794149 118.224851,48.9157401 117.168123,48.9157401" id="Fill-16" fill="#FFFFFF"></path>
            </g>
        </g>
    </g>
</svg>