<?xml version="1.0" encoding="UTF-8"?>
<svg width="90px" height="93px" viewBox="0 0 90 93" version="1.1" xmlns="http://www.w3.org/2000/svg" xmlns:xlink="http://www.w3.org/1999/xlink">
    <title>project (1)</title>
    <g id="Page-1" stroke="none" stroke-width="1" fill="none" fill-rule="evenodd">
        <g id="funktione" transform="translate(-1094.000000, -323.000000)" fill-rule="nonzero">
            <g id="project-(1)" transform="translate(1094.000000, 323.000000)">
                <path d="M79.9371529,57.0537186 L83.9819956,51.6593313 L79.5906687,47.2680044 L74.1977977,51.3128471 C72.3827362,50.1558782 70.37889,49.3241643 68.2772398,48.8548564 L67.3242188,42.1875 L61.1132813,42.1875 L60.1617765,48.8548564 C58.0601263,49.3241643 56.05628,50.1558782 54.2412186,51.3128471 L48.8468313,47.2680044 L44.4555044,51.6593313 L48.5003471,57.0537186 C47.3433782,58.86878 46.5116643,60.8726263 46.0423564,62.9742765 L39.375,63.9257813 L39.375,70.1367188 L46.0423564,71.0882235 C46.5116643,73.1898737 47.3433782,75.19372 48.5003471,77.0087814 L44.4555044,82.4031687 L48.8468313,86.7944956 L54.2397023,82.7496529 C56.0547638,83.9066218 58.05861,84.7383357 60.1602602,85.2076436 L61.1132812,91.875 L67.3242187,91.875 L68.2757235,85.2076436 C70.3773737,84.7383357 72.38122,83.9066218 74.1962814,82.7496529 L79.5906687,86.7944956 L83.9819956,82.4031687 L79.9371529,77.0102977 C81.0941218,75.1952362 81.9258357,73.19139 82.3951436,71.0897398 L89.0625,70.1367188 L89.0625,63.9257813 L82.3951436,62.9742765 C81.9258357,60.8726263 81.0941218,58.86878 79.9371529,57.0537186 L79.9371529,57.0537186 Z M64.21875,77.9003906 C58.2155513,77.9003906 53.3496094,73.0344487 53.3496094,67.03125 C53.3496094,61.0280513 58.2155513,56.1621094 64.21875,56.1621094 C70.2219487,56.1621094 75.0878906,61.0280513 75.0878906,67.03125 C75.0878906,73.0344487 70.2219487,77.9003906 64.21875,77.9003906 Z" id="Shape" fill="#FFFFFF"></path>
                <g id="Group">
                    <path d="M88.6687602,61.8901062 L83.0361833,61.087967 C82.6020339,59.5478898 81.9845265,58.0652161 81.1957839,56.6731796 L84.6091224,52.1299895 C85.0720636,51.514412 85.0114494,50.6541138 84.466679,50.1095353 L80.0766939,45.7332687 C79.5304082,45.1902009 78.6674132,45.1297761 78.0499057,45.5912704 L73.4924737,48.9939422 C72.0960734,48.2076644 70.6087521,47.5920867 69.063847,47.1592941 L68.2584354,41.5443192 C68.1485722,40.7837219 67.4946962,40.2195053 66.7241379,40.21875 L65.1724138,40.21875 L65.1724138,7.734375 C65.16711,3.46460729 61.6969457,0.00528718008 57.4137931,0 L7.75862069,0 C3.47546812,0.00528718008 0.00530375431,3.46460729 0,7.734375 L0,75.796875 C0.00530375431,80.0666427 3.47546812,83.5259628 7.75862069,83.53125 L43.3846309,83.53125 L47.1631702,87.2979813 C47.7094558,87.8410491 48.5724509,87.9014739 49.1899581,87.4399796 L53.7473902,84.0373078 C55.1437904,84.8235856 56.631112,85.4391633 58.1760171,85.8719559 L58.9806708,91.4869308 C59.0912919,92.2482833 59.7459255,92.8125 60.5172414,92.8125 L66.7241379,92.8125 C67.4962117,92.8125 68.1508453,92.2467728 68.2607085,91.4854203 L69.0653622,85.8704452 C70.6102673,85.4376526 72.0975889,84.8220748 73.4939891,84.0357971 L78.0514212,87.4384689 C78.6689284,87.8999634 79.5319235,87.8395386 80.0782091,87.2964706 L84.4681944,82.9202042 C85.0129646,82.3756257 85.0735788,81.5153275 84.6106378,80.8997498 L81.1972994,76.3565597 C81.9860419,74.9645232 82.6035494,73.4818497 83.0376987,71.9417725 L88.6702754,71.1388778 C89.433257,71.0293579 90,70.3775253 90,69.609375 L90,63.421875 C90,62.652214 89.4324994,61.9996261 88.6687602,61.8901062 L88.6687602,61.8901062 Z M86.8965517,68.2679443 L81.5647731,69.0262756 C80.925293,69.1169128 80.4093145,69.5935135 80.2691439,70.2219315 C79.8418137,72.1404191 79.0803475,73.9697799 78.018841,75.6269303 C77.6740975,76.1692428 77.7013739,76.8679046 78.0877897,77.3822709 L81.3215584,81.684517 L78.8386483,84.1589127 L74.5229155,80.9352494 C74.006937,80.5507966 73.306085,80.5236053 72.7620723,80.8672714 C71.0997273,81.9254607 69.2646316,82.6845475 67.3401299,83.1105423 C66.709742,83.2502747 66.2316475,83.7646408 66.1407261,84.4021224 L65.3785022,89.71875 L61.8628772,89.71875 L61.1021686,84.4036332 C61.0112473,83.7661515 60.5331526,83.2517854 59.9027646,83.1120529 C57.978263,82.686058 56.1431675,81.9269714 54.4808223,80.8687821 C53.9368097,80.525116 53.2359578,80.5523071 52.7199791,80.9375154 L48.4042463,84.1611785 L45.9220938,81.6860275 L49.1558627,77.3837814 C49.5415206,76.8694153 49.5687972,76.1707535 49.2240538,75.6284408 C48.1625472,73.9712906 47.4010809,72.1419296 46.9737506,70.223442 C46.8335803,69.5950241 46.3176017,69.1184236 45.6781217,69.0277864 L40.3448276,68.2679443 L40.3448276,64.7633057 L45.6766062,64.0049744 C46.3160863,63.9143372 46.8320648,63.4377365 46.9722354,62.8093185 C47.3995656,60.8908309 48.1610318,59.0614701 49.2225383,57.4043197 C49.5672818,56.8620072 49.5400054,56.1633454 49.1535896,55.6489791 L45.9198209,51.346733 L48.4027311,48.8723373 L52.7184638,52.0960006 C53.2344423,52.4804534 53.9352943,52.5076448 54.479307,52.1639786 C56.141652,51.1057893 57.9767478,50.3467025 59.9012494,49.9207077 C60.5316373,49.7809753 61.0097319,49.2666092 61.1006532,48.6291276 L61.8628772,43.3125 L65.3785022,43.3125 L66.1392107,48.6276168 C66.230132,49.2650985 66.7082267,49.7794646 67.3386147,49.9191971 C69.2631163,50.345192 71.0982118,51.1042786 72.760557,52.1624679 C73.3045696,52.506134 74.0054215,52.4789429 74.5214002,52.0937346 L78.837133,48.8700715 L81.3192855,51.3452225 L78.0855166,55.6474686 C77.6998587,56.1618347 77.6725821,56.8604965 78.0173255,57.4028092 C79.0788321,59.0599594 79.8402984,60.8893204 80.2676287,62.807808 C80.407799,63.4362259 80.9237776,63.9128264 81.5632576,64.0034636 L86.8950365,64.7617951 L86.8965517,68.2679443 Z" id="Shape" fill="#FE6B46"></path>
                    <path d="M63.6206897,54.140625 C56.7644633,54.140625 51.2068966,59.6808243 51.2068966,66.515625 C51.2068966,73.3504257 56.7644633,78.890625 63.6206897,78.890625 C70.476916,78.890625 76.0344828,73.3504257 76.0344828,66.515625 C76.0269061,59.6846008 70.4731277,54.148178 63.6206897,54.140625 Z M63.6206897,75.796875 C58.4790882,75.796875 54.3103448,71.641159 54.3103448,66.515625 C54.3103448,61.390091 58.4790882,57.234375 63.6206897,57.234375 C68.7622911,57.234375 72.9310345,61.390091 72.9310345,66.515625 C72.9257307,71.6396484 68.7607759,75.7915878 63.6206897,75.796875 Z" id="Shape" fill="#FFFFFF"></path>
                    <polygon id="Path" fill="#343C44" points="9.31034483 9.28125 15.5172414 9.28125 15.5172414 12.375 9.31034483 12.375"></polygon>
                    <polygon id="Path" fill="#343C44" points="18.6206897 9.28125 34.137931 9.28125 34.137931 12.375 18.6206897 12.375"></polygon>
                    <polygon id="Path" fill="#343C44" points="9.31034483 15.46875 34.137931 15.46875 34.137931 18.5625 9.31034483 18.5625"></polygon>
                    <polygon id="Path" fill="#343C44" points="9.31034483 27.84375 52.7586207 27.84375 52.7586207 30.9375 9.31034483 30.9375"></polygon>
                    <polygon id="Path" fill="#343C44" points="9.31034483 37.125 43.4482759 37.125 43.4482759 40.21875 9.31034483 40.21875"></polygon>
                    <polygon id="Path" fill="#343C44" points="46.5517241 37.125 52.7586207 37.125 52.7586207 40.21875 46.5517241 40.21875"></polygon>
                    <polygon id="Path" fill="#343C44" points="9.31034483 46.40625 40.3448276 46.40625 40.3448276 49.5 9.31034483 49.5"></polygon>
                    <polygon id="Path" fill="#343C44" points="9.31034483 58.78125 21.7241379 58.78125 21.7241379 61.875 9.31034483 61.875"></polygon>
                    <polygon id="Path" fill="#343C44" points="9.31034483 64.96875 21.7241379 64.96875 21.7241379 68.0625 9.31034483 68.0625"></polygon>
                </g>
            </g>
        </g>
    </g>
</svg>