<?xml version="1.0" encoding="UTF-8"?>
<svg width="34px" height="17px" viewBox="0 0 34 17" version="1.1" xmlns="http://www.w3.org/2000/svg" xmlns:xlink="http://www.w3.org/1999/xlink">
    <title>8538727D-0937-4F5E-A2E8-28D1DE9461F1</title>
    <defs>
        <polygon id="path-1" points="0 16.0097851 33.896595 16.0097851 33.896595 0 0 0"></polygon>
    </defs>
    <g id="Page-1" stroke="none" stroke-width="1" fill="none" fill-rule="evenodd">
        <g id="Homepage-step-1" transform="translate(-256.000000, -861.000000)">
            <g id="Group-21" transform="translate(226.000000, 486.000000)">
                <g id="Group-16" transform="translate(30.000000, 375.000000)">
                    <path d="M19.7738521,12.0837686 C19.7738521,11.0525289 20.6098025,10.2165785 21.6413231,10.2165785 C22.6725628,10.2165785 23.5085132,11.0525289 23.5085132,12.0837686 C23.5085132,13.1150083 22.6725628,13.9512397 21.6413231,13.9512397 C20.6098025,13.9512397 19.7738521,13.1150083 19.7738521,12.0837686 M17.7150256,12.0837686 C17.7150256,14.2521818 19.4727694,16.0097851 21.6413231,16.0097851 C23.8095959,16.0097851 25.5673397,14.2521818 25.5673397,12.0837686 C25.5673397,9.91549587 23.8095959,8.15775207 21.6413231,8.15775207 C19.4727694,8.15775207 17.7150256,9.91549587 17.7150256,12.0837686" id="Fill-1" fill="#4E4E54"></path>
                    <path d="M5.95983471,12.0837686 C5.95983471,11.0525289 6.79578512,10.2165785 7.82702479,10.2165785 C8.85826446,10.2165785 9.69449587,11.0525289 9.69449587,12.0837686 C9.69449587,13.1150083 8.85826446,13.9512397 7.82702479,13.9512397 C6.79578512,13.9512397 5.95983471,13.1150083 5.95983471,12.0837686 M3.90100826,12.0837686 C3.90100826,14.2521818 5.65875207,16.0097851 7.82702479,16.0097851 C9.99557851,16.0097851 11.7530413,14.2521818 11.7530413,12.0837686 C11.7530413,9.91549587 9.99557851,8.15775207 7.82702479,8.15775207 C5.65875207,8.15775207 3.90100826,9.91549587 3.90100826,12.0837686" id="Fill-3" fill="#4E4E54"></path>
                    <path d="M18.3902769,4.5407562 C18.4567314,4.5407562 18.5171446,4.57925207 18.5451033,4.63952479 L18.7802934,5.14643388 C18.3217149,5.15795455 18.0231612,5.16554132 18.0231612,5.16554132 C17.1752686,5.16792975 16.4858554,5.85874793 16.4858554,6.70748347 C16.4858554,7.55776446 17.177657,8.24942562 18.027938,8.24942562 C18.0876488,8.24942562 18.148062,8.24521074 18.2164835,8.2366405 C18.2218223,8.2363595 18.2271612,8.23593802 18.2323595,8.23551653 L19.964814,8.06804545 C18.3946322,8.7259876 17.2886488,10.2777645 17.2886488,12.0836983 C17.2886488,12.2875579 17.3038223,12.4877645 17.3310785,12.6841777 L16.500186,12.6841777 C16.4059132,12.6841777 16.3294835,12.6078884 16.3294835,12.5137562 L16.3294835,4.71131818 C16.3294835,4.61718595 16.4059132,4.5407562 16.500186,4.5407562 L18.3902769,4.5407562 Z" id="Fill-5" fill="#FE6B46"></path>
                    <mask id="mask-2" fill="white">
                        <use xlink:href="#path-1"></use>
                    </mask>
                    <g id="Clip-8"></g>
                    <polygon id="Fill-7" fill="#4E4E54" mask="url(#mask-2)" points="14.3398512 10.9768017 15.9247851 10.9768017 15.9247851 10.3150661 14.3398512 10.3150661"></polygon>
                    <polygon id="Fill-9" fill="#4E4E54" mask="url(#mask-2)" points="14.535843 11.5167273 15.7285124 11.5167273 15.7285124 11.1161736 14.535843 11.1161736"></polygon>
                    <polygon id="Fill-10" fill="#4E4E54" mask="url(#mask-2)" points="14.3398512 12.3176942 15.9247851 12.3176942 15.9247851 11.6559587 14.3398512 11.6559587"></polygon>
                    <path d="M2.66477107,5.72028926 C2.66477107,5.62615702 2.74120083,5.54986777 2.83519256,5.54986777 L5.60661405,5.54986777 C5.70060579,5.54986777 5.77703554,5.62615702 5.77703554,5.72028926 C5.77703554,5.81456198 5.70060579,5.89085124 5.60661405,5.89085124 L2.83519256,5.89085124 C2.74120083,5.89085124 2.66477107,5.81456198 2.66477107,5.72028926 L2.66477107,5.72028926 Z M2.66477107,6.53052893 C2.66477107,6.4362562 2.74120083,6.35996694 2.83519256,6.35996694 L5.60661405,6.35996694 C5.70060579,6.35996694 5.77703554,6.4362562 5.77703554,6.53052893 C5.77703554,6.62466116 5.70060579,6.70095041 5.60661405,6.70095041 L2.83519256,6.70095041 C2.74120083,6.70095041 2.66477107,6.62466116 2.66477107,6.53052893 L2.66477107,6.53052893 Z M2.66477107,7.3404876 C2.66477107,7.24635537 2.74120083,7.16992562 2.83519256,7.16992562 L5.60661405,7.16992562 C5.70060579,7.16992562 5.77703554,7.24635537 5.77703554,7.3404876 C5.77703554,7.43461983 5.70060579,7.51104959 5.60661405,7.51104959 L2.83519256,7.51104959 C2.74120083,7.51104959 2.66477107,7.43461983 2.66477107,7.3404876 L2.66477107,7.3404876 Z M9.54344876,1.36435537 L13.5397132,1.36435537 C13.7077463,2.02075207 13.9779198,3.15061983 14.126986,4.15783471 C14.2847628,5.22335537 14.3411017,6.89469421 14.3609116,7.90190909 L13.0201595,7.90190909 L12.3179612,5.33013223 C12.2995562,5.26241322 12.2412504,5.21295868 12.1715645,5.2053719 L9.54344876,4.92494215 L9.54344876,1.36435537 Z M-1.40495868e-05,8.59132231 L-1.40495868e-05,11.0640496 C-1.40495868e-05,11.1247438 0.0321595041,11.1808017 0.0845644628,11.2114298 L2.57190331,12.6610661 C2.59775455,12.6762397 2.62725868,12.6841074 2.65746529,12.6841074 L3.5171595,12.6841074 C3.48976281,12.4878347 3.47487025,12.2874876 3.47487025,12.0837686 C3.47487025,9.68367769 5.42706033,7.73134711 7.82701074,7.73134711 C10.2271017,7.73134711 12.1797132,9.68367769 12.1797132,12.0837686 C12.1797132,12.2874876 12.1642587,12.4878347 12.1372835,12.6841074 L13.6577298,12.6841074 C13.7517215,12.6841074 13.8281512,12.6078182 13.8281512,12.5138264 L13.8281512,9.8702562 L15.2635975,9.8702562 C15.3580107,9.8702562 15.4344405,9.79396694 15.4344405,9.69983471 C15.4344405,9.66653719 15.4314901,6.37036364 15.1911017,4.56105785 C15.0431595,3.44819008 14.7853496,2.23528926 14.5946967,1.41395041 C14.5932917,1.4074876 14.5914653,1.40116529 14.5890769,1.39498347 C14.5894983,1.39512397 14.5894983,1.39526446 14.5894983,1.39526446 C14.5900603,1.39526446 14.5890769,1.38599174 14.5890769,1.37854545 C14.5890769,1.36828926 14.5930107,1.36309091 14.5938537,1.36238843 C14.6005975,1.36238843 14.6076223,1.36196694 14.6139446,1.36126446 C14.9629364,1.33021488 15.2352174,1.03306612 15.2352174,0.682247934 C15.2352174,0.306 14.9292174,0.000140495868 14.5528289,0.000140495868 L8.56264711,0.000140495868 C8.18668017,0.000140495868 7.88068017,0.306 7.88068017,0.682247934 C7.88068017,1.02927273 8.13553967,1.31616529 8.47722562,1.35887603 C8.48340744,1.36028099 8.49015124,1.36140496 8.49661405,1.36210744 C8.49563058,1.37587603 8.49661405,1.38936364 8.49872149,1.40257025 L8.49872149,5.00980165 L2.16010992,5.00980165 C2.09969669,5.00980165 2.04349835,5.04197521 2.01272975,5.09438017 L0.0231677686,8.50533884 C0.00785371901,8.53147107 -1.40495868e-05,8.56097521 -1.40495868e-05,8.59132231 L-1.40495868e-05,8.59132231 Z" id="Fill-11" fill="#FE6B46" mask="url(#mask-2)"></path>
                    <path d="M24.6365967,6.36631736 C24.6365967,5.81304463 24.1878529,5.36458182 23.6345802,5.36458182 L18.0279521,5.50662314 C17.3645306,5.50662314 16.8271339,6.04430083 16.8271339,6.70744132 C16.8271339,7.37058182 17.3645306,7.9084 18.0279521,7.9084 C18.0862579,7.9084 18.1431587,7.90292066 18.1994975,7.8946314 L18.1994975,7.89603636 L23.6954149,7.36524298 C23.7207041,7.36369752 23.7461339,7.36130909 23.7710017,7.35793719 L23.7916545,7.35597025 L23.7913736,7.35484628 C24.2701835,7.2794 24.6365967,6.86620165 24.6365967,6.36631736" id="Fill-12" fill="#FE6B46" mask="url(#mask-2)"></path>
                    <path d="M29.1819893,11.2838835 L24.9759645,6.39799917 C24.9614934,7.03739587 24.5060058,7.57198264 23.8764438,7.68648678 C23.8597248,7.69070165 23.8421628,7.69379256 23.8240388,7.69547851 L23.8101298,7.69688347 C23.7811876,7.70067686 23.751824,7.70348678 23.7223198,7.70545372 L23.5298405,7.72399917 L27.9620636,12.5348587 C28.120543,12.6929165 28.339014,12.7909826 28.5802455,12.7909826 C29.0629893,12.7909826 29.4544107,12.3995612 29.4544107,11.9168174 C29.4544107,11.7322058 29.3966669,11.5610818 29.2987413,11.4198835 L29.2990223,11.4198835 L29.2981793,11.4189 C29.2641793,11.3700074 29.224981,11.3247678 29.1819893,11.2838835" id="Fill-13" fill="#FE6B46" mask="url(#mask-2)"></path>
                    <path d="M26.2731488,7.13849669 C26.2720248,7.13540579 26.2701983,7.13203388 26.2692149,7.12922397 C26.181686,6.92831488 25.5977851,5.12308347 25.5719339,4.93903388 L20.8702397,5.07250496 L20.8665868,4.84349669 L18.5354793,4.90938926 L18.3903471,4.5407281 L20.8602645,4.47076116 L20.8560496,4.24189339 L25.8954959,4.09943058 C25.9279504,4.09381074 25.9622314,4.09324876 25.9973554,4.09633967 L26.0171653,4.09605868 L26.0174463,4.09816612 C26.3158595,4.1429843 26.6753884,4.50462066 26.8996198,5.01939752 C26.9895372,5.22578595 27.6144628,7.19680248 27.6397521,7.38520744 L27.0703223,8.06857934 L26.2731488,7.13849669 Z" id="Fill-14" fill="#FE6B46" mask="url(#mask-2)"></path>
                    <path d="M33.7455058,14.1966298 L33.2343818,14.3369851 C33.2343818,14.3369851 33.1179107,14.3657868 32.9741835,14.4165058 L28.8388281,7.11409256 C28.1914231,7.48078678 27.6731339,7.98769587 27.2998364,8.57454711 L29.4301752,11.0495223 C29.4855306,11.1034727 29.5352661,11.1623405 29.5792413,11.2257041 C29.7205802,11.4297041 29.795324,11.6686876 29.795324,11.9168033 C29.795324,12.5868281 29.2503405,13.1318116 28.5801752,13.1318116 C28.2559107,13.1318116 27.9507537,13.0055058 27.721043,12.776076 C27.720481,12.775514 27.5708529,12.6129603 27.3272331,12.3486876 C27.2856463,12.3142661 27.2329603,12.2923488 27.1746545,12.2923488 C27.041886,12.2923488 26.9339851,12.4002496 26.9339851,12.5331587 C26.9339851,12.5705306 26.9431174,12.6053736 26.9584314,12.6369851 L26.9581504,12.6372661 C26.9581504,12.6372661 27.0954149,12.947481 27.1815388,13.0994975 C28.2671504,15.0162826 30.576762,15.8036215 32.5726463,15.037076 C32.6296876,15.0866711 32.7034479,15.1057785 32.7774893,15.0796463 L33.8316298,14.4419355 C33.9621504,14.3950099 33.8765884,14.1497041 33.7455058,14.1966298" id="Fill-15" fill="#4E4E54" mask="url(#mask-2)"></path>
                </g>
            </g>
        </g>
    </g>
</svg>