<?xml version="1.0" encoding="UTF-8"?>
<svg width="30px" height="20px" viewBox="0 0 30 20" version="1.1" xmlns="http://www.w3.org/2000/svg" xmlns:xlink="http://www.w3.org/1999/xlink">
    <title>E0A1ED26-CBC7-49CB-84FF-7E1F3944A532</title>
    <defs>
        <polygon id="path-1" points="0.0510555556 0.0123611111 11.2890278 0.0123611111 11.2890278 12.2841944 0.0510555556 12.2841944"></polygon>
    </defs>
    <g id="Page-1" stroke="none" stroke-width="1" fill="none" fill-rule="evenodd">
        <g id="Homepage-step-1" transform="translate(-258.000000, -607.000000)">
            <g id="Group-21" transform="translate(226.000000, 486.000000)">
                <g id="Group-18" transform="translate(32.000000, 121.000000)">
                    <path d="M3.51368056,17.5383333 C3.51368056,18.06625 3.085625,18.4943056 2.55770833,18.4943056 C2.02965278,18.4943056 1.60159722,18.06625 1.60159722,17.5383333 C1.60159722,17.0104167 2.02965278,16.5823611 2.55770833,16.5823611 C3.085625,16.5823611 3.51368056,17.0104167 3.51368056,17.5383333" id="Fill-1" fill="#FE6B46"></path>
                    <path d="M18.0979028,17.5383333 C18.0979028,18.06625 17.6699861,18.4943056 17.1419306,18.4943056 C16.613875,18.4943056 16.1859583,18.06625 16.1859583,17.5383333 C16.1859583,17.0104167 16.613875,16.5823611 17.1419306,16.5823611 C17.6699861,16.5823611 18.0979028,17.0104167 18.0979028,17.5383333" id="Fill-3" fill="#FE6B46"></path>
                    <path d="M2.44936111,16.0838611 C1.64741667,16.0838611 0.995055556,16.7363611 0.995055556,17.5383056 C0.995055556,18.34025 1.64741667,18.9926111 2.44936111,18.9926111 L17.2501944,18.9926111 C18.0521389,18.9926111 18.7046389,18.34025 18.7046389,17.5383056 C18.7046389,16.7363611 18.0521389,16.0838611 17.2501944,16.0838611 L2.44936111,16.0838611 Z M17.2501944,19.9876111 L2.44936111,19.9876111 C1.09866667,19.9876111 5.55555556e-05,18.889 5.55555556e-05,17.5383056 C5.55555556e-05,16.1876111 1.09866667,15.0888611 2.44936111,15.0888611 L17.2501944,15.0888611 C18.6008889,15.0888611 19.6996389,16.1876111 19.6996389,17.5383056 C19.6996389,18.889 18.6008889,19.9876111 17.2501944,19.9876111 L17.2501944,19.9876111 Z" id="Fill-5" fill="#4E4E54"></path>
                    <path d="M14.1822222,10.0590833 L12.74625,8.19075 L9.53916667,8.19075 L9.53916667,5.24297222 C9.53916667,4.82019444 10.0111111,4.46255556 10.5697222,4.46255556 L15.7708333,4.46255556 C16.1544444,4.96644444 16.7634722,6.45338889 17.3622222,8.19075 L17.3702778,10.0590833 L14.1822222,10.0590833 Z M5.64458333,8.87172222 L1.47777778,8.87172222 C1.34583333,8.87172222 1.23916667,8.76491667 1.23916667,8.63338889 C1.23916667,8.50158333 1.34583333,8.39505556 1.47777778,8.39505556 L5.64458333,8.39505556 C5.77625,8.39505556 5.88277778,8.50158333 5.88277778,8.63338889 C5.88277778,8.76491667 5.77625,8.87172222 5.64458333,8.87172222 L5.64458333,8.87172222 Z M5.64458333,9.93977778 L1.47777778,9.93977778 C1.34583333,9.93977778 1.23916667,9.83297222 1.23916667,9.70144444 C1.23916667,9.56977778 1.34583333,9.46297222 1.47777778,9.46297222 L5.64458333,9.46297222 C5.77625,9.46297222 5.88277778,9.56977778 5.88277778,9.70144444 C5.88277778,9.83297222 5.77625,9.93977778 5.64458333,9.93977778 L5.64458333,9.93977778 Z M5.64458333,11.0075556 L1.47777778,11.0075556 C1.34583333,11.0075556 1.23916667,10.9010278 1.23916667,10.7695 C1.23916667,10.6378333 1.34583333,10.5308889 1.47777778,10.5308889 L5.64458333,10.5308889 C5.77625,10.5308889 5.88277778,10.6378333 5.88277778,10.7695 C5.88277778,10.9010278 5.77625,11.0075556 5.64458333,11.0075556 L5.64458333,11.0075556 Z M5.64458333,12.0758889 L1.47777778,12.0758889 C1.34583333,12.0758889 1.23916667,11.9690833 1.23916667,11.8374167 C1.23916667,11.7058889 1.34583333,11.5992222 1.47777778,11.5992222 L5.64458333,11.5992222 C5.77625,11.5992222 5.88277778,11.7058889 5.88277778,11.8374167 C5.88277778,11.9690833 5.77625,12.0758889 5.64458333,12.0758889 L5.64458333,12.0758889 Z M18.2195833,7.49130556 C17.5183333,5.49033333 16.6505556,3.42241667 16.0604167,3.42241667 L10.5697222,3.42241667 C9.42597222,3.42241667 8.49888889,4.23727778 8.49888889,5.24297222 L8.49888889,8.19075 L6.87430556,8.19075 C6.87986111,8.142 6.88361111,8.09255556 6.88361111,8.04186111 C6.88361111,7.50172222 6.55611111,7.06352778 6.1525,7.06352778 L0.969722222,7.06352778 C0.565694444,7.06352778 0.238194444,7.50172222 0.238194444,8.04186111 C0.238194444,8.09255556 0.242083333,8.142 0.247916667,8.19075 L0.238194444,8.19075 L0.238194444,13.24075 L19.3879167,13.24075 L19.3879167,10.5933889 L18.2195833,7.49130556 Z" id="Fill-7" fill="#FE6B46"></path>
                    <path d="M23.9363194,19.48325 L22.7545139,14.4043611 L21.9632639,14.4043611 C21.9632639,14.4043611 21.4196528,14.9863056 21.1795139,15.9551944 L19.7938194,15.9551944 C20.1035417,16.4545 20.2829861,17.0426944 20.2829861,17.6722778 C20.2829861,17.7692222 20.2779861,17.8649167 20.2696528,17.9596389 L21.2239583,17.9596389 C21.3596528,18.4358889 21.5934028,18.9465833 21.9632639,19.48325 C24.1071528,19.5440833 23.9363194,19.48325 23.9363194,19.48325" id="Fill-9" fill="#4E4E54"></path>
                    <polygon id="Fill-11" fill="#FE6B46" points="11.8194861 14.6400417 7.25893056 14.6400417 6.84434722 13.7279583 12.2340694 13.7279583"></polygon>
                    <g id="Group-15" transform="translate(18.611111, 0.126528)">
                        <mask id="mask-2" fill="white">
                            <use xlink:href="#path-1"></use>
                        </mask>
                        <g id="Clip-14"></g>
                        <path d="M8.40327778,2.08655556 C8.25536111,2.06433333 8.09938889,2.07836111 7.94938889,2.13502778 C7.07883333,2.46363889 2.70661111,4.11711111 2.11230556,4.41280556 C1.973,4.48238889 1.83591667,4.56794444 1.70452778,4.661 C1.69105556,4.53586111 1.66897222,4.41780556 1.63855556,4.30919444 L6.18244444,2.48363889 L6.09105556,2.2635 L8.48772222,1.30086111 C8.43716667,1.53433333 8.40758333,1.80183333 8.40327778,2.08655556 M10.1918889,10.9116944 C10.4221667,10.9116944 10.6086944,11.0982222 10.6086944,11.3283611 C10.6086944,11.5585 10.4221667,11.7451667 10.1918889,11.7451667 C9.96175,11.7451667 9.77522222,11.5585 9.77522222,11.3283611 C9.77522222,11.0982222 9.96175,10.9116944 10.1918889,10.9116944 M8.79327778,3.73113889 C8.87480556,3.82683333 8.96508333,3.881 9.05966667,3.881 L9.67161111,10.5325278 C9.41230556,10.7023889 9.24063889,10.9953056 9.24063889,11.3283611 C9.24063889,11.5051667 9.28980556,11.6701667 9.37383333,11.8121111 L9.36911111,11.8158611 C9.53508333,12.096 9.84022222,12.2841944 10.1895278,12.2841944 C10.4523056,12.2841944 10.6898056,12.1775278 10.8623056,12.0055833 C10.8620278,12.0051667 10.86175,12.0044722 10.8614722,12.0040556 C11.0353611,11.8315556 11.1432778,11.5926667 11.1432778,11.3283611 C11.1432778,11.0128056 10.9888333,10.7336389 10.7521667,10.5607222 L11.2891111,1.04141667 C11.2891111,1.04141667 10.8827222,-0.475805556 10.1674444,0.174194444 C9.88591667,0.429888889 9.6555,0.646972222 9.47827778,0.816555556 C9.36480556,0.569611111 9.21897222,0.421694444 9.05966667,0.421694444 C8.89980556,0.421694444 8.75327778,0.571972222 8.63925,0.822111111 L5.94272222,1.90572222 L5.85133333,1.68502778 L0.980916667,3.64183333 C0.947444444,3.65016667 0.914666667,3.6635 0.883138889,3.68127778 L0.863277778,3.68919444 L0.86425,3.69127778 C0.597722222,3.85794444 0.404527778,4.35266667 0.404527778,4.93697222 C0.404527778,5.26127778 0.464111111,5.55711111 0.562722222,5.78544444 L0.0510555556,6.63225 C0.110638889,6.79613889 0.170916667,6.96433333 0.231888889,7.13822222 L1.44008333,10.346 C1.44008333,10.346 2.75244444,6.12808333 2.92341667,6.04322222 C3.31855556,5.84655556 6.61008333,4.58641667 8.59188889,3.83836111 C8.66522222,3.811 8.73175,3.77405556 8.79327778,3.73113889" id="Fill-13" fill="#FE6B46" mask="url(#mask-2)"></path>
                    </g>
                    <path d="M28.8006806,12.4106944 C28.451375,12.4106944 28.1462361,12.2226389 27.9802639,11.9423611 L24.856375,14.3845833 L24.4217917,14.2640278 C24.3109583,14.2255556 24.2233194,14.3926389 24.3335972,14.4311111 L25.2108194,14.9223611 C25.3024861,14.9538889 25.3998472,14.9191667 25.4529028,14.8440278 C27.2647083,15.5072222 28.3923472,15.5958333 29.2556806,14.7658333 C29.8481806,14.19625 29.9004028,12.9083333 29.4733194,12.1320833 C29.3009583,12.3040278 29.0634583,12.4106944 28.8006806,12.4106944" id="Fill-16" fill="#4E4E54"></path>
                </g>
            </g>
        </g>
    </g>
</svg>