<?xml version="1.0" encoding="UTF-8"?>
<svg width="31px" height="27px" viewBox="0 0 31 27" version="1.1" xmlns="http://www.w3.org/2000/svg" xmlns:xlink="http://www.w3.org/1999/xlink">
    <title>Group 8</title>
    <defs>
        <polygon id="path-1" points="0.0772550453 0.154549439 22.9247727 0.154549439 22.9247727 2.49993716 0.0772550453 2.49993716"></polygon>
        <polygon id="path-3" points="0 26.3231818 29.9702273 26.3231818 29.9702273 0 0 0"></polygon>
    </defs>
    <g id="Page-1" stroke="none" stroke-width="1" fill="none" fill-rule="evenodd">
        <g id="Toolkit-2" transform="translate(-686.000000, -257.000000)">
            <g id="Group-8" transform="translate(686.000000, 257.000000)">
                <g id="Group-3" transform="translate(7.045455, 23.823182)">
                    <mask id="mask-2" fill="white">
                        <use xlink:href="#path-1"></use>
                    </mask>
                    <g id="Clip-2"></g>
                    <path d="M4.49061364,2.49947727 C5.67652273,2.49947727 19.3153864,2.49788636 20.5010682,2.49993716 C21.2578864,2.50129545 21.9051591,2.24175 22.4183409,1.68265909 C22.6481136,1.43265909 22.8485682,1.15402273 22.9158409,0.809931818 C22.9687955,0.540386364 22.7824318,0.261522727 22.5174318,0.181068182 C22.2337955,0.0949318182 21.9360682,0.223795455 21.8197045,0.492659091 C21.6772045,0.82175 21.4569773,1.08243182 21.1244773,1.21629545 C20.9458409,1.28811364 20.7428864,1.33061364 20.5501591,1.33197727 C19.1710682,1.34175 5.33902273,1.33720455 3.95970455,1.33720455 C2.86493182,1.33743182 1.76970455,1.33720455 0.674931818,1.33743182 C0.439022727,1.33765909 0.259704545,1.44265909 0.150386364,1.64811364 C0.0410681818,1.85425 0.0544772727,2.06379545 0.189477273,2.25629545 C0.284931818,2.39197727 0.421522727,2.47197727 0.58675,2.49152273 C0.676068182,2.50197727 0.766977273,2.49925 0.857204545,2.49925 C2.06834091,2.49947727 3.27947727,2.49947727 4.49061364,2.49947727" id="Fill-1" fill="#4E4E54" mask="url(#mask-2)"></path>
                </g>
                <mask id="mask-4" fill="white">
                    <use xlink:href="#path-3"></use>
                </mask>
                <g id="Clip-5"></g>
                <path d="M23.2386364,15.7375 L25.6429545,15.7375 L25.6429545,15.2202273 L23.2386364,15.2202273 L23.2386364,15.7375 Z M23.2386364,16.9531818 L25.6429545,16.9531818 L25.6429545,16.4359091 L23.2386364,16.4359091 L23.2386364,16.9531818 Z M23.2386364,18.1686364 L25.6429545,18.1686364 L25.6429545,17.6515909 L23.2386364,17.6515909 L23.2386364,18.1686364 Z M19.7445455,15.7375 L22.1486364,15.7375 L22.1486364,15.2202273 L19.7445455,15.2202273 L19.7445455,15.7375 Z M19.7445455,16.9531818 L22.1486364,16.9531818 L22.1486364,16.4359091 L19.7445455,16.4359091 L19.7445455,16.9531818 Z M19.7445455,18.1686364 L22.1486364,18.1686364 L22.1486364,17.6515909 L19.7445455,17.6515909 L19.7445455,18.1686364 Z M26.9006818,11.6806818 C26.8806818,11.2886364 26.5929545,10.9993182 26.2015909,10.9977273 L8.04318182,10.9977273 C7.54886364,10.9981818 7.25340909,11.3577273 7.34590909,11.8418182 C7.43409091,12.3043182 7.52068182,12.7668182 7.60795455,13.2290909 C7.60886364,13.2334091 7.61386364,13.2368182 7.62727273,13.2540909 L8.94090909,13.2540909 C10.3070455,13.2536364 9.36727273,13.2534091 10.7334091,13.2531818 C12.4768182,13.2529545 14.2202273,13.2538636 15.9636364,13.2525 C16.9286364,13.2520455 17.6927273,13.8056818 17.8822727,14.69 C17.9484091,14.9975 17.9359091,15.3243182 17.9381818,15.6425 C17.9438636,16.5075 17.9390909,17.3725 17.9375,18.2377273 C17.9356818,19.3234091 17.1218182,20.1325 16.0325,20.1325 C14.2727273,20.1325 12.5129545,20.1327273 10.7529545,20.1325 C9.40159091,20.1325 10.3563636,20.1320455 9.005,20.1320455 L8.90727273,20.1320455 C8.93090909,20.2704545 8.95068182,20.3979545 8.97431818,20.5247727 C9.14477273,21.4306818 9.31568182,22.3368182 9.4875,23.2425 C9.51022727,23.3620455 9.52022727,23.4884091 9.56704545,23.5984091 C9.68204545,23.8686364 9.90090909,24.0040909 10.1931818,24.0043182 L26.9088636,24.005 C27.3654545,24.0047727 27.6627273,23.6675 27.6234091,23.2097727 L26.9006818,11.6806818 Z" id="Fill-4" fill="#FFFFFF" mask="url(#mask-4)"></path>
                <path d="M14.8785682,16.4405229 C14.5781136,16.4400682 14.3269773,16.19075 14.3224318,15.8880227 C14.3176591,15.5839318 14.5619773,15.3321136 14.8656136,15.3277955 C15.1812955,15.3230227 15.43425,15.5662045 15.4360682,15.8755227 C15.4381136,16.1843864 15.1849318,16.44075 14.8785682,16.4405229 M12.7751591,16.4400682 C12.4683409,16.4455227 12.2110682,16.1916591 12.2103857,15.8827955 C12.2099318,15.5718864 12.4594773,15.3255227 12.7735682,15.3268807 C13.0751591,15.32825 13.3260682,15.5791591 13.3278938,15.8809773 C13.3294773,16.1773409 13.0751591,16.4346136 12.7751591,16.4400682 M4.52515757,18.4712045 C4.52606818,17.9450682 4.96447727,17.5025682 5.49197727,17.4950682 C5.80311364,17.49075 6.08379545,17.6459773 6.26425,17.8816591 C6.28379545,17.9091591 6.30493182,17.9350682 6.32175,17.9646136 C6.32334091,17.9673409 6.32470455,17.9702955 6.32652273,17.97325 C6.35652273,18.0277955 6.38197727,18.08575 6.40106818,18.1471136 C6.55947727,18.6516591 6.25879545,19.2093864 5.74606818,19.3621136 C5.39402273,19.4673409 5.03197727,19.3639318 4.78629545,19.1287045 C4.62606818,18.9534773 4.52470455,18.7227955 4.52515757,18.4712045 M16.0737955,14.3534773 C15.62175,14.3480227 15.16925,14.3523409 14.7169773,14.3523409 L11.0756136,14.3523409 C9.42902273,14.3523409 10.0887955,14.3605227 8.44265909,14.3466591 C8.04243182,14.34325 7.86197727,14.6446136 7.92902273,14.9777955 C8.12584091,15.9564318 8.30561364,16.9384773 8.48675,17.9200682 C8.09106818,17.9205227 7.69515909,17.9198409 7.29925,17.92075 C7.18265909,17.9209773 7.11606818,17.8950682 7.07561364,17.7775682 C7.06379545,17.7430227 7.04425,17.7109773 7.02311364,17.6798409 C6.76970455,17.1621136 6.27197727,16.7939318 5.67265909,16.7175682 C5.55765909,16.7030227 5.51402273,16.6596136 5.48265909,16.5541591 C4.79447727,14.2339318 1.79811364,2.77484091 1.10879545,0.455068182 C1.04402273,0.236659091 0.925159091,0.0830227273 0.697204545,0.0200681818 C0.300613636,-0.0890227273 -0.0837045455,0.263704545 0.0158409091,0.662113636 C0.0915227273,0.963704545 0.19175,1.25915909 0.280386364,1.55734091 C0.330386364,1.72552273 0.378568182,1.89415909 0.428568182,2.06234091 C0.989022727,3.94325 3.85175,14.9650682 4.41629545,16.8448409 C4.45311364,16.9671136 4.43788636,17.0371136 4.33811364,17.1252955 C3.75356818,17.6427955 3.56697727,18.4350682 3.88015909,19.1389318 C3.99879545,19.4048409 4.16493182,19.6143864 4.36811364,19.7750682 C4.73152273,20.0984773 5.21265909,20.26075 5.72243182,20.1943864 C6.34629545,20.1130227 6.78879545,19.7548409 7.06129545,19.1952955 C7.12765909,19.0587045 7.20425,19.0248409 7.34629545,19.0252955 C7.89152273,19.0266591 8.43652273,19.0255227 8.98152273,19.0259773 C9.02288636,19.0346136 9.06629545,19.0405227 9.11379545,19.0409773 C9.60993182,19.0434773 10.1065227,19.0416591 10.6028864,19.0416591 C13.1783409,19.0416591 13.4476591,19.0418864 16.0231136,19.0412045 C16.3740227,19.0412045 16.6428864,18.9002955 16.7815227,18.5659773 C16.8197045,18.4734773 16.8412955,18.3673409 16.84175,18.2673409 C16.8458409,17.2202955 16.8453864,16.1734773 16.8433409,15.1264318 C16.8424318,14.6766591 16.5274318,14.3589318 16.0737955,14.3534773" id="Fill-6" fill="#4E4E54" mask="url(#mask-4)"></path>
                <path d="M17.5911818,7.48743182 C17.5261818,7.26902273 17.4073182,7.11538636 17.1793636,7.05243182 C16.7827727,6.94334091 16.3984545,7.29629545 16.498,7.69447727 C16.5734545,7.99606818 16.6739091,8.29152273 16.7625455,8.58970455 C16.8125455,8.75788636 16.8607273,8.92652273 16.9107273,9.09470455 C17.028,9.48811364 17.1661818,9.95175 17.3152727,10.4524318 L18.4736818,10.4524318 C18.1482273,9.36015909 17.8393636,8.32288636 17.5911818,7.48743182" id="Fill-7" fill="#4E4E54" mask="url(#mask-4)"></path>
            </g>
        </g>
    </g>
</svg>