<?xml version="1.0" encoding="UTF-8"?>
<svg width="25px" height="30px" viewBox="0 0 25 30" version="1.1" xmlns="http://www.w3.org/2000/svg" xmlns:xlink="http://www.w3.org/1999/xlink">
    <title>DA6F1E50-2989-4C79-AB90-4CA5852348D5</title>
    <defs>
        <polygon id="path-1" points="0.162140629 0.103481089 13.4573156 0.103481089 13.4573156 3.10344828 0.162140629 3.10344828"></polygon>
        <polygon id="path-3" points="0 0.173479332 24.3120441 0.173479332 24.3120441 4.61312597 0 4.61312597"></polygon>
        <polygon id="path-5" points="0.0574655172 0.130862069 3.45228227 0.130862069 3.45228227 1.24210345 0.0574655172 1.24210345"></polygon>
        <polygon id="path-7" points="0 29.8691379 24.3121552 29.8691379 24.3121552 0.25862069 0 0.25862069"></polygon>
    </defs>
    <g id="Page-1" stroke="none" stroke-width="1" fill="none" fill-rule="evenodd">
        <g id="Homepage-step-1" transform="translate(-261.000000, -753.000000)">
            <g id="Group-21" transform="translate(226.000000, 486.000000)">
                <g id="Group-20" transform="translate(35.000000, 267.000000)">
                    <path d="M11.4683534,20.9602759 L11.4683534,21.1958793 C11.4683534,23.2705345 11.470681,25.3454483 11.4644684,27.4201034 C11.4639569,27.6050172 11.4980948,27.6730345 11.7042155,27.6720116 C13.6886121,27.6634655 15.6732672,27.6645 17.6579224,27.6712241 C17.84775,27.6720116 17.8909397,27.6114828 17.890174,27.4314828 C17.8836983,25.9092414 17.8883534,24.387 17.8849914,22.8645 C17.8836983,22.347 17.8686983,21.8292414 17.8601638,21.3117414 C17.8583534,21.2002759 17.8992155,21.0267414 17.8467155,20.991569 C17.7608534,20.9336379 17.6144741,20.9613103 17.4936983,20.9610517 C15.5599914,20.9602759 13.6268017,20.9602759 11.6933534,20.9602759 L11.4683534,20.9602759 Z" id="Fill-1" fill="#4E4E54"></path>
                    <g id="Group-5" transform="translate(8.793103, 26.765690)">
                        <mask id="mask-2" fill="white">
                            <use xlink:href="#path-1"></use>
                        </mask>
                        <g id="Clip-4"></g>
                        <path d="M5.80696552,3.10272414 C7.32377586,3.10272414 8.84032759,3.10091379 10.3573966,3.10350542 C11.3254138,3.10505172 12.153,2.77324138 12.8093793,2.05815517 C13.103431,1.73824138 13.3599828,1.38186207 13.4458448,0.941948276 C13.5133448,0.597206897 13.2751552,0.240310345 12.9361034,0.13737931 C12.5737759,0.0272068966 12.192569,0.192206897 12.0436034,0.536172414 C11.8615345,0.956948276 11.5798966,1.29031034 11.1547241,1.46151724 C10.9261034,1.55332759 10.6664483,1.60789655 10.4202414,1.6097069 C8.65618966,1.62186207 6.89187931,1.61617241 5.12808621,1.61643103 C3.72739655,1.61643103 2.32696552,1.61643103 0.926534483,1.61668966 C0.624982759,1.61668966 0.395327586,1.75091379 0.255672414,2.01393103 C0.115758621,2.27746552 0.133086207,2.54565517 0.305844828,2.79160345 C0.427655172,2.96539655 0.602482759,3.06755172 0.813775862,3.09263793 C0.928086207,3.10608621 1.0442069,3.10246552 1.15955172,3.10246552 C2.70894828,3.10298276 4.25782759,3.10272414 5.80696552,3.10272414" id="Fill-3" fill="#4E4E54" mask="url(#mask-2)"></path>
                    </g>
                    <g id="Group-8" transform="translate(0.000000, 3.748448)">
                        <mask id="mask-4" fill="white">
                            <use xlink:href="#path-3"></use>
                        </mask>
                        <g id="Clip-7"></g>
                        <path d="M14.4296121,1.14173276 C13.7546121,1.15156034 13.1944397,1.71716379 13.1931444,2.39035345 C13.1918534,3.07207759 13.7605603,3.64388793 14.4409914,3.64440553 C15.1242672,3.64492241 15.6797845,3.08138793 15.6797845,2.38828448 C15.6795259,1.70423276 15.1059052,1.13216379 14.4296121,1.14173276 M16.2694397,1.21311207 C16.3330603,1.30906034 16.4186638,1.39750862 16.4548707,1.50302586 C16.5065948,1.6535431 16.591681,1.68638793 16.7411638,1.68612931 C18.7573707,1.68121552 20.7738362,1.68276724 22.7900431,1.68276724 C23.0727155,1.68276724 23.3556466,1.67707759 23.6378017,1.68457759 C24.0699569,1.69621552 24.3890948,2.11414655 24.2957328,2.53725 C24.2132328,2.91173276 23.9610776,3.10207759 23.5384914,3.10233621 C21.2928879,3.10285345 19.0470259,3.10466379 16.8014224,3.09871552 C16.6198707,3.09819828 16.5215948,3.14164655 16.4367672,3.31621552 C16.0881466,4.03181897 15.5222845,4.49009483 14.7244397,4.59406034 C13.7471121,4.72130172 12.8442672,4.20302586 12.4234914,3.29733621 C12.3518534,3.14293966 12.271681,3.09871552 12.1079741,3.09897414 C9.59780172,3.10414655 5.02306034,3.10259483 2.51262931,3.10233621 C2.28840517,3.10233621 2.06418103,3.09975 1.83943966,3.09949138 C1.44142241,3.09923276 1.04262931,3.11449138 0.645646552,3.09664655 C0.121163793,3.07337069 -0.171077586,2.47311207 0.107456897,2.02725 C0.268060345,1.77043966 0.499784483,1.6809569 0.790991379,1.68121552 C3.88616379,1.68380172 9.04616379,1.68173276 12.1413362,1.68587069 C12.2822845,1.68587069 12.3513362,1.64811207 12.4113362,1.51233621 C12.8119397,0.60587069 13.7385776,0.0715603448 14.7169397,0.18975 C15.0203017,0.226474138 15.3257328,0.295525862 15.5543534,0.532681034 C15.7928017,0.759491379 16.0309914,0.986301724 16.2694397,1.21311207" id="Fill-6" fill="#4E4E54" mask="url(#mask-4)"></path>
                    </g>
                    <g id="Group-11" transform="translate(14.741379, 0.127759)">
                        <mask id="mask-6" fill="white">
                            <use xlink:href="#path-5"></use>
                        </mask>
                        <g id="Clip-10"></g>
                        <path d="M3.45134483,1.24210345 C3.45134483,0.892706897 3.45625862,0.553913793 3.44358621,0.216155172 C3.4422931,0.185637931 3.32901724,0.135465517 3.26772414,0.134948276 C2.56789655,0.129 1.86832759,0.131327586 1.1685,0.131068966 L0.0574655172,0.131068966 L0.0574655172,1.24210345 L3.45134483,1.24210345 Z" id="Fill-9" fill="#4E4E54" mask="url(#mask-6)"></path>
                    </g>
                    <mask id="mask-8" fill="white">
                        <use xlink:href="#path-7"></use>
                    </mask>
                    <g id="Clip-13"></g>
                    <path d="M16.7826724,12.1091379 L19.8576724,12.1091379 L19.8576724,11.4475862 L16.7826724,11.4475862 L16.7826724,12.1091379 Z M16.9414655,9.85318966 C16.8056897,9.85112069 16.7681897,9.89896552 16.7671552,10.0313793 C16.7617241,10.5488793 16.757069,10.5488793 17.2743103,10.5488793 C18.0711207,10.5488793 18.8676724,10.5439655 19.6639655,10.5525 C19.8359483,10.554569 19.8809483,10.5018103 19.8781034,10.3339655 C19.8700862,9.855 19.8775862,9.855 19.4081897,9.855 L18.3098276,9.855 L18.3098276,9.85577586 C17.8538793,9.85577586 17.3976724,9.85991379 16.9414655,9.85318966 L16.9414655,9.85318966 Z M21.5485345,14.9312069 C20.9555172,14.9312069 20.3785345,14.9348276 19.802069,14.9247414 C19.7539655,14.9242241 19.6877586,14.8414655 19.6634483,14.7827586 C19.4643103,14.3094828 19.0983621,14.0482759 18.5932759,14.0477586 C15.8844828,14.0459483 13.1759483,14.0459483 10.4674138,14.0482759 C9.97655172,14.0487931 9.58577586,14.3231897 9.42284483,14.7832759 C9.37965517,14.9050862 9.31887931,14.9350862 9.20017241,14.9340773 C8.69922414,14.9283621 8.19853448,14.9317241 7.69758621,14.9306897 C7.63577586,14.930431 7.57422414,14.9234483 7.51551724,14.919569 C7.50982759,14.8802586 7.50439655,14.8611207 7.50439655,14.8422414 C7.50387931,13.2949138 7.49974138,11.7473276 7.5062069,10.1997414 C7.50827586,9.74456897 7.86853448,9.40215517 8.3237069,9.39905172 C8.86293103,9.39491379 9.40241379,9.39801724 9.94189655,9.39775862 L10.2051724,9.39775862 L10.2051724,7.32801724 C10.2814655,7.32336207 10.3378448,7.31715517 10.3942241,7.31715517 C10.8822414,7.31637931 11.37,7.32181034 11.8580172,7.31301724 C11.9868103,7.31068966 12.0509483,7.35827586 12.1125,7.46431034 C13.1506034,9.2612069 15.7044828,9.27413793 16.7498276,7.4862931 C16.8232759,7.36034483 16.8967241,7.31172414 17.045431,7.31249087 C18.2899138,7.31948276 19.5349138,7.31637931 20.7796552,7.31637931 L21.5485345,7.31637931 L21.5485345,14.9312069 Z" id="Fill-12" fill="#FE6B46" mask="url(#mask-8)"></path>
                    <path d="M21.5628879,4.94635345 L21.5628879,3.51747414 C21.5626293,3.21488793 21.4876293,2.92911207 21.3246983,2.67721552 C20.9892672,2.15842241 20.5136638,1.85273276 19.8878017,1.84988793 C17.9486638,1.84161207 16.00875,1.81523276 14.0703879,1.85712931 C12.5075431,1.89075 11.3447845,2.64592241 10.6190948,4.03937069 C10.4928879,4.28143966 10.4178879,4.55040517 10.3229741,4.80825 C10.3082328,4.84756034 10.3136638,4.89411207 10.3079741,4.95773276 C10.8634914,4.95773276 11.4078879,4.96187069 11.9522845,4.95152586 C12.005819,4.95049138 12.0717672,4.87083621 12.1084914,4.81264655 C12.6996983,3.88523276 13.5396983,3.39721552 14.641681,3.47376724 C15.5628879,3.53764655 16.2702155,4.00807759 16.7548707,4.7994569 C16.8086638,4.88712931 16.8461638,4.96290517 16.9790948,4.96239056 C18.4560776,4.95643966 19.9330603,4.95876724 21.4097845,4.95799138 C21.4532328,4.95799138 21.496681,4.95178448 21.5628879,4.94635345" id="Fill-14" fill="#FE6B46" mask="url(#mask-8)"></path>
                    <path d="M14.5182414,17.6137241 C13.1824655,17.6137241 11.8466897,17.612431 10.5106552,17.6142414 C10.0968621,17.6150172 9.79686207,17.924069 9.81574138,18.3207931 C9.83151724,18.647431 10.1085,18.9135517 10.4661724,18.9368276 C10.6068621,18.9458793 10.7485862,18.9396724 10.8900517,18.9396724 C12.6303103,18.9394138 14.3708276,18.9391552 16.1113448,18.9388966 C16.9192759,18.9388966 17.7272069,18.942 18.5351379,18.9381207 C18.9892759,18.9357931 19.2776379,18.6520862 19.2546207,18.2437241 C19.2347069,17.8909655 18.9641897,17.6168276 18.6023793,17.6152759 C17.4463448,17.6095862 16.290569,17.6139828 15.1342759,17.6145 C14.928931,17.6145 14.7235862,17.6145 14.5182414,17.6145 L14.5182414,17.6137241 Z" id="Fill-15" fill="#FE6B46" mask="url(#mask-8)"></path>
                    <path d="M14.5450345,15.8238362 C15.8808103,15.8238362 17.2168448,15.8230603 18.5528793,15.8243539 C18.8350345,15.8246121 19.0553793,15.7159914 19.1826207,15.4617672 C19.3083103,15.2103879 19.2783103,14.964181 19.1078793,14.7381466 C18.9715862,14.5576293 18.776069,14.4986549 18.5652931,14.4986549 C16.7288276,14.4984052 14.8923621,14.5038362 13.0558966,14.5051293 C12.2223621,14.5056466 11.388569,14.499181 10.5550345,14.4999569 C10.116931,14.5004741 9.82132759,14.7614224 9.81460345,15.1431466 C9.80839655,15.5078017 10.1076207,15.8196983 10.4815862,15.8215086 C11.3802931,15.8256466 12.2787414,15.8230603 13.1774483,15.8230603 C13.6333966,15.8230603 14.0890862,15.8230603 14.5450345,15.8230603 L14.5450345,15.8238362 Z" id="Fill-16" fill="#FE6B46" mask="url(#mask-8)"></path>
                    <path d="M14.5531034,20.4949138 C15.875431,20.4949138 17.1980172,20.4928448 18.5203448,20.4967291 C18.8071552,20.4975 19.0399138,20.4077586 19.1777586,20.1483621 C19.3024138,19.9140517 19.2835345,19.6784483 19.1374138,19.4552586 C19.0091379,19.2602586 18.8211207,19.1839655 18.5956034,19.1837069 C18.0372414,19.182931 17.4786207,19.1826724 16.92,19.1826724 C14.840431,19.1824138 12.7611207,19.1821552 10.6815517,19.1821552 C10.6109483,19.1821552 10.5400862,19.1811207 10.4697414,19.1834483 C10.1317241,19.1950862 9.86741379,19.4169828 9.81853448,19.7283621 C9.77094828,20.034569 9.95663793,20.3485345 10.2641379,20.4550862 C10.3580172,20.4876724 10.4653448,20.4907759 10.5667241,20.4907759 C11.8955172,20.4931034 13.2243103,20.4923276 14.5531034,20.4923276 L14.5531034,20.4949138 Z" id="Fill-17" fill="#FE6B46" mask="url(#mask-8)"></path>
                    <path d="M14.5528448,17.3685 C15.9007759,17.3685 17.2487069,17.3700517 18.5963793,17.3677241 C18.9124138,17.3672069 19.1247414,17.2112586 19.2240517,16.923931 C19.3086207,16.6785 19.2323276,16.3666034 19.0166379,16.215569 C18.902069,16.1351379 18.75,16.0658276 18.6147414,16.0650517 C16.9267241,16.0572931 15.2384483,16.0637586 13.550431,16.0645345 C12.927931,16.0647931 12.3056897,16.0598793 11.682931,16.0583276 C11.2926724,16.0572931 10.9021552,16.0549655 10.5116379,16.0585862 C10.1058621,16.0622069 9.81465517,16.3443621 9.81568691,16.7247931 C9.81672414,17.0933276 10.1074138,17.3672069 10.5087931,17.3677241 C11.8567241,17.3695345 13.2049138,17.3685 14.5528448,17.3685" id="Fill-18" fill="#FE6B46" mask="url(#mask-8)"></path>
                    <path d="M15.55425,4.281 C15.7926983,4.50781034 16.0311466,4.73462069 16.2695948,4.96168966 C16.1027845,4.65936207 15.8984741,4.39686207 15.55425,4.281" id="Fill-19" fill="#FA9A54" mask="url(#mask-8)"></path>
                </g>
            </g>
        </g>
    </g>
</svg>