<?xml version="1.0" standalone="no"?>
<!DOCTYPE svg PUBLIC "-//W3C//DTD SVG 20010904//EN"
 "http://www.w3.org/TR/2001/REC-SVG-20010904/DTD/svg10.dtd">
<svg version="1.0" xmlns="http://www.w3.org/2000/svg"
 width="512.000000pt" height="512.000000pt" viewBox="0 0 512.000000 512.000000"
 preserveAspectRatio="xMidYMid meet">
<metadata>
Created by potrace 1.11, written by Peter Selinger 2001-2013
</metadata>
<g transform="translate(0.000000,512.000000) scale(0.100000,-0.100000)"
fill="#000000" stroke="none">
<path d="M2394 4632 c-6 -4 -68 -119 -139 -257 -70 -137 -165 -322 -210 -410
-119 -231 -247 -480 -370 -720 -59 -115 -136 -264 -170 -330 -35 -66 -109
-210 -165 -320 -56 -110 -140 -272 -185 -360 -116 -225 -246 -478 -360 -700
-108 -210 -228 -443 -359 -697 -47 -92 -86 -172 -86 -178 0 -7 97 -9 321 -8
l321 3 257 510 c142 281 499 989 793 1575 295 586 543 1077 550 1092 l14 27
39 -77 c21 -42 183 -369 361 -727 478 -965 1051 -2122 1124 -2270 l65 -130
315 -3 c173 -1 321 0 328 3 13 5 -16 64 -381 775 -227 443 -312 609 -452 885
-81 160 -187 367 -235 460 -48 94 -149 292 -225 440 -76 149 -181 356 -235
460 -54 105 -159 312 -235 460 -76 149 -163 320 -194 380 -31 61 -60 113 -66
117 -5 4 -100 8 -210 8 -110 0 -205 -4 -211 -8z"/>
<path d="M2573 1673 c-17 -43 -52 -127 -78 -188 -26 -60 -65 -150 -85 -200
-68 -161 -110 -259 -125 -290 -13 -28 -44 -99 -100 -235 -13 -30 -26 -65 -30
-77 l-6 -23 461 0 c436 0 462 1 457 18 -3 9 -22 55 -42 102 -20 47 -53 123
-72 170 -19 47 -48 113 -64 148 -16 34 -29 65 -29 68 0 3 -11 29 -24 57 -36
77 -126 285 -141 326 -7 20 -24 59 -37 86 -13 28 -31 65 -39 83 l-15 34 -31
-79z"/>
</g>
</svg>
